<svg width="20" height="20" viewBox="0 0 20 20" fill="none" xmlns="http://www.w3.org/2000/svg">
<path d="M6.5 20.0002C6.0875 20.0002 5.73438 19.8534 5.44063 19.5596C5.14687 19.2659 5 18.9127 5 18.5002V15.0002H1.5C1.0875 15.0002 0.734375 14.8534 0.440625 14.5596C0.146875 14.2659 0 13.9127 0 13.5002V6.50024C0 6.08774 0.146875 5.73462 0.440625 5.44087C0.734375 5.14712 1.0875 5.00024 1.5 5.00024H5V1.50024C5 1.08774 5.14687 0.734619 5.44063 0.440869C5.73438 0.147119 6.0875 0.000244141 6.5 0.000244141H13.5C13.9125 0.000244141 14.2656 0.147119 14.5594 0.440869C14.8531 0.734619 15 1.08774 15 1.50024V5.00024H18.5C18.9125 5.00024 19.2656 5.14712 19.5594 5.44087C19.8531 5.73462 20 6.08774 20 6.50024V13.5002C20 13.9127 19.8531 14.2659 19.5594 14.5596C19.2656 14.8534 18.9125 15.0002 18.5 15.0002H15V18.5002C15 18.9127 14.8531 19.2659 14.5594 19.5596C14.2656 19.8534 13.9125 20.0002 13.5 20.0002H6.5ZM1.5 9.25024H7C7.12627 9.25024 7.24622 9.28034 7.35985 9.34052C7.47348 9.4007 7.56187 9.47894 7.625 9.57524L8.775 11.3252L10.275 6.77524C10.3264 6.62524 10.4195 6.50024 10.5544 6.40024C10.6893 6.30024 10.8403 6.25024 11.0073 6.25024C11.1358 6.25024 11.25 6.28358 11.35 6.35024C11.45 6.41691 11.5417 6.50024 11.625 6.60024L13.4 9.25024H18.5V6.50024H14.25C14.0375 6.50024 13.8594 6.42837 13.7156 6.28462C13.5719 6.14087 13.5 5.96274 13.5 5.75024V1.50024H6.5V5.75024C6.5 5.96274 6.42812 6.14087 6.28438 6.28462C6.14062 6.42837 5.9625 6.50024 5.75 6.50024H1.5V9.25024ZM1.5 10.7502V13.5002H5.75C5.9625 13.5002 6.14062 13.5721 6.28438 13.7159C6.42812 13.8596 6.5 14.0377 6.5 14.2502V18.5002H13.5V14.2502C13.5 14.0377 13.5719 13.8596 13.7156 13.7159C13.8594 13.5721 14.0375 13.5002 14.25 13.5002H18.5V10.7502H13C12.8667 10.7502 12.75 10.7169 12.65 10.6502C12.55 10.5836 12.4583 10.5002 12.375 10.4002L11.225 8.67524L9.7 13.2252C9.65043 13.3752 9.55748 13.5002 9.42115 13.6002C9.28483 13.7002 9.13612 13.7502 8.975 13.7502C8.84167 13.7502 8.725 13.7169 8.625 13.6502C8.525 13.5836 8.44167 13.5002 8.375 13.4002L6.6 10.7502H1.5ZM0 10.7502H1.5V13.5002H5.75C5.9625 13.5002 6.14062 13.5721 6.28438 13.7159C6.42812 13.8596 6.5 14.0377 6.5 14.2502V18.5002H13.5V14.2502C13.5 14.0377 13.5719 13.8596 13.7156 13.7159C13.8594 13.5721 14.0375 13.5002 14.25 13.5002H18.5V10.7502H20V9.25024H18.5V6.50024H14.25C14.0375 6.50024 13.8594 6.42837 13.7156 6.28462C13.5719 6.14087 13.5 5.96274 13.5 5.75024V1.50024H6.5V5.75024C6.5 5.96274 6.42812 6.14087 6.28438 6.28462C6.14062 6.42837 5.9625 6.50024 5.75 6.50024H1.5V9.25024H0V10.7502Z" fill="#5C5F67"/>
</svg>
