<svg width="31" height="33" viewBox="0 0 31 33" fill="none" xmlns="http://www.w3.org/2000/svg">
<path d="M27.2001 12.2463C27.4585 12.2463 27.6801 12.2094 27.9385 12.1725V22.7694C27.9385 27.9756 23.7293 32.1848 18.5231 32.1848C13.5016 32.1848 9.40314 28.234 9.10776 23.3233C9.62471 23.3233 10.1046 23.2864 10.5847 23.2495C10.8431 27.3849 14.3139 30.7079 18.5231 30.7079C22.917 30.7079 26.4616 27.1633 26.4616 22.7695V12.1725C26.72 12.2094 26.9417 12.2463 27.2001 12.2463V12.2463ZM27.2001 0.430908C25.3908 0.430908 23.877 2.79402 23.877 5.60014C23.877 8.40626 25.3908 10.7694 27.2001 10.7694C29.0093 10.7694 30.5231 8.40626 30.5231 5.60014C30.5231 2.79402 29.0093 0.430908 27.2001 0.430908ZM11.0647 21.3663C9.80926 20.111 9.10769 18.4495 9.10769 16.6771C9.10769 14.9047 9.80926 13.2432 11.0647 11.9878C12.32 10.7324 13.9815 10.0308 15.7539 10.0308C16.0123 10.0308 16.234 10.0308 16.4924 10.0677V4.7139C14.6831 5.7847 11.5078 6.33854 8.36929 6.33854C6.85548 6.33854 5.30462 6.19083 3.93852 5.96931V21.4401C5.15705 21.6985 6.63397 21.8462 8.36929 21.8462C9.47699 21.8462 10.4738 21.7724 11.36 21.6616C11.2493 21.5878 11.1385 21.477 11.0647 21.3662L11.0647 21.3663ZM0.246216 19.631C0.246216 20.0002 1.02157 20.5909 2.4616 21.071V5.60023C1.61231 5.34182 0.836954 5.04638 0.246216 4.67715V19.631ZM15.7539 11.5079C17.12 11.5079 18.4123 12.0617 19.4093 13.0217C20.3693 14.0186 20.9231 15.3109 20.9231 16.6771C20.9231 18.0432 20.3693 19.3355 19.4093 20.3325C18.4123 21.2924 17.12 21.8463 15.7539 21.8463C14.3878 21.8463 13.0955 21.2924 12.0985 20.3325C11.1386 19.3355 10.5847 18.0432 10.5847 16.6771C10.5847 15.311 11.1386 13.9816 12.0985 13.0217C13.0585 12.0618 14.3878 11.5079 15.7539 11.5079ZM16.7878 14.5726L15.2371 16.1233C14.9417 16.4187 14.9417 16.8617 15.2371 17.1572C15.3847 17.3418 15.5693 17.4156 15.7539 17.4156C15.9386 17.4156 16.1232 17.3418 16.2709 17.1941L17.8216 15.6434C18.117 15.3479 18.117 14.9049 17.8216 14.6095C17.5632 14.314 17.0831 14.314 16.7878 14.5726ZM8.36936 4.8618C13.6124 4.8618 16.4924 3.38488 16.4924 2.64642C16.4924 1.90795 13.6124 0.431031 8.36936 0.431031C3.12634 0.431031 0.246277 1.90795 0.246277 2.64642C0.246277 3.38488 3.12634 4.8618 8.36936 4.8618Z" fill="white"/>
</svg>
