<svg width="20" height="18" viewBox="0 0 20 18" fill="none" xmlns="http://www.w3.org/2000/svg">
<path d="M19 9.22024C19 3.73024 14.74 0.000244141 10 0.000244141C5.31 0.000244141 1 3.65024 1 9.28024C0.4 9.62024 0 10.2602 0 11.0002V13.0002C0 14.1002 0.9 15.0002 2 15.0002H3V8.90024C3 5.03024 6.13 1.90024 10 1.90024C13.87 1.90024 17 5.03024 17 8.90024V16.0002H9V18.0002H17C18.1 18.0002 19 17.1002 19 16.0002V14.7802C19.59 14.4702 20 13.8602 20 13.1402V10.8402C20 10.1402 19.59 9.53024 19 9.22024Z" fill="#5C5F67"/>
<path d="M7 11.0002C7.55228 11.0002 8 10.5525 8 10.0002C8 9.44796 7.55228 9.00024 7 9.00024C6.44772 9.00024 6 9.44796 6 10.0002C6 10.5525 6.44772 11.0002 7 11.0002Z" fill="#5C5F67"/>
<path d="M13 11.0002C13.5523 11.0002 14 10.5525 14 10.0002C14 9.44796 13.5523 9.00024 13 9.00024C12.4477 9.00024 12 9.44796 12 10.0002C12 10.5525 12.4477 11.0002 13 11.0002Z" fill="#5C5F67"/>
<path d="M16 8.03024C15.52 5.18024 13.04 3.00024 10.05 3.00024C7.01997 3.00024 3.75997 5.51024 4.01997 9.45024C6.48997 8.44024 8.34997 6.24024 8.87997 3.56024C10.19 6.19024 12.88 8.00024 16 8.03024Z" fill="#5C5F67"/>
</svg>
