<svg width="228" height="157" viewBox="0 0 228 157" fill="none" xmlns="http://www.w3.org/2000/svg">
<path d="M223.335 99.276C219.574 90.7234 212.348 83.5754 203.67 80.0639C194.634 76.3962 184.255 77.7384 174.735 76.5055C166.463 75.4442 160.501 71.7453 155.57 65.1904C150.841 58.9008 146.596 51.9401 138.87 49.0372C132.752 46.7429 125.807 47.3828 119.736 49.7707C108.546 54.1875 100.087 63.5673 92.97 72.9158C86.4775 81.4529 81.1712 90.8014 69.1382 91.098C57.1052 91.4101 45.6497 84.543 33.5387 86.3535C17.5259 88.7569 4.19756 102.085 1.40391 117.958C-1.21806 132.831 5.35248 147.252 16.6519 155.726H210.678C224.88 140.635 232.356 119.784 223.335 99.276Z" fill="#CFE5FF"/>
<path d="M47.9286 155.711H48.4593C52.1737 151.637 55.0766 146.69 56.9182 141.212C59.8992 132.332 59.7743 123.014 56.5593 114.961C54.9362 110.903 52.5795 107.111 50.3165 103.443C48.0067 99.7286 45.6344 95.8893 44.0113 91.7691C43.3402 90.0679 42.8564 88.2419 42.5598 86.3691C42.4194 86.3535 42.2945 86.3379 42.1541 86.3223C42.4506 88.2575 42.9656 90.146 43.6523 91.9096C45.2754 96.061 47.6633 99.9159 49.9887 103.646C52.2518 107.298 54.5928 111.075 56.2003 115.102C59.3842 123.061 59.509 132.285 56.5437 141.087C54.6864 146.643 51.7211 151.637 47.9286 155.711Z" fill="white"/>
<path d="M209.726 138.793C213.721 139.651 217.576 140.416 221.306 140.884C221.369 140.759 221.431 140.634 221.494 140.509C217.732 140.026 213.846 139.261 209.804 138.402C203.655 137.091 197.006 135.671 190.405 135.671C186.316 135.671 182.258 136.218 178.34 137.669C176.858 138.215 175.438 138.918 174.064 139.745C170.537 138.246 166.979 136.592 163.467 134.797C166.026 132.878 168.602 130.989 171.208 129.179C190.561 115.663 208.415 108 225.661 105.831C225.63 105.706 225.583 105.581 225.552 105.456C208.259 107.641 190.358 115.32 170.974 128.867C168.305 130.724 165.683 132.644 163.077 134.61C159.128 132.565 155.211 130.318 151.434 127.837C144.567 123.342 136.42 116.927 129.288 108.406C156.896 105.3 185.02 101.398 207.978 86.0567C208.852 85.4793 209.82 84.7925 210.819 84.0122C210.709 83.9342 210.6 83.8561 210.491 83.7781C209.539 84.5272 208.602 85.1827 207.775 85.729C184.817 101.071 156.647 104.941 129.007 108.047C123.966 101.96 119.471 94.7966 116.35 86.5249C111.48 73.618 111.73 60.9607 117.052 51.7838C117.286 51.378 117.52 50.9878 117.785 50.5977C117.567 50.7069 117.348 50.8005 117.13 50.9098C116.989 51.1283 116.865 51.3468 116.724 51.5809C111.34 60.8514 111.074 73.6336 115.991 86.6498C119.096 94.8902 123.56 102.007 128.554 108.094C126.947 108.265 125.355 108.453 123.763 108.624C118.004 109.264 112.058 109.92 106.267 110.669C104.16 110.934 102.007 111.262 99.8685 111.652C95.2957 101.991 90.2546 92.5648 83.7621 84.4804C83.6685 84.574 83.5748 84.6677 83.4812 84.7613C89.9269 92.7833 94.9211 102.132 99.4784 111.73C90.161 113.509 81.1245 116.849 76.2864 124.622C71.776 131.879 71.776 141.914 76.302 154.446C76.4581 154.883 76.6141 155.305 76.7858 155.726H77.2072C77.0355 155.258 76.8482 154.79 76.6766 154.306C72.1974 141.898 72.1817 131.972 76.6297 124.824C81.4055 117.146 90.3951 113.853 99.6656 112.089C101.289 115.507 102.849 118.956 104.395 122.374L104.566 122.749C109.951 134.641 115.522 146.128 122.826 155.711H123.31C115.944 146.097 110.341 134.548 104.925 122.577L104.754 122.202C103.208 118.8 101.663 115.382 100.071 111.995C102.163 111.605 104.27 111.293 106.345 111.028C112.12 110.279 118.082 109.623 123.825 108.999C125.511 108.812 127.196 108.624 128.882 108.437C136.077 117.099 144.333 123.607 151.278 128.149C155.024 130.599 158.879 132.831 162.796 134.844C156.163 139.87 149.702 145.145 143.396 150.311C141.211 152.09 139.011 153.9 136.779 155.711H137.403C139.495 154.009 141.586 152.308 143.646 150.623C149.998 145.426 156.491 140.104 163.186 135.063C166.682 136.857 170.209 138.496 173.721 140.01C168.914 143.069 164.996 147.798 162.624 153.541C162.328 154.259 162.062 154.993 161.828 155.711H162.234C162.468 155.024 162.702 154.353 162.983 153.682C165.355 147.923 169.304 143.194 174.142 140.182C183.959 144.349 193.62 147.455 201.907 149.905L202.219 149.998C205.715 151.029 209.289 152.09 212.442 153.791C212.535 153.697 212.613 153.588 212.707 153.494C209.492 151.746 205.871 150.685 202.328 149.624L202.016 149.53C193.807 147.096 184.271 144.037 174.548 139.932C175.812 139.183 177.139 138.543 178.512 138.028C188.594 134.298 199.816 136.686 209.726 138.793Z" fill="white"/>
<path d="M17.6042 113.525C19.321 120.579 18.5563 128.196 15.4973 134.423C13.484 138.496 10.5967 142.195 7.02271 145.363C7.10074 145.473 7.16317 145.582 7.24121 145.691C10.862 142.476 13.8117 138.73 15.8563 134.594C18.962 128.289 19.7424 120.564 17.9944 113.431C16.6366 107.844 13.8898 103.131 10.0973 99.7129C10.0192 99.8065 9.9256 99.9158 9.84757 100.009C13.5776 103.365 16.262 108.031 17.6042 113.525Z" fill="white"/>
<path d="M105.924 24.1596C109.326 27.64 110.84 33.477 108.967 38.877C107.157 44.1053 103.177 48.4285 98.4015 51.2065C94.5622 53.4383 89.5367 54.6869 85.7598 52.3302C82.935 50.5822 81.4679 47.1487 81.3899 43.8244C81.3118 40.5001 82.4199 37.2539 83.809 34.2417C85.7598 29.981 88.3818 25.8452 92.2835 23.2544C97.6523 19.6804 102.647 20.8197 105.924 24.1596Z" fill="#CFE5FF"/>
<path d="M196.202 58.0093C195.128 54.4473 193.246 51.1698 190.547 48.177C187.839 45.1842 184.157 42.7146 179.484 40.7591C174.812 38.8037 168.872 37.8306 161.674 37.8306C155.927 37.8306 150.079 38.6017 144.112 40.1532C138.145 41.7047 132.967 43.9172 128.569 46.7907L134.289 62.4894L131.222 64.9681L135.666 66.2718C140.054 63.9767 144.048 62.3058 147.656 61.2684C151.254 60.231 155.083 59.7169 159.14 59.7169C163.189 59.7169 166.255 60.69 168.339 62.6455C170.423 64.6009 171.461 66.9603 171.461 69.7145C171.461 73.047 170.387 76.0031 168.257 78.592C166.108 81.1809 163.749 83.7974 161.16 86.4414C159.361 88.2775 157.616 90.1778 155.927 92.1241C154.238 94.0795 152.742 96.1727 151.456 98.4219C150.162 100.662 149.124 103.076 148.335 105.665C147.545 108.254 147.151 111.155 147.151 114.368C147.151 115.406 147.169 116.645 147.233 118.077C147.242 118.344 147.261 118.601 147.27 118.858H143.065L147.646 121.961H169.937C169.817 121.272 169.762 120.464 169.762 119.546C169.762 118.628 169.762 117.94 169.762 117.471C169.762 115.516 170.157 113.588 170.947 111.697C171.736 109.797 172.718 107.988 173.903 106.262C175.087 104.536 176.4 102.902 177.869 101.351C179.328 99.799 180.742 98.3301 182.092 96.953C183.891 95.1169 185.746 93.1615 187.664 91.0959C189.574 89.0211 191.272 86.8453 192.732 84.541C194.192 82.2367 195.403 79.7396 196.358 77.0313C197.313 74.3323 197.8 71.3761 197.8 68.1538C197.809 64.9681 197.267 61.5714 196.202 58.0093Z" fill="#002D49"/>
<path d="M154.413 58.6431C150.401 58.6431 146.619 59.1389 143.066 60.1395C139.504 61.1402 135.556 62.756 131.214 64.9777L124.2 46.1209C128.543 43.3392 133.656 41.2001 139.559 39.6945C145.453 38.1981 151.237 37.4453 156.92 37.4453C164.034 37.4453 169.901 38.3909 174.519 40.2821C179.136 42.1733 182.781 44.5602 185.453 47.4612C188.124 50.3531 189.988 53.5204 191.043 56.9723C192.099 60.4241 192.632 63.7016 192.632 66.8138C192.632 69.9351 192.154 72.7995 191.209 75.4067C190.263 78.0232 189.07 80.4468 187.619 82.6685C186.169 84.8902 184.498 87.0017 182.607 89.0122C180.715 91.0136 178.879 92.9048 177.107 94.6858C175.767 96.0261 174.381 97.4399 172.94 98.9455C171.489 100.442 170.185 102.03 169.019 103.701C167.854 105.372 166.871 107.125 166.1 108.961C165.32 110.798 164.934 112.661 164.934 114.552C164.934 115.002 164.934 115.663 164.934 116.554C164.934 117.444 164.989 118.225 165.099 118.886H143.066C142.837 117.775 142.699 116.526 142.644 115.131C142.58 113.745 142.561 112.542 142.561 111.541C142.561 108.429 142.947 105.62 143.727 103.113C144.507 100.607 145.527 98.2754 146.812 96.1088C148.088 93.933 149.566 91.9133 151.237 90.0129C152.908 88.1217 154.634 86.2856 156.405 84.5138C158.967 81.9524 161.299 79.4278 163.419 76.9215C165.531 74.4152 166.587 71.5509 166.587 68.3285C166.587 65.657 165.558 63.3803 163.502 61.4799C161.446 59.5795 158.416 58.6431 154.413 58.6431Z" fill="#004976"/>
<path d="M171.461 143.627C171.461 147.648 170.158 150.751 167.56 152.936C164.962 155.13 162.015 156.222 158.737 156.222C155.451 156.222 152.504 155.13 149.906 152.936C147.308 150.751 146.004 147.648 146.004 143.627C146.004 139.615 147.308 136.512 149.906 134.318C153.908 130.939 159.839 130.187 164.53 132.555C168.689 134.667 171.461 138.936 171.461 143.627Z" fill="#002D49"/>
<path d="M167.1 143.627C167.1 147.648 165.797 150.751 163.198 152.936C160.6 155.13 157.653 156.223 154.376 156.223C151.089 156.223 148.142 155.13 145.544 152.936C142.946 150.751 141.643 147.648 141.643 143.627C141.643 139.615 142.946 136.512 145.544 134.318C148.142 132.133 151.089 131.031 154.376 131.031C157.663 131.031 160.6 132.124 163.198 134.318C165.806 136.512 167.1 139.615 167.1 143.627Z" fill="#004976"/>
<path d="M55.3422 40.7025C57.5919 40.7025 59.4156 38.8788 59.4156 36.6291C59.4156 34.3794 57.5919 32.5557 55.3422 32.5557C53.0925 32.5557 51.2688 34.3794 51.2688 36.6291C51.2688 38.8788 53.0925 40.7025 55.3422 40.7025Z" fill="#D3DFFF"/>
<path d="M58.607 46.8744C59.8609 47.1094 61.0666 46.2903 61.3 45.0449C61.5333 43.7995 60.7061 42.5994 59.4522 42.3644C58.1983 42.1295 56.9927 42.9486 56.7593 44.194C56.5259 45.4394 57.3532 46.6394 58.607 46.8744Z" fill="#D3DFFF"/>
<path d="M45.2756 32.1504C54.1537 32.1504 61.3508 24.9533 61.3508 16.0752C61.3508 7.1971 54.1537 0 45.2756 0C36.3975 0 29.2004 7.1971 29.2004 16.0752C29.2004 24.9533 36.3975 32.1504 45.2756 32.1504Z" fill="#D3DFFF"/>
<path d="M39.0951 18.1042C40.2156 18.1042 41.124 17.1958 41.124 16.0753C41.124 14.9548 40.2156 14.0464 39.0951 14.0464C37.9745 14.0464 37.0662 14.9548 37.0662 16.0753C37.0662 17.1958 37.9745 18.1042 39.0951 18.1042Z" fill="white"/>
<path d="M45.2755 18.1042C46.396 18.1042 47.3044 17.1958 47.3044 16.0753C47.3044 14.9548 46.396 14.0464 45.2755 14.0464C44.155 14.0464 43.2466 14.9548 43.2466 16.0753C43.2466 17.1958 44.155 18.1042 45.2755 18.1042Z" fill="white"/>
<path d="M51.44 18.1042C52.5606 18.1042 53.4689 17.1958 53.4689 16.0753C53.4689 14.9548 52.5606 14.0464 51.44 14.0464C50.3195 14.0464 49.4111 14.9548 49.4111 16.0753C49.4111 17.1958 50.3195 18.1042 51.44 18.1042Z" fill="white"/>
<path d="M33.7576 147.595L35.2559 153.385C35.6461 154.899 37.1131 155.913 38.7206 155.804C43.6368 155.476 53.875 154.259 59.7432 149.936L58.0733 141.586C50.0045 141.134 42.4507 141.586 35.9114 143.787C34.2883 144.333 33.3362 145.987 33.7576 147.595Z" fill="#1B1B1F"/>
<path d="M43.1683 152.198C43.0903 152.198 43.0123 152.136 42.9811 152.058L40.9678 144.832C40.9365 144.723 40.999 144.613 41.1082 144.598C41.2175 144.567 41.3267 144.629 41.3423 144.738L43.3556 151.964C43.3868 152.074 43.3244 152.183 43.2152 152.198C43.1996 152.198 43.1839 152.198 43.1683 152.198Z" fill="white"/>
<path d="M47.5226 151.231C47.4445 151.231 47.3665 151.169 47.3353 151.091L45.322 143.865C45.2908 143.755 45.3532 143.646 45.4625 143.631C45.5717 143.599 45.681 143.662 45.6966 143.771L47.7099 150.997C47.7411 151.106 47.6786 151.216 47.5694 151.231C47.5538 151.231 47.5382 151.231 47.5226 151.231Z" fill="white"/>
<path d="M52.5797 116.302L33.8201 121.874L47.7571 140.961L67.7496 142.553L95.3428 130.895L84.8549 115.116L52.5797 116.302Z" fill="#2E3038"/>
<path d="M75.7092 118.956C116.912 106.767 123.529 143.178 59.2438 149.795C56.9808 147.235 54.3276 142.803 53.2664 139.104L87.2115 123.419L75.7092 118.956Z" fill="#2E3038"/>
<path d="M77.4572 145.05C75.5376 144.426 73.6803 143.208 73.6803 143.208L67.063 145.284L68.5769 152.495L75.4595 153.899C77.5509 150.06 77.6757 146.923 77.4572 145.05Z" fill="#F9B384"/>
<path d="M53.4225 139.37L53.126 138.871C60.2115 134.75 78.3468 124.871 93.7978 121.953L93.907 122.53C78.5497 125.417 60.4769 135.265 53.4225 139.37Z" fill="#1B1B1F"/>
<path d="M52.5799 116.303C14.2336 109.014 4.30754 145.862 68.5771 152.495C70.8401 149.936 72.6349 146.924 73.6806 143.209C63.8013 136.607 52.7672 130.318 40.6718 124.34L52.5799 116.303Z" fill="#2E3038"/>
<path d="M73.5241 143.475C71.6981 142.32 69.7941 141.087 67.7808 139.791C57.6831 133.268 46.2275 125.87 36.5044 121.656L36.7385 121.125C46.5085 125.355 57.9796 132.768 68.1085 139.308C70.1218 140.603 72.0259 141.836 73.8363 142.991L73.5241 143.475Z" fill="#1B1B1F"/>
<path d="M24.4401 134.578L23.925 134.297C25.3609 131.691 27.6707 129.927 30.7765 129.069L30.9326 129.631C27.9516 130.473 25.8291 132.081 24.4401 134.578Z" fill="#1B1B1F"/>
<path d="M104.489 132.362C103.115 129.865 100.977 128.242 97.9961 127.415L98.1522 126.853C101.258 127.711 103.568 129.475 105.004 132.081L104.489 132.362Z" fill="#1B1B1F"/>
<path d="M64.9873 152.183L64.5659 151.777C67.6405 148.484 69.5133 145.019 70.3249 141.18L70.9023 141.305C70.0596 145.254 68.1399 148.812 64.9873 152.183Z" fill="#1B1B1F"/>
<path d="M96.5913 142.912C91.6751 139.884 82.1549 145.128 79.767 145.394C79.0647 145.472 78.2687 145.316 77.4728 145.066C77.6913 146.923 77.5664 150.076 75.4751 153.899L76.6456 154.134C76.6456 154.134 84.73 157.099 93.2983 155.366C101.18 153.775 100.446 145.3 96.5913 142.912Z" fill="#1B1B1F"/>
<path d="M89.8959 152.838C89.8803 152.838 89.8491 152.838 89.8334 152.823C89.7242 152.791 89.6774 152.682 89.7086 152.573C90.286 150.731 90.5514 147.095 88.8502 144.645C88.7878 144.551 88.8034 144.442 88.897 144.379C88.9907 144.317 89.0999 144.332 89.1623 144.426C90.9259 146.986 90.6762 150.778 90.0675 152.698C90.0519 152.791 89.9739 152.838 89.8959 152.838Z" fill="white"/>
<path d="M86.0406 153.572C86.025 153.572 85.9938 153.572 85.9782 153.556C85.869 153.525 85.8221 153.416 85.8534 153.306C86.4308 151.465 86.6961 147.828 84.995 145.378C84.9325 145.284 84.9482 145.175 85.0418 145.113C85.1354 145.05 85.2447 145.066 85.3071 145.159C87.0707 147.719 86.821 151.512 86.2123 153.431C86.1967 153.525 86.1187 153.572 86.0406 153.572Z" fill="white"/>
<path d="M45.79 68.7954C45.79 68.7954 55.4508 60.5861 55.0918 59.0254C54.8421 57.9173 52.0953 59.5405 52.0953 59.5405C52.0953 59.5405 55.9346 54.9832 55.7317 54.437C55.3883 53.4538 52.7352 55.2954 52.7352 55.2954C52.7352 55.2954 54.53 52.7202 53.6716 52.2988C52.8132 51.8775 50.9403 53.4694 50.9403 53.4694C50.9403 53.4694 52.0328 52.0335 51.5178 51.659C51.0028 51.2844 48.7866 52.8295 48.7866 52.8295C48.7866 52.8295 49.5825 51.0191 47.897 51.7058C46.2114 52.3925 34.3813 63.2549 34.3813 63.2549L45.79 68.7954Z" fill="#F9B384"/>
<path d="M49.7538 59.056C49.707 59.056 49.6602 59.0404 49.629 59.0092C47.9747 57.4953 47.2411 57.1207 45.4151 56.5589C45.3059 56.5277 45.259 56.4184 45.2903 56.3091C45.3215 56.1999 45.4307 56.1531 45.54 56.1843C47.4284 56.7618 48.1931 57.1519 49.9099 58.7126C49.988 58.7907 49.988 58.9155 49.9255 58.9936C49.8475 59.0248 49.8007 59.056 49.7538 59.056Z" fill="#E28B6D"/>
<path d="M46.8355 63.5039C46.8199 63.5039 46.8199 63.5039 46.8043 63.5039C46.695 63.4883 46.617 63.3947 46.6326 63.2854C46.8199 61.9276 47.2569 61.0848 47.9436 60.6947C48.5367 60.3669 49.3014 60.3981 50.2222 60.7883C50.3159 60.8351 50.3627 60.9444 50.3315 61.038C50.2846 61.1316 50.1754 61.1785 50.0818 61.1472C49.2702 60.8039 48.6303 60.7571 48.1465 61.0224C47.5846 61.3345 47.2101 62.1149 47.0384 63.3322C47.0228 63.4415 46.9291 63.5039 46.8355 63.5039Z" fill="#E28B6D"/>
<path d="M46.383 55.2949C46.3361 55.2949 46.2737 55.2793 46.2425 55.2325C46.1645 55.1544 46.1645 55.0296 46.2581 54.9515L48.6772 52.6729C48.7552 52.5949 48.8801 52.5949 48.9581 52.6885C49.0361 52.7666 49.0362 52.8914 48.9425 52.9695L46.5234 55.2481C46.4766 55.2793 46.4298 55.2949 46.383 55.2949Z" fill="#E28B6D"/>
<path d="M48.6304 56.0749C48.5836 56.0749 48.5367 56.0593 48.4899 56.0281C48.4119 55.95 48.4119 55.8252 48.4899 55.7471L50.8154 53.3281C50.8934 53.25 51.0183 53.25 51.0963 53.3281C51.1743 53.4061 51.1743 53.531 51.0963 53.609L48.7708 56.0281C48.724 56.0593 48.6772 56.0749 48.6304 56.0749Z" fill="#E28B6D"/>
<path d="M50.9247 57.4486C50.8779 57.4486 50.8311 57.433 50.7843 57.4018C50.7062 57.3238 50.7062 57.1989 50.7687 57.1209L52.5947 55.1544C52.6727 55.0764 52.7976 55.0763 52.8756 55.1388C52.9536 55.2168 52.9536 55.3417 52.8912 55.4197L51.0652 57.3862C51.0184 57.4174 50.9716 57.4486 50.9247 57.4486Z" fill="#E28B6D"/>
<path d="M82.2787 123.716L46.9601 125.089L43.0583 92.892C43.0583 92.892 54.8728 81.6862 59.4301 77.5503L67.1087 77.1602C90.9405 87.9914 87.0388 101.507 82.2787 123.716Z" fill="#5FB1FA"/>
<path d="M67.1089 77.1602C67.1089 77.1602 94.3587 79.4856 102.958 98.1671C111.37 116.443 76.8164 122.951 76.8164 122.951L67.1089 77.1602Z" fill="#5FB1FA"/>
<path d="M35.9577 81.1711L47.2259 67.4682L36.6912 61.085C32.3057 64.1439 23.7999 71.0578 16.605 78.8925C15.0131 80.6249 13.7802 82.6382 13.1559 84.87C12.6253 86.774 12.5316 88.6469 12.8282 90.4729C13.6085 95.2642 17.3698 98.9475 22.3952 99.5405C26.6872 100.04 43.0745 98.7602 56.3404 94.8584L60.2422 79.7977C58.2289 78.6584 43.3242 78.4555 35.9577 81.1711Z" fill="#5FB1FA"/>
<g opacity="0.8">
<path d="M89.8642 84.5739C89.9266 84.5583 89.989 84.5426 90.0359 84.527C89.911 84.449 89.7861 84.3866 89.6613 84.3085C87.6636 84.7611 85.6035 85.2449 83.5746 85.4791C82.3572 85.6195 78.2682 85.9004 77.0821 83.1848C76.489 81.827 76.9416 80.3288 77.6127 79.2675C77.519 79.2363 77.4254 79.2051 77.3162 79.1895C76.6295 80.3132 76.1925 81.8738 76.8167 83.2941C78.0965 86.197 82.3416 85.9161 83.6058 85.7756C85.6971 85.5259 87.8197 85.0421 89.8642 84.5739Z" fill="white"/>
<path d="M102.568 105.628C101.273 105.128 99.9152 104.598 98.5106 104.738C96.0291 104.972 93.9065 107.423 93.7817 110.201C93.688 112.089 94.4215 114.087 95.795 115.835C95.873 115.788 95.9666 115.726 96.0447 115.679C94.7025 113.978 93.9846 112.058 94.0782 110.216C94.203 107.579 96.2007 105.253 98.5418 105.019C99.884 104.894 101.148 105.378 102.475 105.893C102.943 106.08 103.427 106.268 103.926 106.424C103.957 106.33 103.973 106.237 104.004 106.143C103.505 105.987 103.037 105.815 102.568 105.628Z" fill="white"/>
<path d="M33.7885 96.3261C32.0873 94.9215 29.4498 94.5469 26.5313 95.2961C23.9405 95.9672 21.7243 97.2938 20.1948 99.0574C20.2885 99.0886 20.3977 99.1198 20.4914 99.151C21.974 97.481 24.1122 96.2325 26.6093 95.577C29.4185 94.8435 31.9781 95.2024 33.6012 96.5446C34.3816 97.1845 34.9278 98.0117 35.318 98.9169C35.4116 98.9013 35.5209 98.9013 35.6145 98.8857C35.2087 97.9181 34.6313 97.0128 33.7885 96.3261Z" fill="white"/>
<path d="M18.3999 76.9732C21.5837 76.1772 24.7051 75.0692 27.5612 73.4148C28.6381 72.7905 29.871 71.9946 30.7294 70.824C31.6502 69.5755 31.9468 68.0928 31.541 66.8599C31.3849 66.3761 31.104 65.9547 30.745 65.6113C30.667 65.6738 30.5889 65.7362 30.5265 65.7986C30.8543 66.1107 31.1196 66.5009 31.26 66.9535C31.6346 68.0928 31.3537 69.4818 30.4953 70.6524C29.6681 71.7761 28.4664 72.5564 27.4207 73.1651C24.7207 74.7258 21.7866 75.8027 18.7745 76.583C18.6652 76.7079 18.5404 76.8327 18.3999 76.9732Z" fill="white"/>
</g>
<path d="M69.6065 70.0126V70.512L69.5285 78.2687L69.5129 79.1115C69.4973 80.4225 68.9667 81.6242 68.0927 82.4826C67.2343 83.341 66.0325 83.8872 64.7216 83.8872C62.0528 83.9028 59.8834 81.7646 59.8522 79.0958L59.7585 69.4976L69.6065 70.0126Z" fill="#F9B384"/>
<path d="M69.6064 70.5122L69.5284 78.2689C65.2208 76.5053 63.4417 71.8388 63.4417 71.8388L69.6064 70.5122Z" fill="#1B1B1F"/>
<path d="M71.3078 56.9651C72.8529 58.8223 77.3633 69.3258 72.7904 72.9154C67.6401 76.9576 59.8054 70.3246 59.8054 70.3246L58.7598 58.0887L65.5644 56.2939L71.3078 56.9651Z" fill="#F9B384"/>
<path d="M55.2948 56.2939C55.2948 56.2939 40.2028 64.1599 52.5167 86.8368C54.093 89.7553 57.589 91.0195 60.5855 89.5992C63.8006 88.0698 65.0179 84.1524 63.2699 81.0466C61.2566 77.4726 59.3214 72.8686 60.1485 69.4506L55.2948 56.2939Z" fill="#1B1B1F"/>
<path d="M56.715 64.0819C58.9647 64.0819 60.7884 62.2582 60.7884 60.0085C60.7884 57.7588 58.9647 55.9351 56.715 55.9351C54.4653 55.9351 52.6416 57.7588 52.6416 60.0085C52.6416 62.2582 54.4653 64.0819 56.715 64.0819Z" fill="#2E3038"/>
<path d="M61.7401 64.9093C61.3031 62.3653 61.0378 60.6174 63.5973 59.3064C63.5973 59.3064 72.665 60.9607 74.3974 57.5272C76.1298 54.1093 73.4922 48.7092 67.9673 52.4549C53.8274 49.6925 51.9389 62.9272 56.2153 67.344L60.4447 66.6885C61.3031 66.5636 61.8806 65.7677 61.7401 64.9093Z" fill="#1B1B1F"/>
<path d="M68.7632 65.5333C69.0994 65.5333 69.3719 65.2608 69.3719 64.9246C69.3719 64.5884 69.0994 64.3159 68.7632 64.3159C68.4271 64.3159 68.1545 64.5884 68.1545 64.9246C68.1545 65.2608 68.4271 65.5333 68.7632 65.5333Z" fill="#1B1B1F"/>
<path d="M72.8365 63.5201C73.1726 63.5201 73.4451 63.2476 73.4451 62.9114C73.4451 62.5752 73.1726 62.3027 72.8365 62.3027C72.5003 62.3027 72.2278 62.5752 72.2278 62.9114C72.2278 63.2476 72.5003 63.5201 72.8365 63.5201Z" fill="#1B1B1F"/>
<path d="M72.4153 66.782C72.3684 66.782 72.3372 66.7664 72.2904 66.7352C72.228 66.6727 72.2124 66.5635 72.2904 66.501C72.5245 66.2513 72.7898 65.8924 72.6806 65.6271C72.5713 65.3617 72.0719 65.2369 71.8534 65.2369C71.3696 65.2369 71.1355 64.3785 71.1043 64.2068C71.0887 64.1132 71.1355 64.0195 71.2291 64.0039C71.3228 63.9883 71.4164 64.0352 71.432 64.1288C71.5257 64.4878 71.7129 64.8935 71.8534 64.8935C72.0875 64.8935 72.7898 65.0028 72.9927 65.4866C73.1488 65.8299 72.9927 66.2513 72.5245 66.7352C72.5089 66.7664 72.4621 66.782 72.4153 66.782Z" fill="#1B1B1F"/>
<path d="M72.4465 69.0603C72.4152 69.0603 72.384 69.0447 72.3528 69.0291C71.2135 68.2644 70.0742 68.9043 70.0586 68.9043C69.9806 68.9511 69.8713 68.9199 69.8245 68.8418C69.7777 68.7638 69.8089 68.6546 69.8869 68.6077C69.9337 68.5765 71.2291 67.8586 72.5401 68.7326C72.6181 68.7794 72.6337 68.8887 72.5869 68.9667C72.5557 69.0447 72.5089 69.0603 72.4465 69.0603Z" fill="#1B1B1F"/>
<path d="M68.4978 62.3182C68.8411 62.9581 68.248 63.0986 67.5457 63.4732C66.8434 63.8477 66.1255 63.9882 65.9694 63.6761C65.8134 63.3639 66.2347 62.8177 66.9371 62.4431C67.6394 62.0685 68.2324 61.8188 68.4978 62.3182Z" fill="#1B1B1F"/>
<path d="M71.0417 61.1476C71.1978 61.7251 71.6192 61.4754 72.2434 61.3037C72.8677 61.132 73.3671 60.8199 73.3047 60.5546C73.2267 60.2737 72.6648 60.1956 72.0406 60.3517C71.4319 60.5234 70.9325 60.695 71.0417 61.1476Z" fill="#1B1B1F"/>
<path opacity="0.4" d="M65.9696 69.513C66.9523 69.513 67.7488 68.7164 67.7488 67.7338C67.7488 66.7512 66.9523 65.9546 65.9696 65.9546C64.987 65.9546 64.1904 66.7512 64.1904 67.7338C64.1904 68.7164 64.987 69.513 65.9696 69.513Z" fill="#EB5D60"/>
<path d="M61.3945 69.4024C62.2054 68.3515 61.8946 66.7526 60.7004 65.8311C59.5062 64.9096 57.8808 65.0145 57.0698 66.0654C56.2589 67.1163 56.5697 68.7153 57.7639 69.6368C58.9581 70.5583 60.5835 70.4533 61.3945 69.4024Z" fill="#F9B384"/>
<path d="M60.2892 68.6388C60.1956 68.6388 60.1176 68.5608 60.1176 68.4671C60.1176 67.9677 59.8678 67.4995 59.4621 67.2186C59.1031 66.9845 58.6973 66.922 58.3384 67.0625C58.2447 67.0937 58.1511 67.0625 58.1199 66.9689C58.0886 66.8752 58.1199 66.7816 58.2135 66.7504C58.6661 66.5631 59.2123 66.6255 59.6493 66.9377C60.1488 67.281 60.4609 67.8429 60.4609 68.4671C60.4609 68.5608 60.3829 68.6388 60.2892 68.6388Z" fill="#1B1B1F"/>
<path d="M36.1078 81.2878L35.8213 81.0229L29.6662 87.6813L29.9527 87.9462L36.1078 81.2878Z" fill="#1B1B1F"/>
<path d="M79.2196 109.67L79.1104 109.296C83.5896 107.922 87.9439 106.299 91.8925 101.367L92.2046 101.617C88.178 106.627 83.7612 108.281 79.2196 109.67Z" fill="#1B1B1F"/>
<path d="M81.936 94.562H43.7925C42.4191 94.562 41.311 95.7637 41.311 97.2464V124.481C41.311 125.963 42.4191 127.165 43.7925 127.165H81.936C83.3094 127.165 84.4175 125.963 84.4175 124.481V97.2464C84.4331 95.7637 83.3094 94.562 81.936 94.562Z" fill="#D3DFFF"/>
<path d="M64.8774 109.139C65.0179 109.139 65.1428 109.264 65.1428 109.42V112.291C65.1428 112.447 65.0179 112.572 64.8774 112.572H60.8508C60.7104 112.572 60.5855 112.447 60.5855 112.291V109.42C60.5855 109.264 60.7104 109.139 60.8508 109.139H64.8774ZM64.8774 108.358H60.8508C60.2734 108.358 59.8052 108.842 59.8052 109.42V112.291C59.8052 112.884 60.2734 113.353 60.8508 113.353H64.8774C65.4549 113.353 65.9231 112.869 65.9231 112.291V109.42C65.9231 108.842 65.4549 108.358 64.8774 108.358Z" fill="#1F3C88"/>
</svg>
