<svg width="35" height="29" viewBox="0 0 35 29" fill="none" xmlns="http://www.w3.org/2000/svg">
<path d="M14.3935 18.6917H17.3448C18.4703 18.6917 19.3812 17.6361 19.3812 16.3419C19.3812 15.0478 18.4664 13.9922 17.3448 13.9922H12.9457C11.8203 13.9922 10.9093 15.0478 10.9093 16.3419C10.9093 17.6361 11.8242 18.6917 12.9457 18.6917H14.3935Z" fill="white"/>
<path d="M18.615 23.7618C19.6291 23.7618 20.4566 22.8074 20.4566 21.6369C20.4566 20.4667 19.6294 19.512 18.615 19.512H14.395C13.3808 19.512 12.5533 20.4664 12.5533 21.6369C12.5533 22.8071 13.3805 23.7618 14.395 23.7618H18.615Z" fill="white"/>
<path d="M6.89721 20.1181C6.88538 19.7372 6.79769 19.3608 6.63473 19.0306C6.62684 19.0169 6.6229 19.0075 6.61895 18.9938C6.16561 17.8097 5.30263 16.4697 4.86108 15.8181C4.41957 16.4652 3.55656 17.81 3.10321 18.9938C3.09927 19.0075 3.09138 19.0215 3.08743 19.0306C2.92448 19.3611 2.83284 19.7375 2.82495 20.1181V20.1272V20.1916C2.82495 21.4902 3.73981 22.5414 4.86139 22.5414C5.98297 22.5414 6.89783 21.4858 6.89783 20.1916V20.1272V20.1181H6.89721Z" fill="white"/>
<path d="M19.8272 24.5881H16.2518C15.2376 24.5881 14.4102 25.5426 14.4102 26.7131C14.4102 27.8832 15.2373 28.838 16.2518 28.838H19.8272C20.1374 28.838 20.4278 28.7508 20.6824 28.5947C20.6942 28.5856 20.7024 28.581 20.7142 28.5765C21.2789 28.2141 21.6649 27.5163 21.6649 26.718C21.6649 25.5478 20.8378 24.5931 19.8233 24.5931L19.8272 24.5881Z" fill="white"/>
<path d="M31.401 9.50306C29.2812 7.40125 20.9287 2.32997 17.4369 0.251107C16.566 -0.267439 15.4839 0.0399761 14.9192 0.962572C14.6091 1.46746 14.4938 2.08227 14.593 2.68801C14.6925 3.29374 14.9908 3.82143 15.4362 4.16105L19.9782 7.65818C20.038 7.68129 20.0896 7.72261 20.1333 7.77758L21.6885 8.97535C21.788 9.05343 21.8475 9.18192 21.8475 9.31952C21.8475 11.3755 22.1139 13.1468 22.6389 14.5879C23.0525 15.7213 23.6254 16.6575 24.3492 17.3599C25.5781 18.5622 26.8271 18.6908 26.839 18.6953C27.0338 18.7135 27.181 18.9109 27.1652 19.1403C27.1494 19.3651 26.9783 19.5349 26.7834 19.5212C26.7237 19.5167 25.3239 19.3791 23.9198 18.0296C23.1045 17.245 22.4563 16.2076 21.9908 14.9457C21.438 13.4496 21.1515 11.6324 21.1317 9.54421L19.7317 8.46583L2.03644 8.45673C0.914864 8.45673 0 9.51234 0 10.8065C0 12.1006 0.914864 13.1562 2.03644 13.1562H16.6648C16.6848 13.1562 16.7045 13.1562 16.7246 13.1608H17.3412C18.8606 13.1608 20.0935 14.5833 20.0935 16.3365C20.0935 17.3004 19.7196 18.1677 19.127 18.7503C20.2883 19.0255 21.1634 20.2188 21.1634 21.6368C21.1634 22.4995 20.8412 23.2796 20.3241 23.8166C21.4936 24.0873 22.3763 25.2805 22.3763 26.708C22.3763 27.3964 22.1736 28.0252 21.8313 28.5252H24.6115C26.0195 28.5252 27.161 28.3645 28.1075 28.0388C28.9347 27.7542 29.6029 27.3459 30.2156 26.7584L30.4462 26.5105C30.4462 26.5105 30.458 26.5014 30.462 26.4969C31.5835 25.4321 32.5342 25.0008 33.7392 25.0008H35V10.664H33.9698C33.0549 10.664 32.164 10.2603 31.3966 9.49836L31.401 9.50306Z" fill="white"/>
</svg>
