<svg width="18" height="18" viewBox="0 0 18 18" fill="none" xmlns="http://www.w3.org/2000/svg">
<path d="M16 0.000244141H2C0.9 0.000244141 0 0.900244 0 2.00024V16.0002C0 17.1002 0.9 18.0002 2 18.0002H16C17.1 18.0002 18 17.1002 18 16.0002V2.00024C18 0.900244 17.1 0.000244141 16 0.000244141ZM9.01 15.0002C8.31 15.0002 7.75 14.4402 7.75 13.7402C7.75 13.0302 8.31 12.4902 9.01 12.4902C9.72 12.4902 10.26 13.0302 10.26 13.7402C10.25 14.4302 9.72 15.0002 9.01 15.0002ZM12.02 7.60024C11.26 8.71024 10.54 9.06024 10.15 9.77024C9.99 10.0602 9.93 10.2502 9.93 11.1802H8.11C8.11 10.6902 8.03 9.89024 8.42 9.20024C8.91 8.33024 9.84 7.81024 10.38 7.04024C10.95 6.23024 10.63 4.71024 9.01 4.71024C7.95 4.71024 7.43 5.51024 7.21 6.19024L5.56 5.49024C6.01 4.15024 7.22 3.00024 8.99 3.00024C10.47 3.00024 11.48 3.67024 12 4.52024C12.44 5.24024 12.7 6.59024 12.02 7.60024Z" fill="#5C5F67"/>
</svg>
