<svg width="267" height="150" viewBox="0 0 267 150" fill="none" xmlns="http://www.w3.org/2000/svg">
<path d="M142.9 7C142.9 7 127.5 10.6 133.5 25.1C133.5 25.1 136.6 33.4 146.8 33.8C146.8 33.8 160.9 34.2 160.1 18.3C160.1 18.3 145.3 16.8 145.7 31.2C145.7 31.2 139 30.2 136.4 25.3C136.4 25.2 149.1 20 142.9 7Z" fill="#06377B"/>
<path d="M165.4 49.2C165.4 49.2 161.6 33.8999 147.2 40.0999C147.2 40.0999 139 43.4 138.7 53.5C138.7 53.5 138.5 67.5999 154.4 66.5999C154.4 66.5999 155.6 51.8 141.3 52.4C141.3 52.4 142.2 45.7 147.1 43C147.1 43.1 152.4 55.7 165.4 49.2Z" fill="#06377B"/>
<path d="M124.1 72.3999C124.1 72.3999 139.2 67.6999 132.1 53.6999C132.1 53.6999 128.4 45.6999 118.2 45.9999C118.2 45.9999 104.1 46.5999 106 62.3999C106 62.3999 120.9 62.7999 119.5 48.4999C119.5 48.4999 126.3 48.9999 129.2 53.7999C129.2 53.7999 116.9 59.8999 124.1 72.3999Z" fill="#06377B"/>
<path d="M99.7001 30.8002C99.7001 30.8002 103.2 46.2002 117.8 40.2002C117.8 40.2002 126.1 37.1002 126.5 26.9002C126.5 26.9002 126.9 12.8002 111 13.6002C111 13.6002 109.5 28.4002 123.8 28.1002C123.8 28.1002 122.8 34.8002 117.8 37.4002C117.8 37.3002 112.7 24.7002 99.7001 30.8002Z" fill="#06377B"/>
<path d="M126.1 10.4C128.972 10.4 131.3 8.07188 131.3 5.2C131.3 2.32812 128.972 0 126.1 0C123.228 0 120.9 2.32812 120.9 5.2C120.9 8.07188 123.228 10.4 126.1 10.4Z" fill="#EF483E"/>
<path d="M102.1 24.7999C104.972 24.7999 107.3 22.4718 107.3 19.5999C107.3 16.728 104.972 14.3999 102.1 14.3999C99.2281 14.3999 96.9 16.728 96.9 19.5999C96.9 22.4718 99.2281 24.7999 102.1 24.7999Z" fill="#EF483E"/>
<path d="M163.7 65.7999C166.572 65.7999 168.9 63.4718 168.9 60.5999C168.9 57.728 166.572 55.3999 163.7 55.3999C160.828 55.3999 158.5 57.728 158.5 60.5999C158.5 63.4718 160.828 65.7999 163.7 65.7999Z" fill="#EF483E"/>
<path d="M139.7 80.1998C142.572 80.1998 144.9 77.8717 144.9 74.9998C144.9 72.1279 142.572 69.7998 139.7 69.7998C136.828 69.7998 134.5 72.1279 134.5 74.9998C134.5 77.8717 136.828 80.1998 139.7 80.1998Z" fill="#EF483E"/>
<path d="M153.8 14.5001C156.672 14.5001 159 12.172 159 9.30009C159 6.42821 156.672 4.1001 153.8 4.1001C150.928 4.1001 148.6 6.42821 148.6 9.30009C148.6 12.172 150.928 14.5001 153.8 14.5001Z" fill="#EF483E"/>
<path d="M98.5001 51.9C101.372 51.9 103.7 49.5719 103.7 46.7C103.7 43.8281 101.372 41.5 98.5001 41.5C95.6282 41.5 93.3 43.8281 93.3 46.7C93.3 49.5719 95.6282 51.9 98.5001 51.9Z" fill="#EF483E"/>
<path d="M167.3 38.4C170.172 38.4 172.5 36.0719 172.5 33.2C172.5 30.3281 170.172 28 167.3 28C164.428 28 162.1 30.3281 162.1 33.2C162.1 36.0719 164.428 38.4 167.3 38.4Z" fill="#EF483E"/>
<path d="M112.8 76.6998C115.672 76.6998 118 74.3717 118 71.4998C118 68.6279 115.672 66.2998 112.8 66.2998C109.928 66.2998 107.6 68.6279 107.6 71.4998C107.6 74.3717 109.928 76.6998 112.8 76.6998Z" fill="#EF483E"/>
<path d="M2.5 126.1V112.5H0V109.4H2.5V106.9C2.5 104.6 3 102.7 4.1 101.4C5.2 100.1 6.6 99.3999 8.5 99.3999C9.3 99.3999 10 99.4999 10.8 99.6999C11.5 99.8999 12.2 100.2 12.9 100.5L12 103.5C11.7 103.3 11.2 103.1 10.8 103C10.3 102.9 9.8 102.8 9.4 102.8C8.5 102.8 7.7 103.1 7.3 103.8C6.8 104.5 6.6 105.5 6.6 106.8V109.4H11.4V112.5H6.6V126.1H2.5Z" fill="#06377B"/>
<path d="M19.3 126.5C18.4 126.5 17.5 126.3 16.8 126C16.1 125.7 15.3 125.3 14.8 124.8C14.2 124.3 13.8 123.6 13.5 122.9C13.2 122.2 13 121.4 13 120.6C13 119.7 13.2 118.9 13.6 118.2C14 117.5 14.5 116.9 15.2 116.3C15.9 115.8 16.7 115.4 17.7 115.1C18.7 114.8 19.7 114.7 20.9 114.7C21.8 114.7 22.7 114.8 23.5 114.9C24.4 115.1 25.1 115.3 25.8 115.5V114.2C25.8 112.8 25.4 111.7 24.6 110.9C23.8 110.1 22.7 109.7 21.2 109.7C20.2 109.7 19.2 109.9 18.2 110.3C17.2 110.7 16.2 111.2 15.2 111.9L14 109.4C16.4 107.8 18.9 107 21.6 107C24.2 107 26.2 107.7 27.6 109C29 110.3 29.8 112.2 29.8 114.7V121.5C29.8 122 29.9 122.3 30.1 122.5C30.3 122.7 30.6 122.8 31 122.8V126.2C30.6 126.3 30.3 126.3 29.9 126.3C29.6 126.3 29.3 126.3 29 126.3C28.2 126.3 27.6 126 27.3 125.7C26.9 125.3 26.7 124.9 26.6 124.3L26.5 123.1C25.7 124.2 24.6 125.1 23.4 125.6C22.1 126.2 20.8 126.5 19.3 126.5ZM20.4 123.5C21.4 123.5 22.3 123.3 23.1 123C24 122.7 24.6 122.2 25.1 121.5C25.6 121.1 25.9 120.6 25.9 120.1V117.6C25.2 117.3 24.5 117.1 23.8 117C23.1 116.9 22.3 116.8 21.6 116.8C20.2 116.8 19 117.1 18.1 117.7C17.2 118.3 16.7 119.1 16.7 120.1C16.7 121 17 121.8 17.7 122.5C18.5 123.2 19.3 123.5 20.4 123.5Z" fill="#06377B"/>
<path d="M63.5 126.1H59.5V115.6C59.5 113.8 59.2 112.6 58.6 111.7C58 110.9 57.2 110.5 56.1 110.5C55 110.5 53.9 110.9 53 111.7C52.1 112.5 51.4 113.6 51 114.9V126.1H47V115.6C47 113.8 46.7 112.5 46.2 111.7C45.6 110.9 44.8 110.5 43.7 110.5C42.6 110.5 41.6 110.9 40.6 111.7C39.7 112.5 39 113.6 38.6 114.9V126.1H34.6V107.3H38.2V111.1C38.9 109.8 39.9 108.8 41.1 108.1C42.3 107.4 43.7 107 45.3 107C46.9 107 48.1 107.4 49 108.2C49.9 109 50.5 110 50.7 111.3C51.5 109.9 52.5 108.8 53.7 108.1C54.9 107.4 56.3 107 57.8 107C58.9 107 59.8 107.2 60.6 107.6C61.3 108 61.9 108.6 62.3 109.3C62.7 110 63 110.8 63.2 111.7C63.4 112.6 63.5 113.6 63.5 114.6V126.1Z" fill="#06377B"/>
<path d="M67.9 104.2V99.7998H71.9V104.2H67.9ZM67.9 126.1V107.3H71.9V126.1H67.9Z" fill="#06377B"/>
<path d="M76.6 99.7998H80.6V120.5C80.6 121.2 80.8 121.7 81.1 122.1C81.5 122.5 82 122.7 82.6 122.7C82.9 122.7 83.2 122.7 83.5 122.6C83.9 122.5 84.2 122.4 84.5 122.3L85.1 125.5C84.5 125.8 83.8 126 83 126.1C82.2 126.3 81.5 126.3 80.9 126.3C79.5 126.3 78.5 125.9 77.7 125.2C76.9 124.5 76.5 123.4 76.5 122V99.7998H76.6Z" fill="#06377B"/>
<path d="M87.1 130.6C87.4 130.7 87.7 130.7 88 130.7C88.3 130.7 88.6 130.7 88.8 130.7C89.1 130.7 89.4 130.7 89.6 130.6C89.8 130.5 90.1 130.3 90.3 130C90.5 129.7 90.8 129.2 91.1 128.6C91.4 128 91.7 127.1 92.1 126L84.4 107.2H88.5L94.3 122.5L99.5 107.2H103.2L94.6 130.4C94.1 131.7 93.4 132.7 92.4 133.3C91.4 133.9 90.3 134.2 89.1 134.2C88.4 134.2 87.7 134.1 87.1 133.9V130.6Z" fill="#06377B"/>
<path d="M116.8 126.5C115.3 126.5 114 126.1 112.8 125.4C111.7 124.7 110.7 123.7 110 122.6V133.8H106V107.3H109.5V110.7C110.2 109.6 111.2 108.7 112.3 108C113.4 107.3 114.7 107 116.2 107C117.5 107 118.6 107.3 119.7 107.8C120.8 108.3 121.7 109 122.5 109.9C123.3 110.8 123.9 111.8 124.4 113C124.8 114.2 125.1 115.4 125.1 116.7C125.1 118.1 124.9 119.3 124.5 120.5C124.1 121.7 123.5 122.7 122.8 123.6C122.1 124.5 121.2 125.2 120.2 125.7C119.2 126.2 118 126.5 116.8 126.5ZM115.5 123.1C116.3 123.1 117.1 122.9 117.8 122.6C118.5 122.2 119.1 121.8 119.6 121.2C120.1 120.6 120.5 119.9 120.7 119.1C121 118.3 121.1 117.5 121.1 116.7C121.1 115.8 121 115 120.7 114.3C120.4 113.5 120 112.9 119.5 112.3C119 111.7 118.3 111.3 117.6 110.9C116.9 110.6 116.1 110.4 115.3 110.4C114.8 110.4 114.3 110.5 113.7 110.7C113.1 110.9 112.6 111.2 112.1 111.5C111.6 111.8 111.2 112.2 110.8 112.7C110.4 113.2 110.2 113.6 110 114.2V119.1C110.2 119.7 110.6 120.2 110.9 120.7C111.3 121.2 111.7 121.6 112.2 122C112.7 122.4 113.2 122.6 113.7 122.9C114.4 123 114.9 123.1 115.5 123.1Z" fill="#EF483E"/>
<path d="M139.2 110.7C137.7 110.7 136.3 111.1 135.1 111.8C133.9 112.5 133.1 113.4 132.5 114.6V126.1H128.5V107.3H132.2V111.5C132.9 110.2 133.7 109.1 134.8 108.3C135.8 107.5 137 107.1 138.1 107.1C138.3 107.1 138.5 107.1 138.7 107.1C138.9 107.1 139 107.1 139.1 107.1V110.7H139.2Z" fill="#EF483E"/>
<path d="M150 126.5C148.5 126.5 147.2 126.2 146 125.7C144.8 125.2 143.8 124.5 143 123.6C142.2 122.7 141.5 121.7 141.1 120.5C140.6 119.3 140.4 118.1 140.4 116.8C140.4 115.5 140.6 114.3 141.1 113.1C141.6 111.9 142.2 110.9 143.1 110C144 109.1 145 108.4 146.2 107.9C147.4 107.4 148.7 107.1 150.2 107.1C151.7 107.1 153 107.4 154.2 107.9C155.4 108.4 156.4 109.1 157.3 110C158.2 110.9 158.8 111.9 159.3 113.1C159.8 114.3 160 115.5 160 116.8C160 118.1 159.8 119.3 159.3 120.5C158.8 121.7 158.2 122.7 157.3 123.6C156.4 124.5 155.4 125.2 154.2 125.7C152.7 126.2 151.4 126.5 150 126.5ZM144.3 116.7C144.3 117.6 144.4 118.5 144.7 119.2C145 120 145.4 120.6 145.9 121.2C146.4 121.8 147 122.2 147.7 122.5C148.4 122.8 149.1 123 149.9 123C150.7 123 151.4 122.8 152.1 122.5C152.8 122.2 153.4 121.7 153.9 121.1C154.4 120.5 154.8 119.9 155.1 119.1C155.4 118.3 155.5 117.5 155.5 116.6C155.5 115.7 155.4 114.9 155.1 114.1C154.8 113.3 154.4 112.6 153.9 112.1C153.4 111.5 152.8 111.1 152.1 110.7C151.4 110.3 150.7 110.2 149.9 110.2C149.1 110.2 148.4 110.4 147.7 110.7C147 111 146.4 111.5 145.9 112.1C145.4 112.7 145 113.4 144.7 114.1C144.5 115 144.3 115.9 144.3 116.7Z" fill="#EF483E"/>
<path d="M180 126.1H176V115.6C176 113.9 175.7 112.6 175.1 111.8C174.5 111 173.6 110.6 172.4 110.6C171.9 110.6 171.3 110.7 170.8 110.9C170.2 111.1 169.7 111.4 169.2 111.8C168.7 112.2 168.3 112.7 167.9 113.2C167.5 113.7 167.2 114.3 167 115V126.2H163V99.8999H167V111.1C167.7 109.8 168.7 108.8 170 108.1C171.2 107.4 172.6 107 174.1 107C175.3 107 176.2 107.2 177 107.6C177.8 108 178.4 108.6 178.8 109.3C179.3 110 179.6 110.8 179.8 111.7C180 112.6 180.1 113.6 180.1 114.6V126.1H180Z" fill="#EF483E"/>
<path d="M193 126.5C191.5 126.5 190.2 126.2 189 125.7C187.8 125.2 186.8 124.5 185.9 123.6C185 122.7 184.4 121.7 183.9 120.5C183.4 119.3 183.2 118.1 183.2 116.8C183.2 115.5 183.4 114.2 183.9 113C184.4 111.8 185 110.8 185.9 109.9C186.8 109 187.8 108.3 189 107.8C190.2 107.3 191.5 107 193 107C194.5 107 195.8 107.3 197 107.8C198.2 108.3 199.2 109 200 109.9C200.8 110.8 201.5 111.8 201.9 113C202.3 114.2 202.6 115.4 202.6 116.7C202.6 117 202.6 117.3 202.6 117.5C202.6 117.8 202.6 118 202.5 118.1H187.4C187.5 118.9 187.7 119.7 188 120.4C188.3 121.1 188.7 121.7 189.3 122.1C189.8 122.6 190.4 123 191.1 123.2C191.8 123.5 192.5 123.6 193.2 123.6C193.7 123.6 194.2 123.5 194.8 123.4C195.3 123.3 195.8 123.1 196.2 122.8C196.6 122.5 197 122.2 197.4 121.9C197.8 121.6 198 121.1 198.2 120.7L201.6 121.7C201 123.1 199.9 124.3 198.4 125.2C196.8 126 195 126.5 193 126.5ZM198.8 115.3C198.7 114.5 198.5 113.8 198.2 113.1C197.9 112.4 197.5 111.9 197 111.4C196.5 110.9 195.9 110.6 195.2 110.3C194.5 110 193.8 109.9 193.1 109.9C192.4 109.9 191.7 110 191 110.3C190.3 110.6 189.8 110.9 189.3 111.4C188.8 111.9 188.4 112.4 188.1 113.1C187.8 113.8 187.6 114.5 187.5 115.3H198.8Z" fill="#EF483E"/>
<path d="M210.9 126.5C210 126.5 209.1 126.3 208.4 126C207.6 125.7 206.9 125.3 206.4 124.8C205.8 124.3 205.4 123.6 205.1 122.9C204.8 122.2 204.6 121.4 204.6 120.6C204.6 119.7 204.8 118.9 205.2 118.2C205.6 117.5 206.1 116.9 206.8 116.3C207.5 115.8 208.3 115.4 209.3 115.1C210.3 114.8 211.3 114.7 212.5 114.7C213.4 114.7 214.3 114.8 215.1 114.9C215.9 115 216.7 115.3 217.4 115.5V114.2C217.4 112.8 217 111.7 216.2 110.9C215.4 110.1 214.3 109.7 212.8 109.7C211.8 109.7 210.8 109.9 209.8 110.3C208.8 110.7 207.8 111.2 206.8 111.9L205.6 109.4C208 107.8 210.5 107 213.2 107C215.8 107 217.8 107.7 219.2 109C220.6 110.3 221.4 112.2 221.4 114.7V121.5C221.4 122 221.5 122.3 221.7 122.5C221.9 122.7 222.2 122.8 222.6 122.8V126.2C222.2 126.3 221.9 126.3 221.5 126.3C221.2 126.3 220.9 126.3 220.6 126.3C219.8 126.3 219.3 126 218.9 125.7C218.5 125.3 218.3 124.9 218.2 124.3L218.1 123.1C217.3 124.2 216.2 125.1 215 125.6C213.7 126.2 212.4 126.5 210.9 126.5ZM212 123.5C213 123.5 213.9 123.3 214.7 123C215.6 122.7 216.2 122.2 216.7 121.5C217.2 121.1 217.5 120.6 217.5 120.1V117.6C216.8 117.3 216.1 117.1 215.4 117C214.7 116.9 213.9 116.8 213.2 116.8C211.8 116.8 210.6 117.1 209.7 117.7C208.8 118.3 208.4 119.1 208.4 120.1C208.4 121 208.7 121.8 209.4 122.5C210.1 123.2 210.9 123.5 212 123.5Z" fill="#EF483E"/>
<path d="M226.3 99.7998H230.3V120.5C230.3 121.2 230.5 121.7 230.8 122.1C231.2 122.5 231.7 122.7 232.3 122.7C232.6 122.7 232.9 122.7 233.2 122.6C233.6 122.5 233.9 122.4 234.2 122.3L234.8 125.5C234.2 125.8 233.5 126 232.7 126.1C231.9 126.3 231.2 126.3 230.6 126.3C229.2 126.3 228.2 125.9 227.4 125.2C226.6 124.5 226.2 123.4 226.2 122V99.7998H226.3Z" fill="#EF483E"/>
<path d="M247.2 125.1C246.7 125.3 246 125.6 245.1 125.9C244.2 126.2 243.3 126.4 242.2 126.4C241.6 126.4 241 126.3 240.5 126.1C240 125.9 239.5 125.7 239.1 125.3C238.7 125 238.3 124.5 238.1 124C237.9 123.5 237.7 122.8 237.7 122V110.2H235.2V107.1H237.7V100.9H241.7V107.1H245.8V110.2H241.7V120.7C241.7 121.4 241.9 121.9 242.3 122.2C242.7 122.5 243.2 122.7 243.7 122.7C244.3 122.7 244.8 122.6 245.3 122.4C245.8 122.2 246.2 122.1 246.4 121.9L247.2 125.1Z" fill="#EF483E"/>
<path d="M266.6 126.1H262.6V115.6C262.6 113.9 262.3 112.6 261.7 111.8C261.1 111 260.2 110.6 259 110.6C258.5 110.6 257.9 110.7 257.4 110.9C256.9 111.1 256.3 111.4 255.8 111.8C255.3 112.2 254.9 112.7 254.5 113.2C254.1 113.7 253.8 114.3 253.6 115V126.2H249.6V99.8999H253.6V111.1C254.3 109.8 255.3 108.8 256.6 108.1C257.8 107.4 259.2 107 260.6 107C261.8 107 262.7 107.2 263.5 107.6C264.3 108 264.9 108.6 265.3 109.3C265.7 110 266.1 110.8 266.3 111.7C266.5 112.6 266.6 113.6 266.6 114.6V126.1Z" fill="#EF483E"/>
<path d="M100.3 140.6V149.1H98.9001V145.3H94.6001V149.1H93.3V140.6H94.6001V144.2H98.9001V140.6H100.3Z" fill="#06377B"/>
<path d="M109.7 147.9V149.1H103.9V140.6H109.6V141.8H105.2V144.2H109V145.3H105.2V147.9H109.7Z" fill="#06377B"/>
<path d="M112 149.1L115.4 140.6H116.5L119.9 149.1H118.5L117.6 146.8H114.3L113.4 149.1H112ZM115.9 142.1L114.5 145.8H117.3L115.9 142.1Z" fill="#06377B"/>
<path d="M122.6 149.1V140.6H123.9V147.9H128.5V149.1H122.6Z" fill="#06377B"/>
<path d="M136.4 141.8H133.6V149.1H132.3V141.8H129.5V140.6H136.5V141.8H136.4Z" fill="#06377B"/>
<path d="M146.2 140.6V149.1H144.9V145.3H140.6V149.1H139.3V140.6H140.6V144.2H144.9V140.6H146.2Z" fill="#06377B"/>
<path d="M150.3 140.6L152.7 144.9L155.1 140.6H156.6L153.4 146.1V149.1H152V146L148.8 140.6H150.3Z" fill="#06377B"/>
<path d="M162.8 144.8C162.8 144.3 162.9 143.8 163.1 143.3C163.3 142.8 163.6 142.3 163.9 141.9C164.2 141.5 164.7 141.2 165.2 140.9C165.7 140.6 166.3 140.5 166.9 140.5C167.7 140.5 168.3 140.7 168.9 141C169.5 141.3 169.9 141.8 170.1 142.3L169 143C168.9 142.7 168.7 142.5 168.6 142.4C168.4 142.2 168.3 142.1 168.1 142C167.9 141.9 167.7 141.8 167.5 141.8C167.3 141.8 167.1 141.7 166.9 141.7C166.5 141.7 166.1 141.8 165.8 142C165.5 142.2 165.2 142.4 165 142.7C164.8 143 164.6 143.3 164.5 143.7C164.4 144.1 164.3 144.4 164.3 144.8C164.3 145.2 164.4 145.6 164.5 146C164.6 146.4 164.8 146.7 165.1 147C165.3 147.3 165.6 147.5 166 147.7C166.3 147.9 166.7 148 167.1 148C167.3 148 167.5 148 167.7 147.9C167.9 147.8 168.1 147.8 168.3 147.6C168.5 147.4 168.7 147.3 168.8 147.2C168.9 147.1 169.1 146.8 169.2 146.6L170.3 147.2C170.2 147.5 170 147.8 169.7 148C169.5 148.2 169.2 148.4 168.9 148.6C168.6 148.8 168.3 148.9 167.9 149C167.5 149.1 167.2 149.1 166.9 149.1C166.3 149.1 165.8 149 165.3 148.7C164.8 148.4 164.4 148.1 164 147.7C163.6 147.3 163.4 146.8 163.2 146.3C162.9 145.9 162.8 145.3 162.8 144.8Z" fill="#06377B"/>
<path d="M176.6 149.2C176 149.2 175.5 149.1 175 148.8C174.5 148.5 174.1 148.2 173.7 147.8C173.3 147.4 173.1 146.9 172.9 146.4C172.7 145.9 172.6 145.3 172.6 144.8C172.6 144.2 172.7 143.7 172.9 143.2C173.1 142.7 173.4 142.2 173.7 141.8C174.1 141.4 174.5 141.1 175 140.8C175.5 140.6 176 140.4 176.6 140.4C177.2 140.4 177.7 140.5 178.2 140.8C178.7 141.1 179.1 141.4 179.5 141.8C179.9 142.2 180.1 142.7 180.3 143.2C180.5 143.7 180.6 144.2 180.6 144.8C180.6 145.4 180.5 145.9 180.3 146.4C180.1 146.9 179.8 147.4 179.5 147.8C179.1 148.2 178.7 148.5 178.2 148.7C177.7 148.9 177.1 149.2 176.6 149.2ZM173.9 144.8C173.9 145.2 174 145.6 174.1 146C174.2 146.4 174.4 146.7 174.6 147C174.8 147.3 175.1 147.5 175.4 147.7C175.7 147.9 176.1 148 176.5 148C176.9 148 177.3 147.9 177.6 147.7C177.9 147.5 178.2 147.3 178.4 147C178.6 146.7 178.8 146.4 178.9 146C179 145.6 179.1 145.3 179.1 144.9C179.1 144.5 179 144.1 178.9 143.7C178.8 143.3 178.6 143 178.4 142.7C178.2 142.4 177.9 142.2 177.6 142C177.3 141.8 176.9 141.7 176.5 141.7C176.1 141.7 175.7 141.8 175.4 142C175.1 142.2 174.8 142.4 174.6 142.7C174.4 143 174.2 143.3 174.1 143.7C174 144.1 173.9 144.5 173.9 144.8Z" fill="#06377B"/>
<path d="M185 143.1V149.1H183.7V140.6H184.8L189.7 146.7V140.6H191.1V149.1H189.9L185 143.1Z" fill="#06377B"/>
<path d="M195.9 143.1V149.1H194.6V140.6H195.7L200.6 146.7V140.6H202V149.1H200.9L195.9 143.1Z" fill="#06377B"/>
<path d="M211.3 147.9V149.1H205.5V140.6H211.2V141.8H206.8V144.2H210.6V145.3H206.8V147.9H211.3Z" fill="#06377B"/>
<path d="M213.9 144.8C213.9 144.3 214 143.8 214.2 143.3C214.4 142.8 214.7 142.3 215 141.9C215.3 141.5 215.8 141.2 216.3 140.9C216.8 140.6 217.4 140.5 218 140.5C218.8 140.5 219.4 140.7 220 141C220.6 141.3 221 141.8 221.2 142.3L220.1 143C220 142.7 219.8 142.5 219.7 142.4C219.5 142.2 219.4 142.1 219.2 142C219 141.9 218.8 141.8 218.6 141.8C218.4 141.8 218.2 141.7 218 141.7C217.6 141.7 217.2 141.8 216.9 142C216.6 142.2 216.3 142.4 216.1 142.7C215.9 143 215.7 143.3 215.6 143.7C215.5 144.1 215.4 144.4 215.4 144.8C215.4 145.2 215.5 145.6 215.6 146C215.7 146.4 215.9 146.7 216.2 147C216.4 147.3 216.7 147.5 217.1 147.7C217.4 147.9 217.8 148 218.2 148C218.4 148 218.6 148 218.8 147.9C219 147.8 219.2 147.8 219.4 147.6C219.6 147.4 219.8 147.3 219.9 147.2C220 147.1 220.2 146.8 220.3 146.6L221.4 147.2C221.3 147.5 221.1 147.8 220.8 148C220.6 148.2 220.3 148.4 220 148.6C219.7 148.8 219.4 148.9 219 149C218.6 149.1 218.3 149.1 218 149.1C217.4 149.1 216.9 149 216.4 148.7C215.9 148.4 215.5 148.1 215.1 147.7C214.7 147.3 214.5 146.8 214.3 146.3C214 145.9 213.9 145.3 213.9 144.8Z" fill="#06377B"/>
<path d="M230.4 141.8H227.6V149.1H226.3V141.8H223.5V140.6H230.5V141.8H230.4Z" fill="#06377B"/>
<path d="M233.3 149.1V140.6H234.6V149.1H233.3Z" fill="#06377B"/>
<path d="M241.7 149.2C241.1 149.2 240.6 149.1 240.1 148.8C239.6 148.5 239.2 148.2 238.8 147.8C238.4 147.4 238.2 146.9 238 146.4C237.8 145.9 237.7 145.3 237.7 144.8C237.7 144.2 237.8 143.7 238 143.2C238.2 142.7 238.5 142.2 238.8 141.8C239.2 141.4 239.6 141.1 240.1 140.8C240.6 140.6 241.1 140.4 241.7 140.4C242.3 140.4 242.8 140.5 243.3 140.8C243.8 141.1 244.2 141.4 244.6 141.8C245 142.2 245.2 142.7 245.4 143.2C245.6 143.7 245.7 144.2 245.7 144.8C245.7 145.4 245.6 145.9 245.4 146.4C245.2 146.9 244.9 147.4 244.6 147.8C244.2 148.2 243.8 148.5 243.3 148.7C242.8 148.9 242.3 149.2 241.7 149.2ZM239.1 144.8C239.1 145.2 239.2 145.6 239.3 146C239.4 146.4 239.6 146.7 239.8 147C240 147.3 240.3 147.5 240.6 147.7C240.9 147.9 241.3 148 241.7 148C242.1 148 242.5 147.9 242.8 147.7C243.1 147.5 243.4 147.3 243.6 147C243.8 146.7 244 146.4 244.1 146C244.2 145.6 244.3 145.3 244.3 144.9C244.3 144.5 244.2 144.1 244.1 143.7C244 143.3 243.8 143 243.6 142.7C243.4 142.4 243.1 142.2 242.8 142C242.5 141.8 242.1 141.7 241.7 141.7C241.3 141.7 240.9 141.8 240.6 142C240.3 142.2 240 142.4 239.8 142.7C239.6 143 239.4 143.3 239.3 143.7C239.1 144.1 239.1 144.5 239.1 144.8Z" fill="#06377B"/>
<path d="M250.2 143.1V149.1H248.9V140.6H250L254.9 146.7V140.6H256.3V149.1H255.2L250.2 143.1Z" fill="#06377B"/>
<path d="M264.8 142.6C264.7 142.5 264.6 142.4 264.5 142.3C264.4 142.2 264.2 142.1 264 142C263.8 141.9 263.6 141.8 263.3 141.8C263 141.8 262.8 141.7 262.5 141.7C262 141.7 261.6 141.8 261.3 142C261 142.2 260.9 142.5 260.9 142.9C260.9 143.1 260.9 143.3 261 143.4C261.1 143.5 261.2 143.6 261.4 143.7C261.6 143.8 261.8 143.9 262.1 144C262.4 144.1 262.7 144.2 263 144.2C263.4 144.3 263.8 144.4 264.1 144.5C264.4 144.6 264.7 144.8 265 145C265.3 145.2 265.4 145.4 265.6 145.7C265.7 146 265.8 146.3 265.8 146.7C265.8 147.1 265.7 147.5 265.5 147.8C265.3 148.1 265.1 148.4 264.8 148.6C264.5 148.8 264.2 148.9 263.8 149C263.4 149.1 263 149.1 262.6 149.1C262 149.1 261.3 149 260.7 148.8C260.1 148.6 259.5 148.3 259.1 147.9L259.7 146.7C259.8 146.8 260 146.9 260.1 147C260.3 147.1 260.5 147.2 260.8 147.4C261.1 147.5 261.3 147.6 261.7 147.7C262 147.8 262.3 147.8 262.7 147.8C263.2 147.8 263.6 147.7 263.9 147.5C264.2 147.3 264.3 147 264.3 146.7C264.3 146.5 264.2 146.3 264.1 146.2C264 146.1 263.8 145.9 263.6 145.8C263.4 145.7 263.2 145.6 262.9 145.5C262.6 145.4 262.3 145.3 261.9 145.2C261.5 145.1 261.1 145 260.8 144.8C260.5 144.7 260.2 144.5 260 144.3C259.8 144.1 259.6 143.9 259.5 143.7C259.4 143.5 259.3 143.2 259.3 142.8C259.3 142.4 259.4 142 259.5 141.7C259.7 141.4 259.9 141.1 260.1 140.9C260.4 140.7 260.7 140.5 261.1 140.4C261.5 140.3 261.9 140.2 262.3 140.2C262.9 140.2 263.4 140.3 263.9 140.5C264.4 140.7 264.8 140.9 265.2 141.2L264.8 142.6Z" fill="#06377B"/>
</svg>
