<svg width="240" height="51" viewBox="0 0 240 51" fill="none" xmlns="http://www.w3.org/2000/svg">
<path d="M31.1087 4.43457C31.1087 4.43457 21.4335 6.65182 25.1961 15.7896C25.1961 15.7896 27.1446 20.9631 33.5275 21.2319C33.5275 21.2319 42.3965 21.5006 41.859 11.4894C41.859 11.4894 32.5869 10.5488 32.7884 19.5521C32.7884 19.5521 28.5555 18.9475 26.943 15.7896C27.0774 15.8567 35.0057 12.6317 31.1087 4.43457Z" fill="#233C78"/>
<path d="M45.2183 30.9743C45.2183 30.9743 42.7995 21.3662 33.7961 25.2632C33.7961 25.2632 28.6225 27.346 28.4882 33.729C28.4882 33.729 28.421 42.598 38.365 41.9261C38.365 41.9261 39.1713 32.5868 30.1679 32.99C30.1679 32.99 30.7054 28.757 33.7961 27.0773C33.7289 27.1445 37.1556 35.0056 45.2183 30.9743Z" fill="#233C78"/>
<path d="M19.2834 45.5548C19.2834 45.5548 28.7571 42.5984 24.3226 33.7966C24.3226 33.7966 21.9709 28.7574 15.588 28.959C15.588 28.959 6.71899 29.3622 7.92839 39.239C7.92839 39.239 17.2677 39.5077 16.3942 30.5044C16.3942 30.5044 20.6272 30.8403 22.4413 33.7966C22.5085 33.8638 14.8489 37.6936 19.2834 45.5548Z" fill="#233C78"/>
<path d="M3.96411 19.4171C3.96411 19.4171 6.18135 29.0923 15.3191 25.3297C15.3191 25.3297 20.4927 23.3812 20.7614 16.9983C20.7614 16.9983 21.0302 8.12928 11.019 8.59961C11.019 8.59961 10.0783 17.8717 19.0817 17.6702C19.0817 17.6702 18.4098 21.9031 15.3191 23.5156C15.3863 23.5156 12.1612 15.5201 3.96411 19.4171Z" fill="#233C78"/>
<path d="M20.6272 6.58454C22.4455 6.58454 23.9195 5.11054 23.9195 3.29227C23.9195 1.474 22.4455 0 20.6272 0C18.809 0 17.335 1.474 17.335 3.29227C17.335 5.11054 18.809 6.58454 20.6272 6.58454Z" fill="#EF483E"/>
<path d="M5.50956 15.6553C7.32783 15.6553 8.80183 14.1813 8.80183 12.3631C8.80183 10.5448 7.32783 9.0708 5.50956 9.0708C3.69129 9.0708 2.21729 10.5448 2.21729 12.3631C2.21729 14.1813 3.69129 15.6553 5.50956 15.6553Z" fill="#EF483E"/>
<path d="M44.1433 41.3888C45.9616 41.3888 47.4356 39.9147 47.4356 38.0965C47.4356 36.2782 45.9616 34.8042 44.1433 34.8042C42.3251 34.8042 40.8511 36.2782 40.8511 38.0965C40.8511 39.9147 42.3251 41.3888 44.1433 41.3888Z" fill="#EF483E"/>
<path d="M29.0931 50.4591C30.9113 50.4591 32.3853 48.9851 32.3853 47.1668C32.3853 45.3485 30.9113 43.8745 29.0931 43.8745C27.2748 43.8745 25.8008 45.3485 25.8008 47.1668C25.8008 48.9851 27.2748 50.4591 29.0931 50.4591Z" fill="#EF483E"/>
<path d="M37.962 9.20467C39.7802 9.20467 41.2542 7.73066 41.2542 5.91239C41.2542 4.09411 39.7802 2.62012 37.962 2.62012C36.1437 2.62012 34.6697 4.09411 34.6697 5.91239C34.6697 7.73066 36.1437 9.20467 37.962 9.20467Z" fill="#EF483E"/>
<path d="M3.29227 32.6534C5.11055 32.6534 6.58454 31.1794 6.58454 29.3611C6.58454 27.5429 5.11055 26.0688 3.29227 26.0688C1.474 26.0688 0 27.5429 0 29.3611C0 31.1794 1.474 32.6534 3.29227 32.6534Z" fill="#EF483E"/>
<path d="M46.4278 24.189C48.246 24.189 49.72 22.715 49.72 20.8968C49.72 19.0785 48.246 17.6045 46.4278 17.6045C44.6095 17.6045 43.1355 19.0785 43.1355 20.8968C43.1355 22.715 44.6095 24.189 46.4278 24.189Z" fill="#EF483E"/>
<path d="M12.2286 48.2418C14.0468 48.2418 15.5208 46.7678 15.5208 44.9495C15.5208 43.1312 14.0468 41.6572 12.2286 41.6572C10.4103 41.6572 8.93628 43.1312 8.93628 44.9495C8.93628 46.7678 10.4103 48.2418 12.2286 48.2418Z" fill="#EF483E"/>
<path d="M61.7469 26.0699V16.9322H60.0671V14.8493H61.7469V13.1696C61.7469 11.6242 62.0828 10.3476 62.8219 9.47416C63.561 8.6007 64.5016 8.13037 65.7782 8.13037C66.3157 8.13037 66.7861 8.19756 67.3236 8.33194C67.7939 8.46632 68.2642 8.66789 68.7345 8.86946L68.1298 10.8851C67.9283 10.7508 67.5923 10.6164 67.3236 10.5492C66.9876 10.482 66.6517 10.4148 66.3829 10.4148C65.7782 10.4148 65.2407 10.6164 64.972 11.0867C64.636 11.557 64.5016 12.2289 64.5016 13.1024V14.8493H67.7267V16.9322H64.5016V26.0699H61.7469Z" fill="#233C78"/>
<path d="M73.1018 26.3387C72.4971 26.3387 71.8924 26.2043 71.4221 26.0028C70.9518 25.8012 70.4143 25.5325 70.0783 25.1965C69.6752 24.8606 69.4064 24.3902 69.2048 23.9199C69.0033 23.4496 68.8689 22.9121 68.8689 22.3745C68.8689 21.7698 69.0033 21.2323 69.272 20.762C69.5408 20.2917 69.8767 19.8886 70.3471 19.4854C70.8174 19.1495 71.3549 18.8807 72.0268 18.6791C72.6987 18.4776 73.3706 18.4104 74.1769 18.4104C74.7816 18.4104 75.3863 18.4776 75.9238 18.5448C76.5285 18.6791 76.9988 18.8135 77.4691 18.9479V18.0744C77.4691 17.1338 77.2004 16.3947 76.6629 15.8572C76.1253 15.3197 75.3863 15.0509 74.3784 15.0509C73.7065 15.0509 73.0346 15.1853 72.3627 15.4541C71.6909 15.7228 71.019 16.0588 70.3471 16.5291L69.5408 14.8494C71.1533 13.7743 72.8331 13.2368 74.6472 13.2368C76.3941 13.2368 77.7379 13.7071 78.6785 14.5806C79.6192 15.4541 80.1567 16.7307 80.1567 18.4104V22.9793C80.1567 23.3152 80.2239 23.5168 80.3583 23.6512C80.4926 23.7855 80.6942 23.8527 80.963 23.8527V26.1372C80.6942 26.2043 80.4926 26.2043 80.2239 26.2043C80.0223 26.2043 79.8207 26.2043 79.6192 26.2043C79.0817 26.2043 78.6785 26.0028 78.477 25.8012C78.2082 25.5324 78.0738 25.2637 78.0066 24.8606L77.9394 24.0543C77.4019 24.7934 76.6629 25.3981 75.8566 25.734C74.9159 26.1371 74.0425 26.3387 73.1018 26.3387ZM73.7737 24.323C74.4456 24.323 75.0503 24.1887 75.5878 23.9871C76.1925 23.7855 76.5957 23.4496 76.9316 22.9793C77.2676 22.7105 77.4691 22.3745 77.4691 22.0386V20.3589C76.9988 20.1573 76.5285 20.0229 76.0582 19.9557C75.5878 19.8886 75.0503 19.8214 74.58 19.8214C73.6393 19.8214 72.8331 20.0229 72.2284 20.4261C71.6237 20.8292 71.2877 21.3667 71.2877 22.0386C71.2877 22.6433 71.4893 23.1808 71.9596 23.6512C72.4971 24.1215 73.1018 24.323 73.7737 24.323Z" fill="#233C78"/>
<path d="M102.732 26.07H100.045V19.0151C100.045 17.8057 99.843 16.9994 99.4399 16.3947C99.0367 15.8572 98.4992 15.5884 97.7601 15.5884C97.0211 15.5884 96.282 15.8572 95.6773 16.3947C95.0726 16.9322 94.6023 17.6713 94.3335 18.5448V26.07H91.6459V19.0151C91.6459 17.8057 91.4444 16.9322 91.1084 16.3947C90.7053 15.8572 90.1678 15.5884 89.4287 15.5884C88.6896 15.5884 88.0177 15.8572 87.3458 16.3947C86.7411 16.9322 86.2708 17.6713 86.002 18.5448V26.07H83.3145V13.4384H85.7333V15.9916C86.2036 15.1181 86.8755 14.4462 87.6818 13.9759C88.488 13.5056 89.4287 13.2368 90.5037 13.2368C91.5787 13.2368 92.385 13.5056 92.9897 14.0431C93.5944 14.5806 93.9975 15.2525 94.1319 16.126C94.6694 15.1853 95.3413 14.4462 96.1476 13.9759C96.9539 13.5056 97.8945 13.2368 98.9024 13.2368C99.6414 13.2368 100.246 13.3712 100.784 13.6399C101.254 13.9087 101.657 14.3118 101.926 14.7822C102.195 15.2525 102.396 15.79 102.531 16.3947C102.665 16.9994 102.732 17.6713 102.732 18.3432V26.07Z" fill="#233C78"/>
<path d="M105.756 11.3557V8.39941H108.443V11.3557H105.756ZM105.756 26.0702V13.4386H108.443V26.0702H105.756Z" fill="#233C78"/>
<path d="M111.534 8.39941H114.222V22.3076C114.222 22.7779 114.356 23.1138 114.557 23.3826C114.826 23.6514 115.162 23.7857 115.565 23.7857C115.767 23.7857 115.968 23.7857 116.17 23.7186C116.439 23.6514 116.64 23.5842 116.842 23.517L117.245 25.667C116.842 25.8686 116.372 26.003 115.834 26.0702C115.297 26.2046 114.826 26.2046 114.423 26.2046C113.482 26.2046 112.811 25.9358 112.273 25.4655C111.736 24.9952 111.467 24.2561 111.467 23.3154V8.39941H111.534Z" fill="#233C78"/>
<path d="M118.589 29.0939C118.791 29.1611 118.992 29.1611 119.194 29.1611C119.395 29.1611 119.597 29.1611 119.731 29.1611C119.933 29.1611 120.134 29.1611 120.269 29.0939C120.403 29.0267 120.605 28.8923 120.739 28.6907C120.873 28.4892 121.075 28.1532 121.277 27.7501C121.478 27.3469 121.68 26.7422 121.948 26.0032L116.775 13.3716H119.53L123.427 23.6515L126.92 13.3716H129.406L123.628 28.9595C123.292 29.8329 122.822 30.5048 122.15 30.908C121.478 31.3111 120.739 31.5127 119.933 31.5127C119.462 31.5127 118.992 31.4455 118.589 31.3111V29.0939Z" fill="#233C78"/>
<path d="M138.544 26.3387C137.536 26.3387 136.663 26.07 135.857 25.5996C135.118 25.1293 134.446 24.4574 133.975 23.7183V31.2435H131.288V13.4384H133.639V15.7228C134.11 14.9837 134.782 14.379 135.521 13.9087C136.327 13.4384 137.133 13.2368 138.141 13.2368C139.015 13.2368 139.754 13.4384 140.493 13.7743C141.232 14.1103 141.837 14.5806 142.374 15.1853C142.912 15.79 143.315 16.4619 143.651 17.2682C143.919 18.0744 144.121 18.8807 144.121 19.7542C144.121 20.6948 143.987 21.5011 143.718 22.3074C143.449 23.1136 143.046 23.7855 142.576 24.3902C142.105 24.9949 141.501 25.4653 140.829 25.8012C140.09 26.1371 139.351 26.3387 138.544 26.3387ZM137.671 24.0543C138.208 24.0543 138.746 23.9199 139.216 23.7183C139.687 23.4496 140.09 23.1808 140.426 22.7777C140.762 22.3746 141.03 21.9042 141.165 21.3667C141.366 20.8292 141.433 20.2917 141.433 19.7542C141.433 19.1495 141.299 18.612 141.097 18.1416C140.896 17.6041 140.627 17.201 140.291 16.7978C139.955 16.3947 139.485 16.1259 139.015 15.8572C138.544 15.6556 138.007 15.5212 137.469 15.5212C137.133 15.5212 136.797 15.5884 136.394 15.7228C135.991 15.8572 135.655 16.0588 135.319 16.2603C134.983 16.4619 134.715 16.7307 134.446 17.0666C134.177 17.3354 134.043 17.6713 133.908 18.0744V21.3667C134.043 21.7698 134.311 22.1058 134.513 22.4417C134.715 22.7777 135.05 23.0464 135.386 23.3152C135.722 23.584 136.058 23.7183 136.394 23.9199C136.932 23.9871 137.268 24.0543 137.671 24.0543Z" fill="#EF483E"/>
<path d="M153.595 15.7225C152.587 15.7225 151.646 15.9913 150.84 16.4616C150.033 16.9319 149.496 17.5366 149.093 18.3429V26.0697H146.405V13.4381H148.891V16.26C149.362 15.3866 149.899 14.6475 150.638 14.11C151.31 13.5725 152.116 13.3037 152.855 13.3037C152.99 13.3037 153.124 13.3037 153.259 13.3037C153.393 13.3037 153.46 13.3037 153.527 13.3037V15.7225H153.595Z" fill="#EF483E"/>
<path d="M160.851 26.3384C159.843 26.3384 158.97 26.1369 158.164 25.8009C157.357 25.465 156.685 24.9946 156.148 24.3899C155.61 23.7852 155.14 23.1133 154.871 22.3071C154.535 21.5008 154.401 20.6945 154.401 19.8211C154.401 18.9476 154.535 18.1413 154.871 17.3351C155.207 16.5288 155.61 15.8569 156.215 15.2522C156.82 14.6475 157.492 14.1772 158.298 13.8412C159.104 13.5053 159.978 13.3037 160.986 13.3037C161.993 13.3037 162.867 13.5053 163.673 13.8412C164.479 14.1772 165.151 14.6475 165.756 15.2522C166.361 15.8569 166.764 16.5288 167.1 17.3351C167.436 18.1413 167.57 18.9476 167.57 19.8211C167.57 20.6945 167.436 21.5008 167.1 22.3071C166.764 23.1133 166.361 23.7852 165.756 24.3899C165.151 24.9946 164.479 25.465 163.673 25.8009C162.665 26.1369 161.792 26.3384 160.851 26.3384ZM157.021 19.7539C157.021 20.3586 157.089 20.9633 157.29 21.4336C157.492 21.9711 157.76 22.3743 158.096 22.7774C158.432 23.1805 158.835 23.4493 159.306 23.6509C159.776 23.8524 160.246 23.9868 160.784 23.9868C161.321 23.9868 161.792 23.8524 162.262 23.6509C162.732 23.4493 163.136 23.1133 163.472 22.7102C163.807 22.3071 164.076 21.9039 164.278 21.3664C164.479 20.8289 164.547 20.2914 164.547 19.6867C164.547 19.082 164.479 18.5445 164.278 18.007C164.076 17.4694 163.807 16.9991 163.472 16.6632C163.136 16.26 162.732 15.9913 162.262 15.7225C161.792 15.521 161.321 15.3866 160.784 15.3866C160.246 15.3866 159.776 15.521 159.306 15.7225C158.835 15.9241 158.432 16.26 158.096 16.6632C157.76 17.0663 157.492 17.5366 157.29 18.007C157.156 18.6117 157.021 19.1492 157.021 19.7539Z" fill="#EF483E"/>
<path d="M181.008 26.0699H178.32V19.015C178.32 17.8728 178.118 16.9993 177.715 16.4618C177.312 15.9243 176.708 15.6556 175.901 15.6556C175.565 15.6556 175.162 15.7227 174.826 15.8571C174.49 15.9915 174.087 16.1931 173.751 16.4618C173.415 16.7306 173.146 17.0665 172.878 17.4025C172.609 17.7384 172.407 18.1416 172.273 18.6119V26.1371H169.585V8.46631H172.273V15.9915C172.743 15.118 173.415 14.4461 174.289 13.9758C175.095 13.5055 176.036 13.2367 176.976 13.2367C177.783 13.2367 178.387 13.3711 178.925 13.6399C179.462 13.9086 179.865 14.3118 180.134 14.7821C180.403 15.2524 180.672 15.7899 180.806 16.3946C180.94 16.9993 181.008 17.6712 181.008 18.3431V26.0699Z" fill="#EF483E"/>
<path d="M189.81 26.3387C188.802 26.3387 187.928 26.1372 187.122 25.8012C186.316 25.4653 185.644 24.9949 185.039 24.3902C184.434 23.7855 184.031 23.1136 183.695 22.3074C183.359 21.5011 183.225 20.6948 183.225 19.8214C183.225 18.9479 183.359 18.0744 183.695 17.2682C184.031 16.4619 184.434 15.79 185.039 15.1853C185.644 14.5806 186.316 14.1103 187.122 13.7743C187.928 13.4384 188.802 13.2368 189.81 13.2368C190.817 13.2368 191.691 13.4384 192.497 13.7743C193.303 14.1103 193.975 14.5806 194.513 15.1853C195.05 15.79 195.521 16.4619 195.789 17.2682C196.058 18.0744 196.26 18.8807 196.26 19.7542C196.26 19.9557 196.26 20.1573 196.26 20.2917C196.26 20.4933 196.26 20.6276 196.193 20.6948H186.047C186.114 21.2323 186.249 21.7698 186.45 22.2402C186.652 22.7105 186.921 23.1136 187.324 23.3824C187.66 23.7183 188.063 23.9871 188.533 24.1215C189.003 24.323 189.407 24.3902 189.944 24.3902C190.28 24.3902 190.616 24.323 191.019 24.2558C191.355 24.1887 191.691 24.0543 191.96 23.8527C192.228 23.6512 192.497 23.4496 192.766 23.248C192.968 22.9793 193.169 22.7105 193.303 22.4417L195.588 23.1136C195.185 24.0543 194.446 24.8606 193.438 25.4653C192.296 26.0028 191.086 26.3387 189.81 26.3387ZM193.639 18.8135C193.572 18.276 193.438 17.8057 193.236 17.3354C193.035 16.865 192.766 16.5291 192.43 16.1931C192.094 15.8572 191.691 15.6556 191.221 15.4541C190.75 15.2525 190.28 15.1853 189.81 15.1853C189.339 15.1853 188.869 15.2525 188.399 15.4541C187.928 15.6556 187.592 15.8572 187.256 16.1931C186.921 16.5291 186.652 16.865 186.45 17.3354C186.249 17.8057 186.114 18.276 186.047 18.8135H193.639Z" fill="#EF483E"/>
<path d="M201.769 26.3387C201.164 26.3387 200.56 26.2043 200.089 26.0028C199.552 25.8012 199.081 25.5325 198.746 25.1965C198.342 24.8606 198.074 24.3902 197.872 23.9199C197.671 23.4496 197.536 22.9121 197.536 22.3745C197.536 21.7698 197.671 21.2323 197.939 20.762C198.208 20.2917 198.544 19.8886 199.014 19.4854C199.485 19.1495 200.022 18.8807 200.694 18.6791C201.366 18.4776 202.038 18.4104 202.844 18.4104C203.449 18.4104 204.053 18.4776 204.591 18.5448C205.196 18.6791 205.666 18.8135 206.136 18.9479V18.0744C206.136 17.1338 205.868 16.3947 205.33 15.8572C204.793 15.3197 204.053 15.0509 203.046 15.0509C202.374 15.0509 201.702 15.1853 201.03 15.4541C200.358 15.7228 199.686 16.0588 199.014 16.5291L198.208 14.8494C199.821 13.7743 201.5 13.2368 203.314 13.2368C205.061 13.2368 206.405 13.7071 207.346 14.5806C208.286 15.4541 208.824 16.7307 208.824 18.4104V22.9793C208.824 23.3152 208.891 23.5168 209.025 23.6512C209.16 23.7855 209.361 23.8527 209.63 23.8527V26.1372C209.361 26.2043 209.16 26.2043 208.891 26.2043C208.69 26.2043 208.488 26.2043 208.286 26.2043C207.749 26.2043 207.346 26.0028 207.144 25.8012C206.875 25.5324 206.741 25.2637 206.674 24.8606L206.607 24.0543C206.069 24.7934 205.33 25.3981 204.524 25.734C203.65 26.1371 202.777 26.3387 201.769 26.3387ZM202.508 24.323C203.18 24.323 203.785 24.1887 204.322 23.9871C204.927 23.7855 205.33 23.4496 205.666 22.9793C206.002 22.7105 206.204 22.3745 206.204 22.0386V20.3589C205.733 20.1573 205.263 20.0229 204.793 19.9557C204.322 19.8886 203.785 19.8214 203.314 19.8214C202.374 19.8214 201.567 20.0229 200.963 20.4261C200.358 20.8292 200.022 21.3667 200.022 22.0386C200.022 22.6433 200.224 23.1808 200.694 23.6512C201.164 24.1215 201.769 24.323 202.508 24.323Z" fill="#EF483E"/>
<path d="M212.117 8.39941H214.804V22.3076C214.804 22.7779 214.938 23.1138 215.14 23.3826C215.409 23.6514 215.745 23.7857 216.148 23.7857C216.349 23.7857 216.551 23.7857 216.753 23.7186C217.021 23.6514 217.223 23.5842 217.424 23.517L217.828 25.667C217.424 25.8686 216.954 26.003 216.417 26.0702C215.879 26.2046 215.409 26.2046 215.006 26.2046C214.065 26.2046 213.393 25.9358 212.856 25.4655C212.318 24.9952 212.049 24.2561 212.049 23.3154V8.39941H212.117Z" fill="#EF483E"/>
<path d="M226.159 25.398C225.823 25.5324 225.352 25.7339 224.748 25.9355C224.143 26.1371 223.538 26.2714 222.799 26.2714C222.396 26.2714 221.993 26.2042 221.657 26.0699C221.321 25.9355 220.985 25.8011 220.716 25.5324C220.448 25.2636 220.179 24.9948 220.044 24.6589C219.91 24.323 219.776 23.8526 219.776 23.3151V15.3868H218.096V13.3039H219.776V9.13818H222.463V13.3039H225.218V15.3868H222.463V22.4417C222.463 22.912 222.598 23.2479 222.866 23.4495C223.135 23.6511 223.471 23.7854 223.807 23.7854C224.143 23.7854 224.546 23.7182 224.882 23.5839C225.218 23.4495 225.487 23.3823 225.621 23.2479L226.159 25.398Z" fill="#EF483E"/>
<path d="M239.193 26.0699H236.506V19.015C236.506 17.8728 236.304 16.9993 235.901 16.4618C235.498 15.9243 234.893 15.6556 234.087 15.6556C233.751 15.6556 233.348 15.7227 233.012 15.8571C232.609 15.9915 232.273 16.1931 231.937 16.4618C231.601 16.7306 231.332 17.0665 231.064 17.4025C230.795 17.7384 230.593 18.1416 230.459 18.6119V26.1371H227.771V8.46631H230.459V15.9915C230.929 15.118 231.601 14.4461 232.474 13.9758C233.281 13.5055 234.221 13.2367 235.229 13.2367C236.036 13.2367 236.64 13.3711 237.178 13.6399C237.715 13.9086 238.118 14.3118 238.387 14.7821C238.723 15.2524 238.925 15.7899 239.059 16.3946C239.193 16.9993 239.261 17.6712 239.261 18.3431V26.0699H239.193Z" fill="#EF483E"/>
<path d="M128.802 37.8276V43.5387H127.861V40.9855H124.972V43.5387H124.099V37.8276H124.972V40.2465H127.861V37.8276H128.802Z" fill="#233C78"/>
<path d="M135.118 42.7325V43.5387H131.221V37.8276H135.05V38.6339H132.094V40.2465H134.647V40.9855H132.094V42.7325H135.118Z" fill="#233C78"/>
<path d="M136.663 43.5387L138.948 37.8276H139.687L141.971 43.5387H141.03L140.426 41.9934H138.208L137.604 43.5387H136.663ZM139.283 38.8355L138.343 41.3215H140.224L139.283 38.8355Z" fill="#233C78"/>
<path d="M143.785 43.5387V37.8276H144.658V42.7325H147.749V43.5387H143.785Z" fill="#233C78"/>
<path d="M153.057 38.6339H151.176V43.5387H150.235V38.6339H148.354V37.8276H153.057V38.6339Z" fill="#233C78"/>
<path d="M159.642 37.8276V43.5387H158.701V40.9855H155.812V43.5387H154.938V37.8276H155.812V40.2465H158.701V37.8276H159.642Z" fill="#233C78"/>
<path d="M162.397 37.8276L164.009 40.7168L165.622 37.8276H166.629L164.479 41.523V43.5387H163.539V41.4559L161.389 37.8276H162.397Z" fill="#233C78"/>
<path d="M170.795 40.6499C170.795 40.3139 170.862 39.978 170.996 39.6421C171.131 39.3061 171.332 38.9702 171.534 38.7014C171.736 38.4327 172.072 38.2311 172.407 38.0295C172.743 37.8951 173.147 37.7607 173.55 37.7607C174.087 37.7607 174.49 37.8951 174.893 38.0967C175.297 38.2983 175.565 38.6342 175.7 38.9702L174.961 39.4405C174.893 39.2389 174.759 39.1045 174.692 39.0374C174.558 38.903 174.423 38.8358 174.356 38.7686C174.222 38.7014 174.087 38.6342 173.953 38.6342C173.818 38.6342 173.684 38.567 173.55 38.567C173.281 38.567 173.012 38.6342 172.811 38.7686C172.609 38.903 172.407 39.0373 172.273 39.2389C172.139 39.4405 172.004 39.642 171.937 39.9108C171.87 40.1796 171.803 40.3811 171.803 40.6499C171.803 40.9186 171.87 41.1874 171.937 41.4562C172.004 41.7249 172.139 41.9265 172.34 42.128C172.542 42.3296 172.676 42.464 172.945 42.5984C173.147 42.7328 173.415 42.7999 173.684 42.7999C173.818 42.7999 173.953 42.8 174.087 42.7328C174.222 42.6656 174.356 42.6656 174.49 42.5312C174.625 42.464 174.759 42.3296 174.826 42.2624C174.893 42.1952 175.028 41.9937 175.095 41.8593L175.834 42.2624C175.767 42.464 175.633 42.6656 175.431 42.7999C175.297 42.9343 175.095 43.0687 174.893 43.2031C174.692 43.3375 174.49 43.4046 174.222 43.4718C174.02 43.539 173.751 43.539 173.55 43.539C173.147 43.539 172.811 43.4718 172.475 43.2703C172.139 43.0687 171.87 42.8671 171.601 42.5984C171.332 42.3296 171.198 41.9937 171.064 41.6577C170.862 41.389 170.795 40.9858 170.795 40.6499Z" fill="#233C78"/>
<path d="M180.067 43.6055C179.664 43.6055 179.328 43.5383 178.992 43.3368C178.656 43.2024 178.387 42.9336 178.119 42.6649C177.85 42.3961 177.716 42.0602 177.581 41.7242C177.447 41.3883 177.38 40.9851 177.38 40.6492C177.38 40.2461 177.447 39.9101 177.581 39.5742C177.716 39.2382 177.917 38.9023 178.119 38.6335C178.387 38.3648 178.656 38.1632 178.992 37.9616C179.328 37.8272 179.664 37.6929 180.067 37.6929C180.47 37.6929 180.806 37.7601 181.142 37.9616C181.478 38.1632 181.747 38.3648 182.016 38.6335C182.284 38.9023 182.419 39.2382 182.553 39.5742C182.688 39.9101 182.755 40.2461 182.755 40.6492C182.755 41.0523 182.688 41.3883 182.553 41.7242C182.419 42.0602 182.217 42.3961 182.016 42.6649C181.747 42.9336 181.478 43.1352 181.142 43.2696C180.806 43.4711 180.403 43.6055 180.067 43.6055ZM178.253 40.6492C178.253 40.918 178.32 41.1867 178.387 41.4555C178.455 41.7242 178.589 41.9258 178.723 42.1273C178.858 42.3289 179.059 42.4633 179.261 42.5977C179.463 42.7321 179.731 42.7992 180 42.7992C180.269 42.7992 180.538 42.7321 180.739 42.5977C180.941 42.4633 181.142 42.3289 181.277 42.1273C181.411 41.9258 181.545 41.7242 181.613 41.4555C181.68 41.1867 181.747 40.9851 181.747 40.7164C181.747 40.4476 181.68 40.1789 181.613 39.9101C181.545 39.6414 181.411 39.4398 181.277 39.2382C181.142 39.0366 180.941 38.9023 180.739 38.7679C180.538 38.6335 180.269 38.5663 180 38.5663C179.731 38.5663 179.463 38.6335 179.261 38.7679C179.059 38.9023 178.858 39.0366 178.723 39.2382C178.589 39.4398 178.455 39.6414 178.387 39.9101C178.32 40.1789 178.253 40.4476 178.253 40.6492Z" fill="#233C78"/>
<path d="M185.711 39.5074V43.5387H184.838V37.8276H185.577L188.869 41.9262V37.8276H189.81V43.5387H189.071L185.711 39.5074Z" fill="#233C78"/>
<path d="M193.035 39.5074V43.5387H192.161V37.8276H192.9L196.192 41.9262V37.8276H197.133V43.5387H196.394L193.035 39.5074Z" fill="#233C78"/>
<path d="M203.382 42.7325V43.5387H199.485V37.8276H203.314V38.6339H200.358V40.2465H202.911V40.9855H200.358V42.7325H203.382Z" fill="#233C78"/>
<path d="M205.129 40.6499C205.129 40.3139 205.196 39.978 205.33 39.6421C205.465 39.3061 205.666 38.9702 205.868 38.7014C206.07 38.4327 206.405 38.2311 206.741 38.0295C207.077 37.8951 207.481 37.7607 207.884 37.7607C208.421 37.7607 208.824 37.8951 209.227 38.0967C209.631 38.2983 209.899 38.6342 210.034 38.9702L209.295 39.4405C209.227 39.2389 209.093 39.1045 209.026 39.0374C208.891 38.903 208.757 38.8358 208.69 38.7686C208.556 38.7014 208.421 38.6342 208.287 38.6342C208.152 38.6342 208.018 38.567 207.884 38.567C207.615 38.567 207.346 38.6342 207.145 38.7686C206.943 38.903 206.741 39.0373 206.607 39.2389C206.473 39.4405 206.338 39.642 206.271 39.9108C206.204 40.1796 206.137 40.3811 206.137 40.6499C206.137 40.9186 206.204 41.1874 206.271 41.4562C206.338 41.7249 206.473 41.9265 206.674 42.128C206.876 42.3296 207.01 42.464 207.279 42.5984C207.481 42.7328 207.749 42.7999 208.018 42.7999C208.152 42.7999 208.287 42.8 208.421 42.7328C208.556 42.6656 208.69 42.6656 208.824 42.5312C208.959 42.464 209.093 42.3296 209.16 42.2624C209.227 42.1952 209.362 41.9937 209.429 41.8593L210.168 42.2624C210.101 42.464 209.967 42.6656 209.765 42.7999C209.631 42.9343 209.429 43.0687 209.227 43.2031C209.026 43.3375 208.824 43.4046 208.556 43.4718C208.354 43.539 208.085 43.539 207.884 43.539C207.481 43.539 207.145 43.4718 206.809 43.2703C206.473 43.0687 206.204 42.8671 205.935 42.5984C205.666 42.3296 205.532 41.9937 205.398 41.6577C205.196 41.389 205.129 40.9858 205.129 40.6499Z" fill="#233C78"/>
<path d="M216.215 38.6339H214.334V43.5387H213.393V38.6339H211.512V37.8276H216.215V38.6339Z" fill="#233C78"/>
<path d="M218.164 43.5387V37.8276H219.037V43.5387H218.164Z" fill="#233C78"/>
<path d="M223.807 43.6055C223.404 43.6055 223.068 43.5383 222.732 43.3368C222.396 43.2024 222.128 42.9336 221.859 42.6649C221.59 42.3961 221.456 42.0602 221.321 41.7242C221.187 41.3883 221.12 40.9851 221.12 40.6492C221.12 40.2461 221.187 39.9101 221.321 39.5742C221.456 39.2382 221.657 38.9023 221.859 38.6335C222.128 38.3648 222.396 38.1632 222.732 37.9616C223.068 37.8272 223.404 37.6929 223.807 37.6929C224.211 37.6929 224.547 37.7601 224.882 37.9616C225.218 38.1632 225.487 38.3648 225.756 38.6335C226.025 38.9023 226.159 39.2382 226.293 39.5742C226.428 39.9101 226.495 40.2461 226.495 40.6492C226.495 41.0523 226.428 41.3883 226.293 41.7242C226.159 42.0602 225.957 42.3961 225.756 42.6649C225.487 42.9336 225.218 43.1352 224.882 43.2696C224.547 43.4711 224.211 43.6055 223.807 43.6055ZM222.061 40.6492C222.061 40.918 222.128 41.1867 222.195 41.4555C222.262 41.7242 222.396 41.9258 222.531 42.1273C222.665 42.3289 222.867 42.4633 223.068 42.5977C223.27 42.7321 223.539 42.7992 223.807 42.7992C224.076 42.7992 224.345 42.7321 224.547 42.5977C224.748 42.4633 224.95 42.3289 225.084 42.1273C225.218 41.9258 225.353 41.7242 225.42 41.4555C225.487 41.1867 225.554 40.9851 225.554 40.7164C225.554 40.4476 225.487 40.1789 225.42 39.9101C225.353 39.6414 225.218 39.4398 225.084 39.2382C224.95 39.0366 224.748 38.9023 224.547 38.7679C224.345 38.6335 224.076 38.5663 223.807 38.5663C223.539 38.5663 223.27 38.6335 223.068 38.7679C222.867 38.9023 222.665 39.0366 222.531 39.2382C222.396 39.4398 222.262 39.6414 222.195 39.9101C222.061 40.1789 222.061 40.4476 222.061 40.6492Z" fill="#233C78"/>
<path d="M229.518 39.5074V43.5387H228.645V37.8276H229.384L232.676 41.9262V37.8276H233.617V43.5387H232.878L229.518 39.5074Z" fill="#233C78"/>
<path d="M239.328 39.1711C239.261 39.1039 239.194 39.0368 239.127 38.9696C238.992 38.9024 238.925 38.8352 238.791 38.768C238.656 38.7008 238.522 38.6336 238.32 38.6336C238.186 38.5664 237.984 38.5664 237.783 38.5664C237.447 38.5664 237.178 38.6336 236.976 38.768C236.775 38.9024 236.708 39.104 236.708 39.3727C236.708 39.5071 236.708 39.6415 236.775 39.7087C236.842 39.7758 236.909 39.843 237.044 39.9102C237.178 39.9774 237.312 40.0446 237.514 40.1118C237.716 40.179 237.917 40.2462 238.119 40.2462C238.387 40.3134 238.656 40.3805 238.858 40.4477C239.059 40.5149 239.261 40.6493 239.462 40.7837C239.597 40.918 239.731 41.0524 239.866 41.254C240 41.4556 240 41.6571 240 41.9259C240 42.1947 239.933 42.4634 239.798 42.665C239.664 42.8665 239.53 43.0681 239.328 43.2025C239.127 43.3369 238.925 43.404 238.656 43.4712C238.387 43.5384 238.119 43.5384 237.85 43.5384C237.447 43.5384 236.976 43.4713 236.573 43.3369C236.17 43.2025 235.767 43.0009 235.498 42.7322L235.901 41.9259C235.969 41.9931 236.103 42.0603 236.17 42.1275C236.305 42.1946 236.439 42.2618 236.641 42.3962C236.842 42.4634 236.976 42.5306 237.245 42.5978C237.447 42.665 237.648 42.665 237.917 42.665C238.253 42.665 238.522 42.5978 238.723 42.4634C238.925 42.329 238.992 42.1275 238.992 41.9259C238.992 41.7915 238.925 41.6571 238.858 41.5899C238.791 41.5228 238.656 41.3884 238.522 41.3212C238.387 41.254 238.253 41.1868 238.051 41.1196C237.85 41.0524 237.648 40.9852 237.38 40.9181C237.111 40.8509 236.842 40.7837 236.641 40.6493C236.439 40.5821 236.237 40.4477 236.103 40.3134C235.969 40.179 235.834 40.0446 235.767 39.9102C235.7 39.7758 235.633 39.5743 235.633 39.3055C235.633 39.0368 235.7 38.768 235.767 38.5664C235.901 38.3649 236.036 38.1633 236.17 38.0289C236.372 37.8945 236.573 37.7602 236.842 37.693C237.111 37.6258 237.38 37.5586 237.648 37.5586C238.051 37.5586 238.387 37.6258 238.723 37.7602C239.059 37.8945 239.328 38.0289 239.597 38.2305L239.328 39.1711Z" fill="#233C78"/>
</svg>
