<svg width="25" height="32" viewBox="0 0 25 32" fill="none" xmlns="http://www.w3.org/2000/svg">
<path fill-rule="evenodd" clip-rule="evenodd" d="M10 5.00008H13.0094C13.5557 5.00008 13.9988 5.45448 14.0004 6.00016H23.9933C24.5494 6.00016 25.0001 6.45578 25.0001 6.99562V15.005C25.0001 15.5549 24.5503 16.0005 23.9933 16.0005H14.0004C13.9988 16.5528 13.5484 17.0005 13.0094 17.0005H10V31.0076C10 31.5557 9.54442 32.0003 9.00489 32.0003H3.00059C1.34348 32.0003 0.00012207 30.6661 0.00012207 29.0041V2.99625C0.00012207 1.34156 1.34903 0 3.00059 0H9.00489C9.55451 0 10 0.452273 10 0.992734V5.00008ZM5.00004 2.00023H2.99106C2.4512 2.00023 2.00012 2.4464 2.00012 2.99664V29.0037C2.00012 29.5603 2.44385 30.0001 2.99106 30.0001H5.00004V2.00023ZM6.00012 2.00023V30.0002H8.00028V2.00023H6.00012ZM9.00028 7.00023V15.0002H12.0001V7.00023H9.00028ZM13.0002 8.00031V14.0001H23.0002V8.00031H13.0002Z" fill="white"/>
</svg>
