<svg width="214" height="241" viewBox="0 0 214 241" fill="none" xmlns="http://www.w3.org/2000/svg">
<circle cx="108" cy="156" r="68" fill="#E8F1FF"/>
<g clip-path="url(#clip0_2035_34584)">
<path d="M154.365 121.684C155.541 126.15 161.561 139.401 162.247 142.795C162.936 146.195 162.26 167.632 160.204 171.278C158.148 174.924 156.814 181.101 156.805 189.238C156.801 192.512 157.171 199.29 157.609 206.22L116.671 222.938C116.741 217.219 116.855 211.819 117.047 208.876C117.585 200.639 110.093 191.054 106.884 186.513C103.677 181.976 89.142 163.174 86.1081 158.697C83.0742 154.219 73.7931 144.95 70.7503 140.768C67.7074 136.586 62.8429 128.086 61.8985 123.806C60.9541 119.525 67.7702 119.14 70.0388 122.251C72.3074 125.362 79.7921 133.66 82.0833 136.192C84.3722 138.718 89.5148 144.376 90.4067 143.83C91.2986 143.284 86.3198 134.838 83.2543 131.235C80.1889 127.633 75.8441 120.898 75.0901 119.242C74.3362 117.586 66.669 107.936 63.3158 101.185C59.9602 94.4282 64.072 91.8482 67.1338 92.3153C70.2012 92.7802 84.7297 113.439 86.9325 115.151C89.1354 116.863 97.3428 130.835 96.9215 128.026C96.5001 125.217 88.4468 113.463 86.605 109.731C84.7631 105.998 80.3332 96.88 74.7974 87.8312C69.2727 78.778 73.0595 75.4817 73.0595 75.4817C77.3106 73.0522 80.3544 75.6654 81.577 77.104C82.8019 78.5481 92.1172 90.8688 93.7305 94.4226C95.3415 97.9709 101.987 105.374 105.032 111.13C108.076 116.886 112.119 120.757 113.255 118.239C114.397 115.718 109.968 109.743 109.126 105.699C108.285 101.655 103.019 88.4907 103.019 88.4907L116.724 82.8356C116.724 82.8356 120.81 93.3967 124.005 102.935C127.201 112.473 129.447 116.163 132.146 121.789C134.844 127.414 142.387 135.837 143.098 135.515C143.808 135.192 141.422 125.856 139.235 120.423C137.049 114.99 137.594 105.182 141.174 102.696C144.753 100.21 146.431 108.301 147.95 111.323C149.463 114.347 153.196 117.217 154.365 121.684Z" fill="#F7B593"/>
<path d="M71.1802 76.4499C70.861 77.0015 70.8604 77.6823 71.1707 78.236C72.3097 80.2791 75.2996 84.8392 76.9847 84.9028C77.854 84.9367 81.7734 82.8695 81.2537 81.105C80.8608 79.7619 78.3986 76.2242 77.2405 74.6102C76.8465 74.0582 76.1793 73.7733 75.5126 73.8706C74.2415 74.0591 72.2223 74.6374 71.1802 76.4499Z" fill="#FFD0C0"/>
<path d="M61.4365 94.5832C61.1174 95.1348 61.1167 95.8156 61.4271 96.3693C62.566 98.4124 65.5559 102.972 67.241 103.036C68.1104 103.07 72.0297 101.003 71.5101 99.2383C71.1171 97.8952 68.6549 94.3575 67.4968 92.7435C67.1029 92.1915 66.4356 91.9066 65.7689 92.0039C64.4979 92.1924 62.4731 92.773 61.4365 94.5832Z" fill="#FFD0C0"/>
<path d="M63.6059 120.464C64.0161 120.342 64.4593 120.459 64.759 120.765C65.9431 121.966 69.0127 125.372 67.3463 126.831C65.3024 128.618 64.4044 128.006 62.2961 125.192C60.4489 122.732 61.9514 120.952 63.6059 120.464Z" fill="#FFD0C0"/>
<path d="M142.42 102.129C141.98 102.257 141.686 102.681 141.724 103.139C141.892 105.248 142.541 111.282 144.43 112.066C146.72 113.024 148.109 111.679 147.622 110.614C147.141 109.547 145.181 102.732 144.212 102.168C143.678 101.861 142.957 101.968 142.42 102.129Z" fill="#FFD0C0"/>
<path d="M111.657 90.4718C105.063 93.1454 97.7849 90.5437 95.4039 84.6656C95.3812 84.6101 95.3563 84.549 95.3392 84.4911C95.3323 84.4745 95.3255 84.4578 95.3187 84.4411L83.2948 54.7751C83.1043 54.3085 83.3278 53.7766 83.7944 53.586L105.988 44.5941C106.455 44.4036 106.987 44.6271 107.177 45.0936L119.201 74.7597C119.208 74.7763 119.215 74.793 119.222 74.8097C119.244 74.8652 119.269 74.9263 119.292 74.9819C121.67 80.8678 118.252 87.7982 111.657 90.4718Z" fill="#2C82BB"/>
<path d="M110.869 88.5255C105.063 90.877 98.4662 88.101 96.1261 82.3229C96.1034 82.2674 96.0785 82.2063 96.0558 82.1507C96.049 82.1341 96.0422 82.1174 96.0354 82.1007L84.3835 53.3457L105.397 44.8291L117.049 73.5842C117.056 73.6008 117.063 73.6175 117.07 73.6342C117.092 73.6897 117.115 73.7453 117.14 73.8064C119.48 79.5845 116.675 86.174 110.869 88.5255Z" fill="#399BC8"/>
<path d="M110.638 86.8959C111.841 86.4048 112.417 85.0318 111.926 83.8292C111.435 82.6267 110.062 82.0499 108.86 82.541C107.657 83.0321 107.08 84.405 107.571 85.6076C108.062 86.8102 109.435 87.3869 110.638 86.8959Z" fill="#E8EAEA"/>
<path d="M115.498 77.9762L100.207 84.1752C99.3293 84.5336 98.3257 84.1074 97.9673 83.2298L88.8461 60.7195C88.4877 59.8418 88.9139 58.8382 89.7915 58.4798L105.083 52.2807C105.96 51.9223 106.964 52.3485 107.322 53.2262L116.444 75.7365C116.802 76.6141 116.376 77.6178 115.498 77.9762Z" fill="#2C82BB"/>
<path d="M99.7237 80.3089L92.109 61.5192C91.9389 61.1026 92.1449 60.6231 92.5559 60.4553L104.645 55.5572C105.062 55.3871 105.542 55.5931 105.709 56.0041L113.324 74.7939C113.494 75.2105 113.288 75.6899 112.877 75.8578L100.788 80.7559C100.371 80.926 99.8916 80.72 99.7237 80.3089Z" fill="#485160"/>
<path d="M106.654 68.237L106.561 68.4048C106.542 68.4384 106.539 68.4785 106.555 68.5174L107.119 69.9139C107.132 69.9472 107.155 69.9705 107.186 69.9836L107.389 70.069C107.452 70.0953 107.521 70.0737 107.555 70.0144L107.642 69.8622C107.661 69.8287 107.664 69.7885 107.648 69.7496L107.068 68.3143C107.052 68.2754 107.022 68.2489 106.985 68.238L106.801 68.1836C106.749 68.1528 106.683 68.18 106.654 68.237Z" fill="#E8EAEA"/>
<path d="M107.98 71.4997L107.886 71.6675C107.868 71.7011 107.865 71.7412 107.88 71.7801L108.444 73.1766C108.458 73.2099 108.48 73.2332 108.512 73.2463L108.715 73.3317C108.778 73.358 108.846 73.3364 108.881 73.2771L108.968 73.1249C108.986 73.0914 108.989 73.0512 108.973 73.0123L108.394 71.577C108.378 71.5381 108.348 71.5116 108.311 71.5007L108.126 71.4463C108.069 71.4177 108.008 71.4427 107.98 71.4997Z" fill="#E8EAEA"/>
<path d="M104.638 68.9499L104.806 69.0434C104.839 69.0621 104.879 69.0651 104.918 69.0493L106.315 68.4855C106.348 68.4718 106.371 68.4494 106.385 68.4181L106.47 68.2147C106.496 68.1521 106.475 68.0832 106.415 68.0491L106.263 67.9622C106.23 67.9435 106.189 67.9404 106.151 67.9563L104.715 68.536C104.676 68.5518 104.65 68.5821 104.639 68.619L104.584 68.8032C104.554 68.8547 104.581 68.9213 104.638 68.9499Z" fill="#E8EAEA"/>
<path d="M105.458 70.9741L105.512 70.7899C105.523 70.753 105.55 70.7228 105.589 70.7069L106.985 70.1431C107.019 70.1295 107.051 70.1293 107.082 70.1424L107.286 70.2278C107.348 70.2541 107.381 70.3185 107.362 70.3844L107.309 70.5552C107.298 70.5921 107.272 70.6224 107.233 70.6382L105.797 71.2179C105.758 71.2338 105.718 71.2308 105.685 71.2121L105.517 71.1186C105.462 71.0955 105.437 71.0344 105.458 70.9741Z" fill="#E8EAEA"/>
<path d="M103.178 71.8989L103.233 71.7147C103.243 71.6779 103.27 71.6476 103.309 71.6317L104.705 71.0679C104.739 71.0543 104.771 71.0541 104.802 71.0672L105.006 71.1526C105.068 71.1789 105.101 71.2433 105.083 71.3092L105.029 71.4801C105.018 71.5169 104.992 71.5472 104.953 71.5631L103.518 72.1427C103.479 72.1586 103.439 72.1556 103.405 72.1369L103.237 72.0434C103.182 72.0204 103.158 71.9593 103.178 71.8989Z" fill="#E8EAEA"/>
<path d="M106.779 74.2395L106.833 74.0553C106.844 74.0184 106.87 73.9881 106.909 73.9723L108.306 73.4085C108.339 73.3949 108.371 73.3946 108.403 73.4078L108.606 73.4932C108.669 73.5195 108.701 73.5839 108.683 73.6498L108.63 73.8206C108.619 73.8575 108.592 73.8877 108.553 73.9036L107.118 74.4833C107.079 74.4992 107.039 74.4961 107.005 74.4774L106.838 74.3839C106.788 74.3587 106.763 74.2976 106.779 74.2395Z" fill="#E8EAEA"/>
<path d="M104.497 75.1584L104.551 74.9742C104.562 74.9374 104.589 74.9071 104.627 74.8912L106.024 74.3274C106.057 74.3138 106.09 74.3136 106.121 74.3267L106.324 74.4122C106.387 74.4385 106.42 74.5028 106.401 74.5687L106.348 74.7396C106.337 74.7764 106.31 74.8067 106.272 74.8226L104.836 75.4022C104.797 75.4181 104.757 75.4151 104.724 75.3964L104.556 75.3029C104.509 75.2832 104.482 75.2165 104.497 75.1584Z" fill="#E8EAEA"/>
<path d="M104.366 62.5864L104.273 62.7542C104.254 62.7877 104.251 62.8279 104.267 62.8668L104.831 64.2633C104.844 64.2966 104.867 64.3198 104.898 64.333L105.101 64.4184C105.164 64.4447 105.233 64.423 105.267 64.3637L105.354 64.2116C105.373 64.178 105.376 64.1379 105.36 64.099L104.78 62.6636C104.764 62.6247 104.734 62.5982 104.697 62.5873L104.513 62.533C104.458 62.51 104.397 62.5349 104.366 62.5864Z" fill="#E8EAEA"/>
<path d="M103.048 59.3269L102.955 59.4947C102.936 59.5282 102.933 59.5684 102.949 59.6072L103.513 61.0037C103.526 61.0371 103.549 61.0603 103.58 61.0735L103.783 61.1589C103.846 61.1852 103.915 61.1635 103.949 61.1042L104.036 60.9521C104.055 60.9185 104.058 60.8784 104.042 60.8395L103.462 59.4041C103.446 59.3652 103.416 59.3387 103.379 59.3278L103.195 59.2734C103.138 59.2449 103.077 59.2698 103.048 59.3269Z" fill="#E8EAEA"/>
<path d="M102.036 63.5317L101.943 63.6995C101.924 63.7331 101.921 63.7732 101.937 63.8121L102.501 65.2086C102.514 65.2419 102.537 65.2651 102.568 65.2783L102.771 65.3637C102.834 65.39 102.903 65.3683 102.937 65.309L103.024 65.1569C103.043 65.1233 103.046 65.0832 103.03 65.0443L102.45 63.6089C102.434 63.5701 102.404 63.5435 102.367 63.5327L102.183 63.4783C102.128 63.4553 102.067 63.4802 102.036 63.5317Z" fill="#E8EAEA"/>
<path d="M100.766 60.246L100.673 60.4138C100.654 60.4474 100.651 60.4875 100.667 60.5264L101.231 61.9229C101.244 61.9562 101.267 61.9795 101.298 61.9926L101.501 62.0781C101.564 62.1044 101.633 62.0827 101.667 62.0234L101.754 61.8712C101.773 61.8377 101.776 61.7976 101.76 61.7587L101.18 60.3233C101.164 60.2844 101.134 60.2579 101.097 60.247L100.913 60.1926C100.858 60.1696 100.797 60.1946 100.766 60.246Z" fill="#E8EAEA"/>
<path d="M99.7569 64.456L99.6634 64.6238C99.6447 64.6574 99.6416 64.6975 99.6575 64.7364L100.221 66.1329C100.235 66.1662 100.257 66.1894 100.289 66.2026L100.492 66.288C100.555 66.3143 100.624 66.2927 100.658 66.2334L100.745 66.0812C100.763 66.0476 100.766 66.0075 100.751 65.9686L100.171 64.5333C100.155 64.4944 100.125 64.4678 100.088 64.457L99.9036 64.4026C99.8488 64.3796 99.7877 64.4045 99.7569 64.456Z" fill="#E8EAEA"/>
<path d="M98.4361 61.1909L98.3426 61.3587C98.3239 61.3922 98.3209 61.4324 98.3367 61.4712L98.9005 62.8677C98.9141 62.9011 98.9366 62.9243 98.9679 62.9375L99.1713 63.0229C99.2339 63.0492 99.3028 63.0275 99.3369 62.9682L99.4238 62.8161C99.4425 62.7825 99.4456 62.7424 99.4297 62.7035L98.85 61.2681C98.8342 61.2292 98.8039 61.2027 98.767 61.1918L98.5828 61.1374C98.528 61.1144 98.4669 61.1394 98.4361 61.1909Z" fill="#E8EAEA"/>
<path d="M103.165 65.3259L103.219 65.1417C103.23 65.1048 103.257 65.0746 103.295 65.0587L104.692 64.4949C104.725 64.4813 104.758 64.4811 104.789 64.4942L104.992 64.5796C105.055 64.6059 105.088 64.6703 105.069 64.7362L105.016 64.907C105.005 64.9439 104.978 64.9742 104.94 64.99L103.504 65.5697C103.465 65.5856 103.425 65.5825 103.392 65.5638L103.224 65.4703C103.177 65.4506 103.15 65.384 103.165 65.3259Z" fill="#E8EAEA"/>
<path d="M100.891 66.2485L100.945 66.0643C100.956 66.0275 100.982 65.9972 101.021 65.9813L102.418 65.4175C102.451 65.4039 102.483 65.4037 102.515 65.4168L102.718 65.5023C102.781 65.5285 102.813 65.5929 102.795 65.6588L102.742 65.8297C102.731 65.8665 102.704 65.8968 102.665 65.9127L101.23 66.4923C101.191 66.5082 101.151 66.5052 101.117 66.4865L100.95 66.393C100.897 66.3755 100.87 66.3089 100.891 66.2485Z" fill="#E8EAEA"/>
<path d="M102.269 63.0996L102.323 62.9154C102.334 62.8785 102.36 62.8483 102.399 62.8324L103.796 62.2686C103.829 62.255 103.861 62.2547 103.893 62.2679L104.096 62.3533C104.159 62.3796 104.191 62.444 104.173 62.5099L104.12 62.6807C104.109 62.7176 104.082 62.7479 104.043 62.7637L102.608 63.3434C102.569 63.3593 102.529 63.3562 102.495 63.3375L102.328 63.244C102.273 63.221 102.248 63.1599 102.269 63.0996Z" fill="#E8EAEA"/>
<path d="M99.9888 64.0244L100.043 63.8402C100.054 63.8033 100.081 63.7731 100.119 63.7572L101.516 63.1934C101.549 63.1798 101.582 63.1795 101.613 63.1927L101.816 63.2781C101.879 63.3044 101.912 63.3688 101.893 63.4347L101.84 63.6055C101.829 63.6424 101.802 63.6727 101.764 63.6885L100.328 64.2682C100.289 64.2841 100.249 64.281 100.216 64.2623L100.048 64.1688C99.993 64.1458 99.968 64.0847 99.9888 64.0244Z" fill="#E8EAEA"/>
<path d="M100.963 59.887L101.017 59.7027C101.028 59.6659 101.054 59.6356 101.093 59.6197L102.49 59.0559C102.523 59.0423 102.555 59.0421 102.587 59.0552L102.79 59.1407C102.853 59.167 102.885 59.2314 102.867 59.2972L102.814 59.4681C102.803 59.5049 102.776 59.5352 102.737 59.5511L101.302 60.1308C101.263 60.1466 101.223 60.1436 101.189 60.1249L101.022 60.0314C100.975 60.0117 100.947 59.945 100.963 59.887Z" fill="#E8EAEA"/>
<path d="M98.6833 60.8113L98.7377 60.627C98.7486 60.5902 98.7751 60.5599 98.814 60.544L100.211 59.9802C100.244 59.9666 100.276 59.9664 100.307 59.9796L100.511 60.065C100.573 60.0913 100.606 60.1557 100.588 60.2215L100.534 60.3924C100.523 60.4292 100.497 60.4595 100.458 60.4754L99.0227 61.0551C98.9838 61.071 98.9437 61.0679 98.9101 61.0492L98.7423 60.9557C98.6954 60.936 98.6682 60.8693 98.6833 60.8113Z" fill="#E8EAEA"/>
<path d="M99.5666 62.991L99.621 62.8067C99.6319 62.7699 99.6584 62.7396 99.6973 62.7237L101.094 62.1599C101.127 62.1463 101.159 62.1461 101.191 62.1592L101.394 62.2447C101.457 62.271 101.49 62.3354 101.471 62.4012L101.418 62.5721C101.407 62.6089 101.38 62.6392 101.341 62.6551L99.906 63.2348C99.8671 63.2506 99.827 63.2476 99.7934 63.2289L99.6256 63.1354C99.5764 63.1101 99.5492 63.0435 99.5666 62.991Z" fill="#E8EAEA"/>
<path d="M104.38 69.1594L104.286 69.3272C104.267 69.3607 104.264 69.4009 104.28 69.4398L104.844 70.8363C104.858 70.8696 104.88 70.8928 104.911 70.906L105.115 70.9914C105.177 71.0177 105.246 70.996 105.281 70.9367L105.367 70.7846C105.386 70.751 105.389 70.7109 105.373 70.672L104.794 69.2366C104.778 69.1977 104.747 69.1712 104.711 69.1603L104.526 69.106C104.469 69.0774 104.403 69.1046 104.38 69.1594Z" fill="#E8EAEA"/>
<path d="M102.043 70.101L101.949 70.2688C101.93 70.3024 101.927 70.3425 101.943 70.3814L102.507 71.7779C102.521 71.8112 102.543 71.8345 102.574 71.8476L102.778 71.9331C102.84 71.9593 102.909 71.9377 102.943 71.8784L103.03 71.7262C103.049 71.6927 103.052 71.6525 103.036 71.6136L102.456 70.1783C102.441 70.1394 102.41 70.1129 102.373 70.102L102.189 70.0476C102.14 70.0223 102.073 70.0496 102.043 70.101Z" fill="#E8EAEA"/>
<path d="M105.545 46.4923L104.691 44.3848C104.428 43.7404 103.858 43.2665 103.174 43.1311C98.7813 42.2613 87.0831 47.4986 84.7693 50.9581C84.4772 51.4014 84.4266 51.96 84.6229 52.4566L85.6041 54.8752L105.646 46.7556L105.545 46.4923Z" fill="#399BC8"/>
<path d="M94.035 46.824C89.0628 48.8388 85.5999 51.8737 86.3006 53.6028C87.0012 55.3319 91.5999 55.1003 96.5722 53.0855C101.544 51.0708 105.007 48.0358 104.307 46.3067C103.606 44.5777 99.0072 44.8093 94.035 46.824Z" fill="#2C82BB"/>
<path d="M102.422 78.4101C102.678 78.3058 102.805 78.0141 102.698 77.753C102.632 77.5919 102.49 77.4815 102.334 77.4481C102.428 77.3126 102.452 77.1342 102.386 76.9731C102.282 76.7176 101.99 76.5904 101.729 76.697C101.623 76.7401 101.543 76.812 101.49 76.9049C101.345 77.1065 101.151 77.4711 100.965 77.8579C100.921 77.9407 100.957 78.043 101.046 78.0713C101.457 78.2533 101.837 78.3898 102.116 78.438C102.209 78.4585 102.317 78.4532 102.422 78.4101Z" fill="#E21C2A"/>
<path d="M94.1376 61.3454C94.5389 61.3759 94.9435 61.3986 95.3449 61.4292C95.5455 61.4444 95.7439 61.4541 95.9391 61.4717C95.9981 61.4735 96.0895 61.4751 96.1167 61.5417C96.1417 61.6028 96.1032 61.6833 96.0724 61.7348C95.9855 61.8869 95.8415 62.0105 95.7266 62.1417C95.5917 62.2875 95.4624 62.4311 95.3275 62.5769C95.2126 62.7081 95.0686 62.8317 94.9739 62.9806C94.9011 63.088 94.8498 63.2321 94.9242 63.3508C95.0031 63.4806 95.1916 63.5138 95.3289 63.5485C95.5053 63.5996 95.6828 63.6373 95.8635 63.6672C96.0442 63.6971 96.2282 63.7192 96.4099 63.7357C96.5515 63.7492 96.7222 63.7702 96.7778 63.9225C96.895 64.257 96.4801 64.5107 96.3046 64.7314C96.2063 64.8558 96.1282 64.9979 96.0456 65.1288C95.996 65.2139 95.9364 65.2901 95.8869 65.3751C95.8495 65.4422 95.8166 65.5204 95.8539 65.5959C95.9026 65.6992 96.0409 65.7205 96.1391 65.7387C96.2963 65.7588 96.4579 65.7576 96.6116 65.7532C96.7409 65.7522 96.8946 65.7478 96.969 65.8665C96.9632 65.8364 96.9597 65.8119 96.9594 65.7796C96.8692 65.9396 96.7757 66.1074 96.6855 66.2674C96.6448 66.3423 96.5986 66.4196 96.5579 66.4945C96.5149 66.5639 96.4743 66.6388 96.4548 66.7181C96.3882 67.0629 96.8864 67.0927 97.1073 67.1256C97.4475 67.1811 97.7953 67.2076 98.1386 67.223C98.2378 67.2278 98.4551 67.2363 98.4061 67.3859C98.3821 67.4541 98.3235 67.5169 98.2793 67.5674C98.2196 67.6435 98.1578 67.7142 98.0981 67.7904C97.9766 67.9372 97.8607 68.0818 97.7392 68.2286C97.6265 68.3654 97.4982 68.4955 97.4034 68.6444C97.3329 68.7574 97.3384 68.8978 97.436 68.994C97.5415 69.0935 97.6843 69.1259 97.8227 69.1472C97.9208 69.1655 98.1061 69.2065 98.0881 69.337C98.0754 69.4329 97.9757 69.506 97.9216 69.5799C97.8531 69.6662 97.797 69.7669 97.8101 69.8782C97.8244 70.0085 97.9253 70.0969 98.0371 70.1485C98.1668 70.2122 98.314 70.2234 98.4533 70.2313C98.6305 70.2367 98.8155 70.2454 98.9927 70.2508C99.1431 70.2542 99.3191 70.2406 99.4609 70.2864C99.6184 70.3388 99.5961 70.4905 99.538 70.6179C99.403 70.9063 99.1676 71.171 98.9261 71.3733C98.8685 71.4227 98.8031 71.4689 98.7433 71.5127C98.6834 71.5566 98.6213 71.595 98.5738 71.6532C98.49 71.7653 98.5222 71.9076 98.6231 71.9961C98.7318 72.0878 98.8623 72.1058 98.9973 72.1349C99.0978 72.1587 99.2474 72.2077 99.1916 72.3407C99.1521 72.4346 99.0691 72.5009 99.014 72.5882C98.9556 72.6834 98.9308 72.7972 98.9739 72.9027C99.0825 73.137 99.4246 73.1335 99.6361 73.1119C99.9779 73.076 100.328 73.0757 100.663 73.1201C100.781 73.1371 100.956 73.1692 100.991 73.3038C101.022 73.4273 100.926 73.5572 100.852 73.6458C100.743 73.7747 100.618 73.897 100.488 74.0083C100.362 74.1117 100.221 74.1951 100.103 74.3018C99.9986 74.3962 99.9147 74.5082 99.9035 74.6554C99.8966 74.7813 99.9377 74.9136 100.045 74.9864C100.16 75.0624 100.304 75.0168 100.411 75.0896C100.519 75.1624 100.548 75.3126 100.531 75.4297C100.506 75.5758 100.424 75.7068 100.344 75.8299C100.289 75.9172 100.418 76.0266 100.476 75.9315C100.621 75.6976 100.779 75.419 100.66 75.1435C100.613 75.0269 100.515 74.9306 100.391 74.897C100.275 74.8666 100.108 74.9024 100.077 74.7466C100.048 74.5964 100.162 74.4786 100.268 74.3898C100.397 74.2919 100.528 74.1996 100.648 74.0985C100.772 73.9895 100.892 73.8694 100.996 73.7428C101.078 73.6441 101.158 73.521 101.162 73.3895C101.183 73.0762 100.876 72.9748 100.625 72.9477C100.281 72.9134 99.9311 72.9137 99.587 72.944C99.4244 72.9585 98.9875 72.936 99.1528 72.6741C99.2078 72.5868 99.2942 72.5127 99.3392 72.4165C99.3875 72.3126 99.3777 72.1934 99.298 72.1093C99.2137 72.0141 99.0732 71.9872 98.9482 71.967C98.8579 71.952 98.5866 71.8749 98.726 71.7402C98.778 71.693 98.8424 71.6602 98.8967 71.6186C98.9654 71.5646 99.0341 71.5107 99.0949 71.4534C99.2134 71.3467 99.3218 71.2311 99.4167 71.1146C99.515 70.9902 99.6087 70.8547 99.6757 70.7172C99.7361 70.5953 99.7774 70.4424 99.7174 70.3113C99.6619 70.1914 99.5345 70.1332 99.404 70.1152C99.2389 70.0919 99.0663 70.0976 98.9002 70.0877C98.723 70.0823 98.5402 70.0791 98.3608 70.0681C98.2404 70.059 98.0753 70.0357 97.9943 69.9326C97.9234 69.8384 98.0008 69.742 98.0604 69.6659C98.1255 69.5874 98.2041 69.5099 98.2334 69.4072C98.2694 69.2889 98.2273 69.1699 98.1309 69.0926C98.0267 69.0121 97.8884 68.9908 97.7579 68.9728C97.6887 68.9621 97.6072 68.9371 97.5545 68.8873C97.4939 68.8343 97.5069 68.7707 97.5543 68.7124C97.6625 68.5645 97.7885 68.4288 97.9045 68.2843C98.026 68.1374 98.1419 67.9929 98.2634 67.846C98.364 67.7272 98.4946 67.6026 98.5514 67.4562C98.5985 67.3333 98.563 67.1987 98.4444 67.1305C98.3235 67.0567 98.172 67.0667 98.0383 67.0566C97.695 67.0412 97.3482 67.0013 97.0079 66.9459C96.931 66.9319 96.8484 66.9203 96.7692 66.9008C96.7056 66.8879 96.6107 66.8618 96.6057 66.7861C96.6029 66.7159 96.657 66.642 96.6911 66.5827C96.7351 66.4999 96.7813 66.4227 96.8253 66.3399C96.9155 66.18 97.009 66.0122 97.0992 65.8522C97.1147 65.8264 97.101 65.7931 97.0897 65.7653C96.9432 65.5335 96.6294 65.5904 96.3977 65.5943C96.2684 65.5952 96.1235 65.5896 96.0062 65.5403C95.9827 65.5304 95.9938 65.5259 95.9961 65.5314C96.006 65.5079 96.0136 65.4789 96.029 65.4532C96.0785 65.3681 96.1381 65.292 96.1932 65.2047C96.2801 65.0525 96.3693 64.9059 96.4843 64.7747C96.6909 64.5348 96.9969 64.332 96.9543 63.9736C96.9387 63.8244 96.8464 63.6936 96.7056 63.6344C96.5625 63.5697 96.3977 63.5787 96.246 63.5564C95.8802 63.5178 95.5032 63.4514 95.1546 63.328C95.0943 63.3073 95.035 63.2732 95.0457 63.204C95.054 63.1293 95.1104 63.0609 95.1546 63.0105C95.2816 62.8614 95.4188 62.7211 95.5537 62.5753C95.6886 62.4295 95.8179 62.2859 95.9528 62.1401C96.0644 62.0167 96.1917 61.8999 96.2496 61.7402C96.3032 61.6016 96.2864 61.4335 96.1388 61.3577C96.0583 61.3193 95.9614 61.32 95.8755 61.3161C95.763 61.3103 95.6481 61.2988 95.53 61.2952C95.0696 61.2629 94.6092 61.2305 94.1488 61.1982C94.0539 61.1721 94.0306 61.3372 94.1376 61.3454Z" fill="#E21C2A"/>
<path d="M111.701 83.9143C111.476 83.4424 111.067 83.0264 110.596 82.8102C109.624 82.3515 108.339 82.8699 107.847 83.7905C107.567 84.3128 107.589 84.9522 107.809 85.491C107.859 85.6132 108.012 85.6868 108.137 85.629C108.263 85.5713 108.33 85.4338 108.275 85.3005C108.253 85.2449 108.232 85.1949 108.215 85.1371C108.206 85.1149 108.192 85.0816 108.191 85.0626C108.193 85.1139 108.197 85.0927 108.193 85.0682C108.187 85.0515 108.185 85.0326 108.178 85.0159C108.152 84.9036 108.139 84.7923 108.137 84.6764C108.138 84.663 108.133 84.6519 108.137 84.6441C108.138 84.5984 108.133 84.6519 108.136 84.6575C108.132 84.633 108.138 84.5984 108.14 84.5716C108.141 84.5126 108.151 84.4568 108.161 84.401C108.163 84.3743 108.173 84.3508 108.175 84.324C108.179 84.3028 108.187 84.2281 108.182 84.295C108.186 84.2415 108.22 84.1822 108.238 84.1297C108.258 84.0828 108.283 84.0336 108.303 83.9866C108.303 83.9866 108.331 83.9296 108.315 83.9687C108.296 84.0023 108.321 83.9531 108.327 83.9508C108.342 83.9251 108.358 83.8993 108.375 83.8791C108.408 83.8332 108.447 83.785 108.482 83.7447C108.5 83.7245 108.518 83.7043 108.541 83.6818C108.5 83.7245 108.532 83.6919 108.541 83.6818C108.555 83.6695 108.57 83.6571 108.584 83.6448C108.683 83.5527 108.79 83.4828 108.903 83.4107C108.856 83.4367 108.926 83.4016 108.94 83.3893C108.971 83.3701 109.004 83.3565 109.043 83.3406C109.108 83.3079 109.18 83.2784 109.249 83.2567C109.304 83.234 109.362 83.2169 109.414 83.202C109.373 83.2124 109.472 83.1849 109.414 83.202C109.428 83.203 109.444 83.1962 109.461 83.1894C109.491 83.1837 109.521 83.1779 109.551 83.1721C109.6 83.165 109.655 83.1557 109.706 83.1543C109.73 83.1507 109.763 83.1505 109.787 83.147C109.801 83.148 109.806 83.1457 109.82 83.1468C109.843 83.1566 109.865 83.1475 109.82 83.1468C109.853 83.1655 109.927 83.1549 109.967 83.158C110.015 83.1643 110.063 83.1706 110.113 83.1825C110.134 83.1868 110.155 83.1911 110.176 83.1954C110.227 83.2073 110.132 83.1813 110.161 83.1889C110.169 83.1921 110.182 83.1932 110.198 83.1997C110.242 83.2139 110.287 83.2281 110.328 83.2501C110.368 83.2665 110.401 83.2852 110.44 83.3016C110.458 83.3137 110.474 83.3203 110.492 83.3324C110.559 83.3698 110.456 83.3082 110.51 83.3446C110.579 83.3875 110.643 83.4327 110.709 83.4835C110.767 83.531 110.822 83.5863 110.88 83.6338C110.812 83.5775 110.868 83.6194 110.88 83.6338C110.893 83.6482 110.903 83.6571 110.915 83.6715C110.94 83.7003 110.962 83.7235 110.987 83.7523C111.064 83.8442 111.137 83.944 111.199 84.0482C111.211 84.0626 111.22 84.0849 111.233 84.0993C111.173 84.0005 111.211 84.0626 111.226 84.0826C111.23 84.0937 111.235 84.1048 111.247 84.1192C111.303 84.2391 111.445 84.3172 111.576 84.2572C111.68 84.1952 111.761 84.0453 111.701 83.9143Z" fill="white"/>
</g>
<defs>
<clipPath id="clip0_2035_34584">
<rect width="150" height="198" fill="white" transform="translate(0 56.709) rotate(-22.2135)"/>
</clipPath>
</defs>
</svg>
