<svg width="20" height="42" viewBox="0 0 20 42" fill="none" xmlns="http://www.w3.org/2000/svg">
<path d="M19.9106 28.3521C19.9106 27.3173 19.9106 25.2478 18.6548 24.213C17.9369 23.6956 17.0401 23.5925 15.9645 23.902C15.7857 23.4877 15.5161 23.0735 15.1572 22.764C14.4392 22.1435 13.453 22.0403 12.288 22.453C12.1092 22.1419 11.8396 21.8324 11.5701 21.5214C10.9429 21.1088 10.1355 21.0056 9.24006 21.2119V18.314H11.9304C12.4682 18.314 12.8271 17.8998 12.8271 17.2793L12.8258 4.44997C12.8258 1.96629 11.1216 0 8.96915 0H4.57464C2.42212 0 0.717992 1.96633 0.717992 4.44997V17.1765C0.717992 17.797 1.07699 18.2112 1.61476 18.2112H3.85668V23.7992C3.13872 23.7992 2.33271 23.9023 1.70416 24.3165C0.717958 24.9371 0.0894369 25.9718 0 27.3176V27.5239V34.5592C0 35.905 1.34516 36.6287 2.06312 36.9397C2.60092 38.2855 3.49768 38.8029 4.12624 39.1124C4.75344 39.4234 5.023 39.6298 5.023 40.7677C5.023 41.3882 5.382 41.8024 5.91976 41.8024H17.3083C17.8461 41.8024 18.2051 41.3881 18.2051 40.7677V39.5266C18.7429 39.0092 19.5502 37.7682 19.9092 35.905C19.9986 35.8018 19.9986 35.5939 19.9986 35.3876L20 28.3523C19.9106 28.4555 19.9106 28.4555 19.9106 28.3523V28.3521ZM2.4234 4.45002C2.4234 3.10422 3.4096 2.0695 4.48652 2.0695H8.88103C10.0474 2.0695 10.9442 3.20742 10.9442 4.45002V16.1418H2.33545L2.3341 4.45002H2.4234ZM4.84551 37.3536C4.21831 37.0426 3.85932 36.8363 3.50035 35.9047V35.8015C3.50035 35.6984 3.41095 35.6984 3.41095 35.5952C3.41095 35.4921 3.32154 35.4921 3.32154 35.4921C3.32154 35.4921 3.23214 35.3889 3.14273 35.3889C3.05333 35.3889 3.05333 35.2857 2.96392 35.2857H2.87451C2.42612 35.1826 1.88831 34.8715 1.70816 34.6652V28.1473V28.0441C1.70816 27.3204 1.88697 26.803 2.33536 26.492C2.78376 26.181 3.41096 26.0778 3.85933 26.0778V28.3536C3.85933 28.9741 4.21832 29.3883 4.75609 29.3883C5.29389 29.3883 5.65285 28.9741 5.65285 28.3536V18.4205L7.44641 18.4189V28.352C7.44641 28.9726 7.80541 29.3868 8.34317 29.3868C8.88097 29.3868 9.23993 28.9725 9.23993 28.352V23.2814C9.77773 23.0751 10.2261 23.1783 10.4957 23.2814C11.0335 23.6957 11.0335 25.1446 11.0335 25.7651L11.0321 29.4899C11.0321 30.1104 11.3911 30.5246 11.9289 30.5246C12.4667 30.5246 12.8257 30.1104 12.8257 29.4899V25.8683C12.8257 25.5572 12.8257 25.1446 12.7363 24.6272C13.2741 24.4209 13.8119 24.4209 13.992 24.6272C14.5298 25.0414 14.5298 26.4903 14.5298 27.1109V30.7325C14.5298 31.353 14.8888 31.7672 15.4266 31.7672C15.9644 31.7672 16.3233 31.353 16.3233 30.7325V27.1109V26.1793C16.8611 25.973 17.3095 25.973 17.5791 26.1793C18.1169 26.5935 18.1169 28.0424 18.1169 28.663V34.8716C18.1169 37.2521 16.7717 38.4932 16.6823 38.4932V38.5963C16.5929 38.5963 16.5929 38.6995 16.5929 38.8027C16.5929 38.9058 16.5035 38.9058 16.5035 39.009C16.5035 39.1121 16.5035 39.1121 16.4141 39.2153V39.4216V39.5248L16.4128 39.8374H6.63886C6.36929 38.1821 5.4725 37.6647 4.8453 37.3537L4.84551 37.3536Z" fill="white"/>
<path d="M4.84696 9.72998H8.61274C9.15054 9.72998 9.5095 9.31575 9.5095 8.69525V4.86578C9.5095 4.24524 9.15051 3.83105 8.61274 3.83105H4.84696C4.30916 3.83105 3.9502 4.24528 3.9502 4.86578V8.69369C3.9502 9.21264 4.39859 9.72998 4.84696 9.72998ZM5.74372 5.90051H7.71608V7.65893H5.74372V5.90051Z" fill="white"/>
<path d="M8.43346 13.8671C8.97126 13.8671 9.33022 13.4528 9.33022 12.8323C9.33022 12.2118 8.97123 11.7976 8.43346 11.7976H5.02518C4.48738 11.7976 4.12842 12.2118 4.12842 12.8323C4.12842 13.4528 4.48741 13.8671 5.02518 13.8671H8.43346Z" fill="white"/>
</svg>
