<svg width="17" height="38" viewBox="0 0 17 38" fill="none" xmlns="http://www.w3.org/2000/svg">
<path d="M0 5.53177L2.99287 3.43674L0 1.33856V5.53177ZM13.6624 25.5723V3.33458C13.6624 1.74353 12.5127 0.455078 11.0945 0.455078C9.67554 0.455078 8.52578 1.74353 8.52578 3.33458V25.622C6.88339 26.6546 5.7604 28.5995 5.7604 30.8584C5.7604 34.1856 8.16748 36.884 11.1349 36.884C14.1042 36.884 16.5112 34.186 16.5112 30.8584C16.5112 28.5622 15.3501 26.5892 13.6624 25.5723Z" fill="white"/>
<path d="M14.2009 25.2087V3.43679C14.2009 1.53796 12.8293 0 11.1343 0C9.44249 0 8.07038 1.53796 8.07038 3.43679V25.2079C6.39033 26.364 5.27041 28.4411 5.27041 30.8111C5.27041 34.4436 7.89586 37.3858 11.1341 37.3858C14.3738 37.3858 16.9997 34.4436 16.9997 30.8111C17 28.4416 15.8798 26.3647 14.2009 25.2087ZM11.1343 36.3976C8.38719 36.3976 6.15236 33.8915 6.15236 30.8112C6.15236 28.8548 7.04101 27.0761 8.5322 26.0512L8.9526 25.7619V3.43658C8.9526 2.08628 9.93128 0.988124 11.1342 0.988124C12.3386 0.988124 13.3186 2.08628 13.3186 3.43658V25.7612L13.739 26.0496C15.2282 27.0756 16.1181 28.8558 16.1181 30.8108C16.1181 33.8916 13.8824 36.3976 11.1343 36.3976ZM6.88297 12.5476H4.17993V13.5365H6.88297V12.5476ZM6.88297 2.94244H4.17993V3.93107H6.88297V2.94244ZM6.88297 8.73306V7.74443L5.04768 7.74472V8.73335L6.88297 8.73306ZM6.88297 22.1535H4.17993V23.1425H6.88297V22.1535ZM6.88297 18.3394V17.3507L5.04768 17.351V18.3397L6.88297 18.3394Z" fill="white"/>
</svg>
