<svg width="375" height="213" viewBox="0 0 375 213" fill="none" xmlns="http://www.w3.org/2000/svg">
<circle cx="86.5" cy="137.5" r="75.5" fill="#3F96DD"/>
<path d="M122.678 205.864V207.259H116.06L115.303 204.573L122.678 205.864Z" fill="#3F96DD"/>
<path d="M125.408 190.431C125.408 190.431 127.887 197.821 131.641 200.032C134.668 201.798 140.456 202.065 141.999 205.597C142.34 206.383 141.777 207.274 140.96 207.274H125.408C125.408 207.274 119.755 205.627 117.083 206.027C114.412 206.428 114.546 199.691 115.303 197.198C116.06 194.705 115.436 190.446 115.436 190.446H125.408V190.431Z" fill="#1B1B1F"/>
<path d="M49.2819 159.802H42.5596C40.393 159.802 38.6123 158.021 38.6123 155.855C38.6123 153.688 40.393 151.907 42.5596 151.907H49.2819C51.4485 151.907 53.2293 153.688 53.2293 155.855C53.2293 158.036 51.4634 159.802 49.2819 159.802Z" fill="#2E3038"/>
<path d="M47.0854 152.842H44.2065V199.705H47.0854V152.842Z" fill="#2E3038"/>
<path d="M58.8977 202.243C58.8384 202.243 58.7938 202.243 58.7345 202.228C46.848 199.513 33.2253 202.199 33.0917 202.228C32.7059 202.302 32.3201 202.05 32.2459 201.664C32.1717 201.278 32.4239 200.893 32.8098 200.818C32.9433 200.789 46.848 198.043 59.0461 200.818C59.4319 200.907 59.6694 201.293 59.5803 201.679C59.521 202.02 59.2242 202.243 58.8977 202.243Z" fill="#2E3038"/>
<path d="M35.9112 207.259C37.4848 207.259 38.7604 205.983 38.7604 204.41C38.7604 202.836 37.4848 201.56 35.9112 201.56C34.3376 201.56 33.062 202.836 33.062 204.41C33.062 205.983 34.3376 207.259 35.9112 207.259Z" fill="#2E3038"/>
<path d="M55.3512 207.259C56.9247 207.259 58.2004 205.983 58.2004 204.41C58.2004 202.836 56.9247 201.56 55.3512 201.56C53.7776 201.56 52.502 202.836 52.502 204.41C52.502 205.983 53.7776 207.259 55.3512 207.259Z" fill="#2E3038"/>
<path d="M28.4023 129.841C28.4023 129.841 29.7231 140.807 29.4263 145.482H35.0208C35.0208 145.482 35.2731 135.836 32.78 129.841C30.287 123.846 28.4023 129.841 28.4023 129.841Z" fill="#1B1B1F"/>
<path d="M19.3502 155.854H80.5634C80.5634 155.854 84.4069 149.384 74.5682 145.081C64.7296 140.777 46.9666 144.398 40.7192 143.078C34.4717 141.757 27.1558 140.985 18.074 145.749C13.0434 148.405 10.1497 155.854 19.3502 155.854Z" fill="#004976"/>
<path d="M34.1007 135.109C39.9327 134.708 52.8728 132.838 56.6123 127.689C61.0494 121.545 55.1581 78.11 37.4693 73.584C19.7805 69.0579 11.0252 79.7275 9.25926 88.0525C7.50819 96.3775 4.4364 124.439 8.81407 129.707C13.2066 134.975 20.8786 136.029 34.1007 135.109Z" fill="#004976"/>
<path d="M41.1935 116.93C41.1935 116.93 34.397 126.858 36.2965 138.047C38.1959 149.236 44.7105 147.411 53.2284 148.123C65.3524 149.147 78.0253 147.797 78.4112 150.408C79.0196 154.445 95.4173 148.984 95.4173 148.984C95.4173 148.984 114.353 139.813 112.557 134.99C108.001 122.673 54.2524 114.541 41.1935 116.93Z" fill="#2E3038"/>
<path d="M112.201 134.219C116.579 140.258 126.284 189.377 125.764 190.342C124.859 192.019 123.449 190.876 118.775 192.939C113.715 195.179 110.865 193.028 110.865 193.028C110.865 193.028 107.541 183.352 101.902 166.984C99.8841 161.108 97.6878 154.756 95.4619 148.331C88.0718 126.977 108.194 128.683 112.201 134.219Z" fill="#2E3038"/>
<path d="M100.79 140.837C103.223 147.856 102.645 169.091 102.645 169.091L91.5596 133.462C91.5596 133.462 99.009 135.702 100.79 140.837Z" fill="#1B1B1F"/>
<path d="M130.558 110.668C130.558 110.668 113.744 110.787 107.823 110.965C94.913 111.366 89.9863 110.312 89.9863 110.312C89.9863 110.312 78.6191 101.097 72.0601 75.4241C72.0601 75.4241 81.5129 69.8889 83.8724 72.1C87.5081 75.4983 98.1629 95.9917 100.181 97.7725C100.819 98.3364 120.541 104.584 128.866 100.681L130.558 110.668Z" fill="#F1997B"/>
<path d="M123.747 104.599C123.747 104.599 126.596 100.933 129.386 100.236C131.3 99.761 135.366 96.5853 135.885 96.7931C137.859 97.5351 133.318 100.755 134.105 101.601C134.639 102.18 141.628 102.091 143.617 102.195C144.67 102.254 146.169 103.412 142.667 104.139C141.851 104.302 140.248 104.48 139.269 104.821C138.646 105.044 138.215 105.43 139.566 105.623C141.257 105.86 146.807 105.652 146.54 106.929C146.303 107.997 138.423 107.448 138.378 108.68C138.349 109.333 144.967 110.119 144.893 111.009C144.759 112.389 139.462 111.173 137.058 111.618C134.505 112.093 139.625 114.244 139.224 114.986C138.809 115.773 137.251 114.808 134.416 113.562C131.983 112.479 128.302 112.924 126.447 111.781C124.607 110.638 123.747 104.599 123.747 104.599Z" fill="#F1997B"/>
<path d="M50.6283 26C50.6283 26 48.7942 25.6111 48 24C48 24 48.9643 24.8519 50.3069 24.9815C51.6494 25.0926 50.6283 26 50.6283 26Z" fill="black"/>
<path d="M71.4116 28C71.4116 28 72.4294 33.2475 71.7878 34.7942C71.1461 36.3408 69 28.6628 69 28.6628L71.4116 28Z" fill="black"/>
<path d="M94.2161 205.864V207.259H87.5976L86.8408 204.573L94.2161 205.864Z" fill="#3F96DD"/>
<path d="M96.946 190.431C96.946 190.431 99.4243 197.821 103.179 200.032C106.206 201.798 111.993 202.065 113.537 205.597C113.878 206.383 113.314 207.274 112.498 207.274H96.946C96.946 207.274 91.2922 205.627 88.6211 206.027C85.9499 206.428 86.0835 199.691 86.8403 197.198C87.5971 194.705 86.9739 190.446 86.9739 190.446H96.946V190.431Z" fill="#1B1B1F"/>
<path d="M99.0231 148.835C101.947 175.354 100.522 192.033 99.8393 192.879C98.6373 194.363 97.465 192.983 92.4937 194.141C87.107 195.402 84.703 192.775 84.703 192.775C84.703 192.775 83.219 182.655 80.6666 165.53C79.7465 159.386 78.7671 152.738 77.758 146.016C74.7753 126.042 96.4262 133.046 97.0346 138.255C97.2721 140.258 98.756 146.506 99.0231 148.835Z" fill="#2E3038"/>
<path d="M35.065 71.6401C35.1837 72.9905 35.8663 77.3088 36.6973 82.4136C36.8309 83.2595 36.9793 84.1202 37.1277 84.9957C38.5374 93.5136 40.1401 103.1 40.1846 104.599C40.3479 109.125 37.558 120.433 37.3651 123.371C37.3206 124.113 39.591 123.727 42.1138 123.593C44.8888 123.43 50.0381 125.552 57.5914 125.567C70.5761 125.612 75.2654 119.483 75.2654 119.483C73.8853 115.58 74.3156 110.282 74.9834 106.009C75.3247 103.886 80.5631 72.8273 80.5631 72.8273L77.0164 63.7009C60.4703 59.3232 42.2918 62.4396 42.2918 62.4396C42.2918 62.4396 34.3675 63.4635 35.065 71.6401Z" fill="#5FB1FA"/>
<path d="M56.3154 58.4865C56.3154 58.4865 56.5825 59.0207 57.0722 59.9259C57.3245 60.4156 57.651 61.0092 58.0368 61.7066C58.942 63.3538 60.144 65.4759 61.539 67.7612C65.605 74.439 71.2292 82.3782 75.3101 83.0608C76.0966 83.1943 69.4585 84.4509 73.9779 88.3173C81.7538 86.2991 85.9304 72.6979 83.5561 70.8133C77.7538 66.2131 80.5633 61.395 71.4369 60.5492C69.6414 60.3859 67.7419 59.9556 65.887 59.6885C62.4293 59.1988 59.1943 58.8129 57.5174 58.62C56.7606 58.531 56.3154 58.4865 56.3154 58.4865Z" fill="#5FB1FA"/>
<path d="M35.4215 86.6429C37.8551 85.2776 40.4818 84.1795 43.0638 83.7788C47.1596 83.1407 51.4185 74.9938 54.2825 68.1824C55.1284 66.1643 55.8704 64.2648 56.4343 62.7066C56.6717 62.0389 56.8943 61.4304 57.0724 60.9111C57.2505 60.3917 57.3989 59.9465 57.5176 59.6052C57.6956 59.0858 57.7847 58.8038 57.7847 58.8038C57.7847 58.8038 54.4013 59.6348 50.0681 60.5252C48.3912 60.8665 46.5808 61.2227 44.7555 61.5343C38.5081 62.6176 38.3003 66.1346 33.3142 71.5955C28.3281 77.0713 30.4502 89.403 35.4215 86.6429Z" fill="#5FB1FA"/>
<path d="M49.5783 60.2036C50.802 59.9368 51.7597 58.9229 51.9902 57.6245C52.4336 55.0099 53.0011 51.5237 53.3557 48.251C53.4621 47.3794 52.5932 44.0534 52.5577 44C52.6641 44.0356 66.2308 47.9842 64.5815 52.164C64.5106 52.3419 64.4396 52.5553 64.3864 52.751C63.9785 54.085 63.8544 55.7747 63.8544 57.4644C63.8544 58.4783 63.9253 59.4565 64.014 60.3281C64.9539 60.4526 65.9116 60.5771 66.9047 60.7194C67.082 61.4842 67.7914 71 59.6514 71C52.9833 71 48.2128 61.4308 48 60.5415C48.5143 60.417 49.0463 60.3103 49.5783 60.2036Z" fill="#F1997B"/>
<path d="M53.1866 47.0144C53.2799 47.6604 53 50.0599 53 50.7982C56.2286 57.2953 64.3281 56.9631 64.4401 57C64.4401 55.2465 64.5894 53.493 65 52.1087C61.8087 50.5398 54.9969 46.7375 53.1866 47.0144Z" fill="#ED938B"/>
<path d="M54.0378 51.3429C54.5835 53.0939 60.5503 54.4983 62.9516 54.7719C64.5342 54.9543 66.9537 55.3373 68.2998 54.3524C69.4459 53.5316 72.6476 46.4548 71.8835 42.8252C71.738 42.1138 71.5379 39.1591 71.829 37.1528C72.3019 33.8332 70.0826 28.3614 70.0826 28.3614C60.9687 21.5946 53.0009 31.152 52.346 34.8181C51.6729 38.5025 51.8548 44.3026 54.0378 51.3429Z" fill="#F1997B"/>
<path d="M62 47C62.6667 47.7546 64.8 48.8111 68 47H62Z" fill="white"/>
<path d="M58.4282 35.9478C58.0333 36.1153 57.8538 35.8501 58.141 35.5709C58.8051 34.8869 59.6846 34.1331 62.5745 34.0075C65.2849 33.8958 65.608 35.0684 64.1182 35.2917C62.8079 35.4732 61.1026 34.7892 58.4282 35.9478Z" fill="black"/>
<path d="M71.414 36.9683C71.619 37.187 72.0663 36.2151 71.9917 35.8263C71.824 34.9029 71.2649 33.931 69.6809 34.0039C67.9477 34.0768 67.575 35.316 68.4695 35.5104C69.2523 35.6319 70.1095 35.559 71.414 36.9683Z" fill="black"/>
<path d="M68.2077 38.848C68.4909 38.6263 69.0416 38.2357 69.671 38.2146C69.8127 38.204 69.9543 38.2146 70.0959 38.2463C70.3476 38.299 70.6623 38.4996 70.9928 38.6368C71.1186 38.6896 69.5766 37.2223 68.3178 38.5735C68.2706 38.6157 68.2392 38.6685 68.192 38.7213C68.1447 38.7846 68.0975 38.8374 68.0503 38.9113C67.9402 39.0697 68.0189 38.9958 68.2077 38.848Z" fill="black"/>
<path d="M68 38.6756C68 38.7335 68 39.0037 68.0671 39.2546C68.1006 39.4283 68.218 39.6406 68.3857 39.795C68.6037 39.9688 69.0061 40.0653 69.2409 39.9494C69.4924 39.8529 69.7104 39.7178 69.8614 39.4669C70.0291 39.1581 70.0626 38.637 69.8614 38.3474C69.7943 38.2509 69.7272 38.1737 69.6937 38.0965C69.6601 38.0386 69.6266 38 69.6266 38L68.872 38.1737L68.4695 38.193L68.3186 38.2316L68.218 38.4246C68.1677 38.5211 68.0335 38.579 68 38.6756Z" fill="black"/>
<path d="M60 38.9153C60 39.5085 60.6639 40 61.5 40C62.3361 40 63 39.5085 63 38.9153C63 38.7119 62.9262 38.5424 62.8033 38.3729C62.6803 38.2203 62.5082 38.0847 62.3115 38C61.7459 38 61.2049 38 60.6639 38.017C60.3689 38.1695 60.1475 38.3898 60.0492 38.6441C60 38.7458 60 38.8305 60 38.9153Z" fill="black"/>
<path d="M58.0177 38.7978C57.8495 39.1165 58.8757 37.9886 61.2308 38.3441C61.8028 38.43 62.3915 38.6997 62.8626 38.9694C63.0308 39.0675 63.0476 38.9081 62.8962 38.7978C62.3243 38.3809 61.7691 38.0744 60.8607 38.0131C59.2962 37.8905 58.085 38.6629 58.0177 38.7978Z" fill="black"/>
<path d="M67.0782 37.625C66.3132 38.0163 65.9575 38.8702 65.9575 39.7241C65.9575 40.6847 66.4378 41.5386 66.9537 42.2857C67.3094 42.8016 68.1811 43.5843 67.8609 44.2959C67.7186 44.6161 67.3628 44.7762 67.0782 44.9007C66.669 45.0964 66.2599 45.2209 65.8152 45.3099C65.6906 45.3276 65.6373 45.132 65.7618 45.0964C66.2421 44.9897 66.7224 44.8473 67.1671 44.6161C67.5407 44.4204 67.8253 44.1536 67.6474 43.6733C67.5585 43.4242 67.3984 43.2107 67.2383 43.0151C66.7402 42.3569 66.2421 41.6809 65.9575 40.8982C65.5127 39.6707 65.7262 38.0341 66.9537 37.4115C67.096 37.3759 67.1849 37.5538 67.0782 37.625Z" fill="black"/>
<path d="M67.0435 50.9312C66.3675 50.6822 65.6737 50.6644 64.9799 50.8956C64.7309 50.9846 64.6241 50.5754 64.8732 50.4865C65.6203 50.2374 66.4031 50.2552 67.1502 50.5221C67.3815 50.611 67.2747 51.0202 67.0435 50.9312Z" fill="black"/>
<path d="M47.1497 39.9859C48.4033 44.6145 53.1847 47 53.1847 47C52.737 44.116 52.5221 38.1522 53.1847 38.17C53.8653 38.1878 55.674 40.3241 55.5128 39.2738C55.3337 38.2235 54.3309 36.6568 55.6561 34.3781C56.9813 32.0994 55.8351 29.3045 55.8351 29.3045C55.8351 29.3045 55.853 29.3045 55.871 29.3223H55.8889C56.1217 29.4291 56.4082 29.5181 56.6947 29.6071C56.6947 29.6071 56.6947 29.6071 56.7126 29.6071C57.5006 29.8208 58.4676 29.9454 59.5063 29.9988C60.4196 30.0522 61.3866 30.0344 62.3358 29.981C63.3565 29.9276 64.3594 29.8208 65.2548 29.6783C66.1144 29.5359 66.8665 29.3757 67.4754 29.1799C67.8515 29.0731 68.1738 28.984 68.4603 28.9484C68.6931 28.9128 68.8901 28.895 69.0692 28.895C70.3586 28.9128 70.5198 29.7139 70.5198 29.7139C72.4717 26.9546 72.0957 25.1031 71.6121 23.3585C70.7705 20.2609 68.3171 18.7655 68.3171 18.7655C67.6724 19.8692 66.4009 20.0473 66.4009 20.0473C66.4904 19.7802 66.5442 19.5488 66.5621 19.3174C66.6337 18.5697 66.4009 18.0534 66.3651 18C66.3651 18 63.7505 20.4923 57.4469 19.7624C48.851 18.7655 48.9764 25.1031 48.9764 25.1031C44.75 27.6311 45.8962 35.3751 47.1497 39.9859Z" fill="black"/>
<path d="M55.2307 40.5247C55.2307 40.5247 53.1849 37.2159 51.2459 38.7102C49.3247 40.2045 51.2993 42.9795 52.0287 44.0291C52.8292 45.1676 53.2739 45.1676 54.6792 44.8118C56.1023 44.456 55.2307 40.5247 55.2307 40.5247Z" fill="#F1997B"/>
<path d="M54.7859 44.545C54.3234 45.3811 53.2561 45.3277 52.5801 44.8118C52.171 44.4916 51.8685 44.0291 51.6017 43.5666C51.2815 43.0151 50.9613 42.4459 50.7478 41.8588C50.3743 40.8449 50.1964 39.4751 51.1214 38.728C52.0286 37.9986 53.2383 38.3366 53.9676 39.1549C54.0566 39.2616 53.9143 39.4217 53.8076 39.315C53.1316 38.5501 51.9575 38.2121 51.157 38.977C50.3387 39.7597 50.6589 41.1117 51.0502 42.0189C51.3882 42.8017 51.833 43.6733 52.4022 44.3137C52.9537 44.9186 54.0922 45.3455 54.5903 44.4205C54.6792 44.3137 54.8571 44.4205 54.7859 44.545Z" fill="black"/>
<path d="M52.5628 39.3862C52.883 39.5285 53.2032 39.7242 53.3989 40.0444C53.6124 40.418 53.5412 40.7204 53.4345 41.1117C53.2388 41.8411 53.9504 42.0012 54.2884 42.4637C54.4841 42.7305 54.5374 43.0507 54.3773 43.3532C54.3062 43.4777 54.1105 43.3709 54.1816 43.2464C54.573 42.5526 53.2566 42.1613 53.1499 41.5209C53.0965 41.254 53.2388 41.0762 53.2922 40.8271C53.4345 40.2401 52.9542 39.8309 52.4917 39.6352C52.3671 39.5463 52.4205 39.315 52.5628 39.3862Z" fill="black"/>
<path d="M49 25.2034C50.3569 28.0625 55.9653 29.2928 55.9653 29.2928C55.9653 29.2928 55.9834 29.2928 56.0015 29.3101H56.0196C56.1281 29.3448 56.4176 29.4488 56.8337 29.5874C56.8337 29.5874 56.8337 29.5874 56.8518 29.5874C57.6478 29.7953 58.6248 29.9166 59.6741 29.9686C60.5967 30.0206 61.5737 30.0033 62.5325 29.9513C63.5638 29.8993 64.5769 29.7953 65.4815 29.6567C66.3499 29.5181 67.0916 29.2928 67.7249 29.1715C70.5833 28.6517 67.743 24.4583 67.743 24.4583C66.8022 25.9485 65.3368 26.1391 65.3368 26.1391C66.3318 24.5796 64.794 22.7428 64.794 22.7428C63.2924 25.4807 60.452 23.8172 60.452 23.8172C60.452 23.8172 61.9355 23.4879 62.7316 22.3443C63.9799 20.5422 63.0391 19 63.0391 19C63.0391 19 61.6099 20.6808 57.6116 20.0223C49 18.6015 49 25.2034 49 25.2034Z" fill="black"/>
<path d="M62 19C62 19 60.7418 21.1127 58.1314 20.9953L58 20.3889C58 20.4084 60.1972 20.4084 62 19Z" fill="black"/>
<path d="M67 19C67 19 66.875 20.6364 66 21V20.4876C66 20.4876 66.6111 20.1736 67 19Z" fill="black"/>
<path d="M68.7638 25C68.7638 25 69.6462 28.6757 68 29L68.158 27.6718C68.158 27.6718 68.935 26.8378 68.7638 25Z" fill="black"/>
<path d="M65.9086 23C65.9086 23 66.3997 25.9345 65.105 26.7385C63.8104 27.5425 64.0113 26.236 64.0113 26.236C64.0113 26.236 65.6854 25.4119 65.9086 23Z" fill="black"/>
<path d="M52.4121 129.826C52.4121 129.826 40.5256 124.973 35.0201 121.887C28.0159 117.969 26.1609 115.699 23.7569 113.725C21.3232 111.737 20.5367 110.297 20.5367 110.297C20.5367 110.297 17.3165 89.2843 37.3203 66.5204L48.6429 78.0507C48.6429 78.0507 34.1891 101.839 35.8511 103.961C43.6271 113.844 50.7798 121.768 56.8195 123.104L52.4121 129.826Z" fill="#F1997B"/>
<path d="M75.8443 148.969C78.6786 149.726 81.6317 149.577 84.377 148.509C84.5403 148.45 84.4661 148.182 84.3028 148.242C81.6169 149.295 78.7083 149.459 75.9185 148.702C75.7404 148.657 75.6662 148.924 75.8443 148.969Z" fill="#1B1B1F"/>
<path d="M80.4 150.394C79.3761 150.097 78.4412 149.637 77.5953 148.984C77.4617 148.88 77.3134 149.117 77.4617 149.221C78.3224 149.874 79.287 150.349 80.3258 150.646C80.5039 150.705 80.5781 150.453 80.4 150.394Z" fill="#1B1B1F"/>
<path d="M80.0888 124.246C79.703 125.077 79.4507 125.938 79.3468 126.843C79.332 126.947 79.4656 127.006 79.5546 126.962C80.4153 126.502 81.3205 126.175 82.2702 125.997C82.4483 125.968 82.3741 125.701 82.196 125.73C81.2166 125.923 80.2966 126.25 79.4062 126.724C79.4804 126.769 79.5398 126.799 79.614 126.843C79.7178 125.982 79.9404 125.166 80.3114 124.395C80.4005 124.231 80.163 124.098 80.0888 124.246Z" fill="#1B1B1F"/>
<path d="M100.27 162.31C100.21 162.31 100.166 162.265 100.166 162.206C100.151 162.058 99.2902 146.565 96.9455 138.299C95.788 134.248 82.937 129.559 77.4612 127.734C75.814 127.185 74.9088 126.279 74.8791 126.25C74.8346 126.205 74.8346 126.131 74.8791 126.101C74.9236 126.057 74.9978 126.057 75.0275 126.101C75.0423 126.116 75.9327 127.006 77.5205 127.541C80.5775 128.565 85.0442 130.167 89.0064 132.052C93.9034 134.367 96.6487 136.459 97.1533 138.27C99.5128 146.55 100.373 162.058 100.388 162.221C100.373 162.25 100.329 162.31 100.27 162.31Z" fill="#1B1B1F"/>
<path d="M104.054 163.972C105.746 165.931 107.23 168.038 108.506 170.279C108.595 170.427 108.833 170.294 108.744 170.145C107.453 167.89 105.939 165.767 104.247 163.794C104.128 163.645 103.936 163.838 104.054 163.972Z" fill="#1B1B1F"/>
<path d="M105.864 167.756C106.117 168.661 106.295 169.566 106.384 170.501C106.399 170.679 106.681 170.679 106.651 170.501C106.562 169.552 106.384 168.602 106.117 167.682C106.087 167.519 105.82 167.593 105.864 167.756Z" fill="#1B1B1F"/>
<path d="M70.4723 126.784C67.4005 126.888 64.3287 127.11 61.2717 127.422C61.0937 127.437 61.0937 127.719 61.2717 127.689C64.3287 127.377 67.4005 127.17 70.4723 127.051C70.6503 127.051 70.6503 126.769 70.4723 126.784Z" fill="#1B1B1F"/>
<path d="M70.2942 127.095C67.5638 127.823 64.952 128.906 62.5183 130.316C62.3699 130.405 62.5035 130.642 62.6519 130.553C65.0707 129.143 67.6528 128.075 70.3684 127.348C70.5317 127.318 70.4575 127.051 70.2942 127.095Z" fill="#1B1B1F"/>
<path d="M44.3247 130.746C44.3247 131.087 44.3247 131.429 44.3247 131.77C44.3247 131.948 44.5918 131.948 44.5918 131.77C44.5918 131.429 44.5918 131.087 44.5918 130.746C44.6067 130.568 44.3247 130.568 44.3247 130.746Z" fill="#1B1B1F"/>
<path d="M44.7403 134.589C44.8887 135.168 45.0371 135.762 45.1707 136.341C45.2152 136.519 45.4823 136.444 45.4378 136.266C45.2894 135.688 45.141 135.094 45.0074 134.515C44.9629 134.352 44.6958 134.426 44.7403 134.589Z" fill="#1B1B1F"/>
<path d="M47.0256 138.329C47.6044 138.715 48.198 139.116 48.7767 139.501C48.9251 139.605 49.0586 139.368 48.9102 139.264C48.3315 138.878 47.7379 138.477 47.1592 138.092C47.0108 137.988 46.8772 138.225 47.0256 138.329Z" fill="#1B1B1F"/>
<path d="M51.151 140.362C51.611 140.436 52.0265 140.585 52.4272 140.822C52.5756 140.911 52.724 140.674 52.5608 140.585C52.1453 140.347 51.7001 140.184 51.2252 140.095C51.062 140.065 50.9878 140.318 51.151 140.362Z" fill="#1B1B1F"/>
<path d="M56.0183 141.089C56.5525 141.149 57.0868 141.208 57.621 141.267C57.7991 141.282 57.7991 141.015 57.621 141C57.0868 140.941 56.5525 140.881 56.0183 140.822C55.8402 140.792 55.8402 141.074 56.0183 141.089Z" fill="#1B1B1F"/>
<path d="M61.1233 141.401C61.4646 141.401 61.8059 141.401 62.1472 141.401C62.3253 141.401 62.3253 141.134 62.1472 141.134C61.8059 141.134 61.4646 141.134 61.1233 141.134C60.9452 141.134 60.9452 141.401 61.1233 141.401Z" fill="#1B1B1F"/>
<path d="M65.219 141.549C65.6642 141.549 66.0945 141.549 66.5397 141.549C66.7178 141.549 66.7178 141.282 66.5397 141.282C66.0945 141.282 65.6642 141.282 65.219 141.282C65.0409 141.282 65.0409 141.549 65.219 141.549Z" fill="#1B1B1F"/>
<path d="M70.0422 141.549C70.4874 141.549 70.9178 141.549 71.363 141.549C71.541 141.549 71.541 141.282 71.363 141.282C70.9178 141.282 70.4874 141.282 70.0422 141.282C69.8642 141.282 69.8642 141.549 70.0422 141.549Z" fill="#1B1B1F"/>
<path d="M74.0191 141.534C74.212 141.49 74.4049 141.431 74.5978 141.386C74.7759 141.341 74.7017 141.074 74.5236 141.119C74.3307 141.163 74.1378 141.223 73.9449 141.267C73.7668 141.312 73.841 141.579 74.0191 141.534Z" fill="#1B1B1F"/>
<path d="M76.7644 141.267C77.0018 141.267 77.2541 141.267 77.4916 141.267C77.6696 141.267 77.6696 141 77.4916 141C77.2541 141 77.0018 141 76.7644 141C76.5863 140.985 76.5863 141.267 76.7644 141.267Z" fill="#1B1B1F"/>
<path d="M79.717 141.564C79.9396 141.505 80.1473 141.549 80.3402 141.683C80.4886 141.787 80.6222 141.549 80.4738 141.445C80.2215 141.282 79.9247 141.238 79.6279 141.297C79.4795 141.341 79.5537 141.594 79.717 141.564Z" fill="#1B1B1F"/>
<path d="M82.8929 142.291C83.2491 142.336 83.5756 142.529 83.7981 142.811C83.902 142.944 84.1395 142.811 84.0356 142.677C83.7536 142.306 83.3678 142.084 82.8929 142.024C82.7297 141.994 82.7297 142.262 82.8929 142.291Z" fill="#1B1B1F"/>
<path d="M85.2818 143.998C85.4302 144.146 85.5786 144.294 85.727 144.443C85.8457 144.562 86.0387 144.369 85.9199 144.25C85.7715 144.102 85.6231 143.953 85.4747 143.805C85.356 143.686 85.1631 143.879 85.2818 143.998Z" fill="#1B1B1F"/>
<path d="M86.4542 146.743C86.5878 146.98 86.6174 147.248 86.5581 147.515C86.5284 147.693 86.7807 147.767 86.8252 147.589C86.8994 147.248 86.8549 146.906 86.6916 146.595C86.6026 146.446 86.3652 146.58 86.4542 146.743Z" fill="#1B1B1F"/>
<path d="M86.8555 149.607C86.8555 149.8 86.8555 149.993 86.8555 150.186C86.8555 150.364 87.1226 150.364 87.1226 150.186C87.1226 149.993 87.1226 149.8 87.1226 149.607C87.1226 149.429 86.8555 149.429 86.8555 149.607Z" fill="#1B1B1F"/>
<path d="M86.1282 153.258C86.0688 153.792 86.0243 154.326 85.965 154.86C85.9501 155.038 86.2172 155.038 86.2321 154.86C86.2914 154.326 86.3359 153.792 86.3953 153.258C86.425 153.08 86.143 153.08 86.1282 153.258Z" fill="#1B1B1F"/>
<path d="M85.9795 157.487C85.9795 158.066 85.9795 158.659 85.9795 159.238C85.9795 159.416 86.2466 159.416 86.2466 159.238C86.2466 158.659 86.2466 158.066 86.2466 157.487C86.2466 157.309 85.9795 157.309 85.9795 157.487Z" fill="#1B1B1F"/>
<path d="M86.4699 162.058C86.5441 162.547 86.6183 163.037 86.6776 163.527C86.7073 163.705 86.9596 163.63 86.9447 163.452C86.8705 162.963 86.7963 162.473 86.737 161.983C86.7073 161.805 86.455 161.879 86.4699 162.058Z" fill="#1B1B1F"/>
<path d="M87.3155 166.91C87.4639 167.251 87.6122 167.593 87.7606 167.934C87.8348 168.097 88.0723 167.949 87.9981 167.8C87.8497 167.459 87.7013 167.118 87.5529 166.777C87.4787 166.613 87.2413 166.747 87.3155 166.91Z" fill="#1B1B1F"/>
<path d="M88.3096 171.228C88.3096 171.421 88.3096 171.614 88.3096 171.807C88.3096 171.985 88.5767 171.985 88.5767 171.807C88.5767 171.614 88.5767 171.421 88.5767 171.228C88.5915 171.05 88.3096 171.05 88.3096 171.228Z" fill="#1B1B1F"/>
<path d="M89.3484 175.725C89.2891 176.125 89.3484 176.496 89.4968 176.853C89.571 177.016 89.8085 176.867 89.7343 176.719C89.6155 176.422 89.571 176.111 89.6155 175.799C89.6304 175.621 89.3781 175.547 89.3484 175.725Z" fill="#1B1B1F"/>
<path d="M89.6304 179.999C89.6304 180.147 89.6304 180.295 89.6304 180.444C89.6304 180.622 89.8975 180.622 89.8975 180.444C89.8975 180.295 89.8975 180.147 89.8975 179.999C89.9123 179.82 89.6304 179.82 89.6304 179.999Z" fill="#1B1B1F"/>
<path d="M90.209 184.094C90.209 184.584 90.209 185.074 90.209 185.549C90.209 185.727 90.4761 185.727 90.4761 185.549C90.4761 185.059 90.4761 184.569 90.4761 184.094C90.4909 183.916 90.209 183.916 90.209 184.094Z" fill="#1B1B1F"/>
<path d="M90.6839 189.095C90.7285 189.333 90.7878 189.585 90.8323 189.822C90.862 190 91.1291 189.926 91.0994 189.748C91.0549 189.511 90.9956 189.258 90.951 189.021C90.9214 188.843 90.6543 188.917 90.6839 189.095Z" fill="#1B1B1F"/>
<path d="M90.9512 192.716C90.9512 192.761 90.9512 192.82 90.9512 192.864C90.9512 193.043 91.2183 193.043 91.2183 192.864C91.2183 192.82 91.2183 192.761 91.2183 192.716C91.2183 192.538 90.9512 192.538 90.9512 192.716Z" fill="#1B1B1F"/>
<path d="M44.7554 61.5491C44.7554 61.5491 38.8493 62.3207 35.2581 66.0158C33.0173 68.3159 28.328 76.4332 26.1763 80.6179C26.1763 80.6179 32.2902 90.5456 45.0819 89.1804C50.5874 88.5868 51.5074 78.5997 51.5074 78.5997L44.7554 61.5491Z" fill="#5FB1FA"/>
<path d="M80.3554 79.1636C79.0198 81.7457 78.1443 84.5207 77.7288 87.3996C77.7139 87.5331 77.9217 87.5925 77.9365 87.4589C78.3372 84.5949 79.2127 81.8496 80.5335 79.2675C80.6225 79.1488 80.4296 79.0449 80.3554 79.1636Z" fill="#00214E"/>
<path d="M58.4674 96.6299C60.2333 99.7165 62.9786 102.091 66.3027 103.382C66.4362 103.426 66.4956 103.219 66.362 103.174C63.0973 101.913 60.3965 99.5681 58.6603 96.526C58.5861 96.3924 58.3932 96.4963 58.4674 96.6299Z" fill="#00214E"/>
<path d="M59.4022 100.592C60.5893 103.426 62.1623 106.068 64.0915 108.487C64.1805 108.591 64.3289 108.442 64.2399 108.338C62.3404 105.964 60.7822 103.352 59.6099 100.548C59.5506 100.414 59.3428 100.459 59.4022 100.592Z" fill="#00214E"/>
<path d="M41.2974 89.2398C41.6833 89.314 42.084 89.3882 42.4698 89.4624C42.6924 89.5069 43.1376 89.6701 43.375 89.5811C43.7015 89.4475 43.8647 89.0469 44.0428 88.7798C45.0519 87.3106 46.1797 85.9306 47.3965 84.6395C47.5004 84.5356 47.3372 84.3872 47.2481 84.4911C46.3726 85.4112 45.5564 86.3906 44.7847 87.3997C44.4138 87.8894 44.117 88.5126 43.6866 88.943C43.5531 89.2991 43.2563 89.4178 42.8259 89.314C42.722 89.2991 42.633 89.2695 42.5291 89.2546C42.1433 89.2101 41.7426 89.1062 41.3568 89.032C41.2233 89.0023 41.1639 89.2249 41.2974 89.2398Z" fill="#00214E"/>
<path d="M74.7466 125.433C74.3311 123.964 65.2048 121.961 63.4092 121.902C61.4504 121.842 53.5854 123.43 53.5854 123.43L52.4131 129.826C52.4131 129.826 60.8123 132.304 64.2551 131.518C64.7151 131.414 65.9171 134.53 66.6739 134.278C67.0894 134.144 66.2584 131.265 65.9616 129.796C65.9319 129.618 66.1397 129.485 66.2732 129.603C67.8462 130.924 69.5676 134.575 70.6658 134.159C70.9032 134.07 70.2502 131.814 69.8941 130.375C69.7012 129.603 68.8553 128.49 68.1134 127.615C68.054 127.541 68.143 127.452 68.2172 127.496C69.1076 128.016 70.087 128.876 70.5619 129.455C71.3929 130.449 73.233 133.284 74.6724 133.15C75.266 133.091 73.0698 129.425 72.3575 127.852C72.2387 127.6 72.031 127.318 71.749 127.036C71.6897 126.977 71.7639 126.888 71.8232 126.932C72.402 127.259 72.862 127.556 73.0252 127.734C74.5092 129.321 76.1564 131.592 77.6107 131.176C77.9965 131.058 74.9099 126.042 74.7466 125.433Z" fill="#F1997B"/>
<path d="M55.9443 122.807C54.8313 123.104 53.837 123.697 53.0654 124.558C52.9764 124.662 53.1248 124.81 53.2286 124.706C53.9854 123.875 54.9203 123.297 56.0036 123.015C56.1372 122.985 56.0778 122.777 55.9443 122.807Z" fill="black"/>
<path d="M67.1188 126.487C67.5788 127.007 68.0537 127.481 68.573 127.941C68.6769 128.03 68.8253 127.882 68.7214 127.778C68.2021 127.333 67.7272 126.843 67.2672 126.324C67.1781 126.22 67.0297 126.383 67.1188 126.487Z" fill="black"/>
<path d="M70.9771 126.294C71.2738 126.546 71.5706 126.799 71.8823 127.066C71.9861 127.155 72.1494 127.006 72.0307 126.903C71.7339 126.65 71.4371 126.398 71.1255 126.131C71.0216 126.042 70.8583 126.19 70.9771 126.294Z" fill="black"/>
<path d="M65.5161 128.891C65.7535 129.262 66.0206 129.589 66.3471 129.87C66.451 129.959 66.5994 129.811 66.4955 129.707C66.1839 129.425 65.9168 129.114 65.709 128.757C65.62 128.654 65.4271 128.772 65.5161 128.891Z" fill="black"/>
<path d="M166.677 117.668H82.3047C81.7933 117.668 81.3789 116.101 81.3789 114.168C81.3789 112.235 81.7933 110.668 82.3047 110.668H166.677C167.188 110.668 167.603 112.235 167.603 114.168C167.612 116.101 167.197 117.668 166.677 117.668Z" fill="#004976"/>
<path d="M169.763 117.668H102.672C102.161 117.668 101.747 116.101 101.747 114.168C101.747 112.235 102.161 110.668 102.672 110.668H169.763C170.274 110.668 170.689 112.235 170.689 114.168C170.689 116.101 170.274 117.668 169.763 117.668Z" fill="#004976"/>
<path d="M76.5 90C76.5 90 84.5 86.5 90.5 80.5L99.5 96.5C99.5 96.5 95.2247 100 84 104.5L76.5 90Z" fill="#004976"/>
<g filter="url(#filter0_dd_2029_35771)">
<rect x="87.1392" y="78.1512" width="4.94734" height="21.9686" rx="2.47367" transform="rotate(-29.9391 87.1392 78.1512)" fill="white"/>
</g>
<path d="M27.393 102.818C30.346 102.269 33.3733 102.759 35.9999 104.213C36.1038 104.272 36.1928 104.109 36.089 104.05C33.4178 102.581 30.3461 102.091 27.3336 102.64C27.2297 102.655 27.2743 102.833 27.393 102.818Z" fill="black"/>
<path opacity="0.4" d="M42.8264 107.314C42.8264 107.314 52.1753 115.357 59.0609 115.268C65.9465 115.179 65.9019 115.476 65.0858 116.5C64.2696 117.539 57.1911 119.898 55.0245 119.201C52.858 118.533 41.0605 106.825 42.8264 107.314Z" fill="#00214E"/>
<path opacity="0.4" d="M60.9897 120.507C60.9897 120.507 67.9495 119.587 68.7657 118.414C69.5818 117.257 71.5852 114.007 72.06 114.69C72.5349 115.372 71.9116 119.512 70.6948 120.492C69.478 121.471 59.6542 120.7 60.9897 120.507Z" fill="#00214E"/>
<circle cx="71.9852" cy="71.9852" r="71.9852" transform="matrix(-0.964129 -0.265433 -0.265433 0.964129 340.554 39.9576)" fill="#E8F1FF"/>
<path d="M263.274 78.7877C290.872 74.4336 306.979 74.7061 310.859 74.1006C314.106 73.6062 317.415 73.0244 320.167 71.2374C324.116 68.6267 326.455 63.6161 331.004 62.2413C332.347 61.8135 333.799 61.7882 335.22 61.8066C338.56 61.8327 341.914 62.1628 345.233 62.7291C346.14 62.8762 347.098 63.0911 347.909 63.5617C349.026 64.2469 349.725 65.3888 350.523 66.4368C351.659 67.8851 353.073 69.1696 354.658 70.1175C355.644 70.7107 356.741 71.2843 357.265 72.3037C357.789 73.323 357.172 75.0414 356.004 74.9401C356.309 76.4579 354.469 77.548 354.086 79.0719C353.978 79.5507 353.995 80.0843 353.962 80.5501C353.88 83.1326 351.578 85.3004 349.109 86.0795C349.345 89.6025 347.952 93.4504 344.889 95.2153C342.839 96.419 340.416 96.8067 338.067 97.1813C334.708 97.6953 331.237 98.2289 327.916 97.433C323.755 96.4398 320.21 93.4986 316.001 92.6672C311.556 91.8006 282.564 101.957 267.487 104.493C266.717 98.1514 264.038 85.0926 263.274 78.7877Z" fill="#FFB998"/>
<path d="M312.088 76.7984C311.826 75.3859 311.942 73.6105 313.095 72.5949C313.252 72.4406 313.525 72.6078 313.46 72.8178C312.991 74.0957 312.532 75.2547 312.785 76.6304C312.818 77.0886 312.157 77.2477 312.088 76.7984Z" fill="#CE643A"/>
<path d="M312.97 90.1368C312.51 88.2281 312.858 86.1251 314.271 84.7363C314.465 84.5732 314.756 84.8138 314.608 85.0048C313.66 86.5532 313.088 88.2057 313.411 90.0307C313.481 90.3244 313.041 90.4304 312.97 90.1368Z" fill="#CE643A"/>
<path d="M340.756 88.2998C338.8 87.9165 336.601 87.0092 335.295 85.4595C335.132 85.2657 335.364 84.9381 335.601 85.1141C336.401 85.698 337.092 86.3083 337.985 86.7923C338.924 87.3041 339.892 87.6146 340.916 87.8341C341.199 87.8824 341.085 88.3759 340.756 88.2998Z" fill="#CE643A"/>
<path d="M335.432 85.6986C333.524 85.0319 331.588 84.4108 329.672 83.7075C328.732 83.3514 327.473 82.8003 327.547 81.6564C327.539 81.4641 327.769 81.4478 327.877 81.5769C328.827 82.9402 330.151 83.2813 331.639 83.8161C332.954 84.2762 334.277 84.7729 335.555 85.2418C335.892 85.3546 335.733 85.8202 335.432 85.6986Z" fill="#CE643A"/>
<path d="M344.384 83.8539C342.239 83.0112 340.42 81.5854 338.257 80.825C335.756 79.9518 333.158 79.6454 330.571 79.2201C330.37 79.1909 330.381 78.9163 330.574 78.9088C332.998 79.1404 335.44 79.4455 337.796 80.1984C340.234 80.9704 342.161 82.5253 344.496 83.5161C344.706 83.582 344.594 83.9198 344.384 83.8539Z" fill="#CE643A"/>
<path d="M338.819 89.9309C338.111 89.2471 337.435 88.0508 337.855 87.0564C337.911 86.9653 338.058 86.9299 338.093 87.0767C338.295 88.0766 338.334 88.8828 339.106 89.6678C339.333 89.8071 339.019 90.1158 338.819 89.9309Z" fill="#CE643A"/>
<path d="M345.299 80.5657C345.908 80.0307 346.363 79.3387 346.562 78.5529C346.789 77.7216 346.576 76.9964 346.455 76.1712C346.41 75.9877 346.659 75.8891 346.739 76.0638C347.688 77.5829 346.826 79.8097 345.571 80.8885C345.405 81.0061 345.106 80.7288 345.299 80.5657Z" fill="#CE643A"/>
<path d="M349.108 76.543C346.846 73.4379 342.812 74.0987 339.469 74.2436C337.664 74.3287 335.589 73.9352 333.872 74.5429C332.008 75.186 331.005 76.8253 330.64 78.6991C330.583 78.9458 330.144 78.8962 330.193 78.6128C330.371 77.0945 331.114 75.8283 332.367 74.9053C334.247 73.5207 336.322 73.9141 338.511 73.8141C342.358 73.6644 346.926 72.642 349.55 76.2814C349.649 76.5294 349.271 76.7367 349.108 76.543Z" fill="#CE643A"/>
<path d="M334.314 78.3189C333.674 77.1138 333.835 75.5218 335.096 74.7911C335.27 74.7102 335.397 74.9127 335.276 75.0582C334.591 75.9222 334.178 77.109 334.59 78.1748C334.671 78.3495 334.404 78.5303 334.314 78.3189Z" fill="#CE643A"/>
<path d="M335.545 85.2058C335.478 84.4449 335.604 83.6766 336.158 83.0769C336.288 82.9681 336.442 83.1251 336.395 83.253C336.069 83.8364 335.835 84.4755 335.884 85.1629C335.846 85.3275 335.543 85.3615 335.545 85.2058Z" fill="#CE643A"/>
<path d="M336.263 73.19C335.964 72.7569 335.868 72.1973 335.937 71.6758C335.995 71.2732 336.23 70.6341 336.707 70.5191C336.817 70.4926 336.963 70.613 336.916 70.7408C336.812 71.1154 336.517 71.3419 336.422 71.7532C336.335 72.2013 336.433 72.6052 336.677 72.9737C336.812 73.2131 336.398 73.4293 336.263 73.19Z" fill="#CE643A"/>
<path d="M351.136 72.7147C347.928 73.0989 344.699 72.7504 341.735 71.4062C338.908 70.1456 337.651 68.3127 337.412 65.2251C337.396 64.9961 337.744 64.9899 337.788 65.1734C338.142 66.6414 338.312 68.1536 339.437 69.2804C340.463 70.3148 342.078 70.8965 343.393 71.3565C345.885 72.193 348.474 72.4627 351.058 72.2288C351.324 72.2036 351.393 72.6529 351.136 72.7147Z" fill="#CE643A"/>
<path d="M345.669 68.5569C345.631 67.5948 346.087 66.7469 346.88 66.1675C347.147 65.9866 347.364 66.4007 347.096 66.5816C346.461 67.0066 346.06 67.7634 346.054 68.5419C346.079 68.8078 345.694 68.8227 345.669 68.5569Z" fill="#CE643A"/>
<path d="M333.042 70.937C332.42 70.776 331.818 70.5327 331.272 70.1983C330.779 69.9284 330.187 69.5662 329.908 69.0509C329.845 68.9497 329.956 68.7675 330.084 68.8144C330.595 69.002 331.04 69.3996 331.487 69.6416C332.025 69.9392 332.59 70.1914 333.212 70.3525C333.558 70.502 333.379 71.0498 333.042 70.937Z" fill="#CE643A"/>
<path d="M331.637 75.5858C330.866 73.6747 331.479 71.7023 333.165 70.4809C335.256 69.0066 338.102 69.2145 340.318 70.1951C340.573 70.2889 340.47 70.6634 340.186 70.6151C338.488 70.0144 336.735 69.5048 334.926 70.0567C332.604 70.7324 331.11 73.0725 331.986 75.424C332.122 75.6632 331.727 75.7971 331.637 75.5858Z" fill="#CE643A"/>
<path d="M330.85 80.8617C330.982 80.4416 331.096 79.9481 330.852 79.5797C330.636 79.1658 330.105 79.0605 329.649 78.9375C329.283 78.8702 328.908 78.7662 328.569 78.809C328.185 78.824 327.826 78.9491 327.586 79.24C327.225 79.6764 327.265 80.3269 327.434 80.8687C327.542 81.1535 327.649 81.4383 327.886 81.6143C328.177 81.8549 328.57 81.8766 328.899 81.9528C329.393 82.0669 329.838 82.4645 330.28 82.2028C330.575 81.9765 330.746 81.2362 330.85 80.8617Z" fill="#FFE2D9"/>
<path d="M350.234 71.224C349.118 71.1045 348.013 70.7103 347.113 70.034C346.876 69.858 346.631 69.6452 346.56 69.3516C346.472 68.9845 346.612 68.6012 346.799 68.2456C347.004 67.8079 347.274 67.3158 347.733 67.1274C347.806 67.1098 347.843 67.1009 347.917 67.0833C348.036 67.0934 348.127 67.1492 348.181 67.2138C349.309 68.0294 351 68.4378 351.99 69.3255C353.345 70.4361 351.35 71.3436 350.234 71.224Z" fill="#FFE2D9"/>
<path d="M351.025 70.8001C350.228 70.7199 349.434 70.484 348.871 69.9204C348.771 69.8279 348.882 69.6457 349.01 69.6926C349.658 69.9639 350.315 70.2719 351.038 70.3697C351.284 70.4268 351.299 70.8117 351.025 70.8001Z" fill="white"/>
<path d="M348.149 69.8235C348.057 69.7675 347.957 69.6747 347.828 69.6276C347.645 69.5157 347.805 69.2044 347.996 69.3532C348.088 69.4091 348.216 69.4562 348.316 69.5491C348.527 69.6153 348.331 69.9354 348.149 69.8235Z" fill="white"/>
<path d="M330.234 80.0779C330.071 79.8841 329.88 79.7359 329.688 79.5877C329.497 79.4395 329.242 79.3456 329.059 79.2341C329.014 79.2063 328.987 79.0961 329.061 79.0784C329.593 79.0281 330.157 79.436 330.52 79.8147C330.711 79.9629 330.397 80.2717 330.234 80.0779Z" fill="white"/>
<path d="M328.62 79.3406C328.418 79.3114 328.226 79.3189 328.025 79.2896C327.86 79.2516 327.844 79.0224 328.036 79.015C328.229 79.0075 328.421 79 328.622 79.0292C328.851 79.0129 328.858 79.361 328.62 79.3406Z" fill="white"/>
<path d="M330.787 81.7307C330.88 81.475 330.974 81.2194 331.068 80.9637C331.134 80.7536 331.219 80.4612 331.367 80.2701C331.432 80.2157 331.542 80.1892 331.532 80.3082C331.61 80.7944 331.321 81.3689 331.161 81.8347C331.067 82.0904 330.693 81.9863 330.787 81.7307Z" fill="#CE643A"/>
<path d="M336.57 86.3952C335.226 87.2626 334.683 88.5582 334.35 90.0754C334.303 90.2032 334.11 90.2107 334.075 90.0638C333.833 88.4135 334.964 86.8208 336.308 85.9534C336.575 85.7726 336.837 86.2144 336.57 86.3952Z" fill="#CE643A"/>
<path d="M268.175 103.943C268.175 103.943 258.246 107.837 242.938 105.686C235.644 103.361 195.178 98.2329 180.102 94.5556L189.41 57.2202C189.41 57.2202 233.375 70.9076 250.015 74.5088C266.663 78.0733 258.003 77.6329 276.678 78.2547L268.175 103.943Z" fill="#FFB998"/>
<line x1="246.623" y1="76.1013" x2="242.49" y2="96.1013" stroke="black"/>
<path d="M190 97L200 60.5L239 72L230 103.5L190 97Z" fill="#004976"/>
<rect width="18.1414" height="47.0332" rx="9.0707" transform="matrix(0.274185 -0.961677 -0.961677 -0.274185 237.204 83.2784)" fill="white"/>
<rect x="-0.515619" y="-0.926896" width="9.25046" height="25.3761" rx="2.25" transform="matrix(0.274185 -0.961677 -0.961677 -0.274185 227.998 75.1455)" fill="#1704F5" stroke="black" stroke-width="1.5"/>
<path d="M211.771 69.2771L209.853 68.6044L210.002 68.8434L209.752 69.5567L209.041 68.3577L209.242 67.784L211.96 68.7373L211.771 69.2771ZM212.571 66.9949L211.892 66.7566L211.306 68.4249L210.816 68.2528L209.869 65.9963L210.042 65.5056L211.54 66.0313L211.67 65.6614L212.21 65.8507L212.08 66.2206L212.759 66.459L212.571 66.9949ZM211.069 67.375L211.352 66.5673L210.684 66.3329L211.069 67.375ZM213.538 64.2378L212.859 63.9994L212.274 65.6678L211.783 65.4956L210.837 63.2391L211.009 62.7485L212.507 63.2741L212.637 62.9042L213.177 63.0936L213.047 63.4635L213.726 63.7018L213.538 64.2378ZM212.036 64.6178L212.319 63.8101L211.651 63.5757L212.036 64.6178Z" fill="white"/>
<path d="M216.383 70.3313C216.349 70.4294 216.294 70.5104 216.218 70.5741C216.139 70.637 216.051 70.6795 215.953 70.7016C215.855 70.7211 215.759 70.7141 215.663 70.6806L215.078 70.4754C215.033 70.4595 214.991 70.4377 214.953 70.4101C214.913 70.3792 214.875 70.3461 214.839 70.311C214.792 70.317 214.743 70.3196 214.692 70.3188C214.642 70.3155 214.594 70.3054 214.546 70.2887L214.01 70.1006C213.912 70.0662 213.831 70.011 213.767 69.9349C213.704 69.8563 213.663 69.7684 213.643 69.6711C213.624 69.5738 213.631 69.4761 213.666 69.378L214.23 67.77C214.26 67.6845 214.308 67.611 214.375 67.5497C214.44 67.4849 214.515 67.4393 214.601 67.4128C214.685 67.3829 214.77 67.3745 214.856 67.3877L215.486 67.6088C215.577 67.6406 215.658 67.6958 215.729 67.7745C215.824 67.7541 215.92 67.761 216.018 67.7955L216.603 68.0007C216.699 68.0342 216.778 68.0903 216.841 68.1689C216.905 68.2449 216.947 68.3333 216.968 68.434C216.988 68.5313 216.981 68.6278 216.947 68.7234L216.383 70.3313ZM215.855 70.1206L216.404 68.558C216.405 68.553 216.405 68.5471 216.401 68.5403C216.398 68.5335 216.394 68.5292 216.389 68.5274L215.86 68.342C215.853 68.3394 215.847 68.3401 215.843 68.3443C215.836 68.3476 215.832 68.3517 215.83 68.3567L215.282 69.9194C215.28 69.9244 215.281 69.9303 215.284 69.9371C215.285 69.943 215.289 69.9473 215.296 69.95L215.825 70.1353C215.83 70.1371 215.836 70.1364 215.843 70.1331C215.849 70.1298 215.854 70.1257 215.855 70.1206ZM214.78 69.7433L215.328 68.1806C215.33 68.1756 215.329 68.1697 215.326 68.1629C215.322 68.1561 215.318 68.1518 215.313 68.15L214.792 67.9673C214.787 67.9656 214.781 67.9663 214.774 67.9696C214.768 67.9728 214.763 67.977 214.762 67.982L214.213 69.5447C214.212 69.5497 214.212 69.5556 214.216 69.5624C214.219 69.5692 214.223 69.5735 214.228 69.5753L214.749 69.758C214.754 69.7597 214.76 69.759 214.767 69.7557C214.774 69.7525 214.778 69.7483 214.78 69.7433ZM217.482 67.1985C217.448 67.2967 217.393 67.3776 217.317 67.4414C217.238 67.5042 217.15 67.5467 217.052 67.5688C216.954 67.5884 216.858 67.5814 216.762 67.5478L216.573 67.4816L216.763 66.9419L216.925 66.9988C216.93 67.0006 216.936 67.0011 216.941 67.0003C216.948 66.9971 216.953 66.9929 216.954 66.9879L217.503 65.4252C217.504 65.4202 217.504 65.4143 217.5 65.4075C217.497 65.4007 217.493 65.3964 217.488 65.3946L216.967 65.2119C216.959 65.2093 216.953 65.21 216.949 65.2142C216.942 65.2174 216.938 65.2216 216.936 65.2266L216.352 66.8912L215.813 66.7018L216.36 65.143C216.362 65.1354 216.363 65.1299 216.361 65.1265C216.358 65.1197 216.354 65.1155 216.349 65.1137L215.85 64.9389C215.845 64.9372 215.839 64.9379 215.833 64.9412C215.827 64.9419 215.822 64.9461 215.82 64.9536L215.309 66.4106C215.307 66.4156 215.308 66.4215 215.311 66.4283C215.315 66.4326 215.32 66.4356 215.325 66.4374L215.521 66.5062L215.332 67.046L215.109 66.9679C215.011 66.9334 214.93 66.8782 214.866 66.8021C214.803 66.7236 214.762 66.6356 214.742 66.5383C214.723 66.4411 214.73 66.3433 214.765 66.2452L215.293 64.7392C215.327 64.641 215.383 64.5601 215.459 64.4963C215.535 64.4326 215.622 64.3909 215.719 64.3714C215.816 64.3518 215.914 64.3592 216.012 64.3937L216.559 64.5857C216.589 64.5963 216.62 64.6098 216.651 64.6263C216.68 64.6394 216.706 64.6554 216.727 64.6743C216.79 64.6483 216.857 64.635 216.928 64.6344C216.996 64.633 217.063 64.6437 217.129 64.6667L217.702 64.8679C217.798 64.9015 217.878 64.9563 217.941 65.0323C218.005 65.1084 218.048 65.1968 218.069 65.2975C218.088 65.3948 218.081 65.4912 218.048 65.5868L217.482 67.1985Z" fill="white"/>
<path d="M223.7 72.2433C223.666 72.3414 223.611 72.4224 223.535 72.4861C223.456 72.549 223.368 72.5915 223.269 72.6136C223.172 72.6331 223.076 72.6261 222.98 72.5926L222.395 72.3873C222.35 72.3715 222.308 72.3497 222.27 72.3221C222.23 72.2911 222.192 72.2581 222.156 72.2229C222.109 72.229 222.06 72.2316 222.009 72.2308C221.959 72.2275 221.911 72.2174 221.863 72.2006L221.327 72.0126C221.229 71.9782 221.148 71.923 221.084 71.8469C221.021 71.7683 220.98 71.6804 220.96 71.5831C220.941 71.4858 220.948 71.3881 220.983 71.29L221.547 69.682C221.577 69.5965 221.625 69.523 221.692 69.4616C221.757 69.3969 221.832 69.3512 221.918 69.3248C222.002 69.2949 222.087 69.2865 222.173 69.2996L222.803 69.5208C222.894 69.5525 222.974 69.6078 223.046 69.6865C223.141 69.666 223.237 69.673 223.335 69.7075L223.92 69.9127C224.016 69.9462 224.095 70.0023 224.158 70.0809C224.222 70.1569 224.264 70.2453 224.285 70.346C224.305 70.4433 224.298 70.5397 224.264 70.6354L223.7 72.2433ZM223.172 72.0326L223.72 70.47C223.722 70.465 223.721 70.459 223.718 70.4522C223.715 70.4454 223.711 70.4412 223.706 70.4394L223.177 70.254C223.17 70.2514 223.164 70.2521 223.16 70.2563C223.153 70.2595 223.148 70.2637 223.147 70.2687L222.599 71.8314C222.597 71.8364 222.598 71.8423 222.601 71.8491C222.602 71.855 222.606 71.8593 222.613 71.862L223.142 72.0473C223.147 72.0491 223.153 72.0483 223.159 72.0451C223.166 72.0418 223.17 72.0377 223.172 72.0326ZM222.097 71.6553L222.645 70.0926C222.646 70.0876 222.646 70.0817 222.642 70.0749C222.639 70.0681 222.635 70.0638 222.63 70.062L222.109 69.8793C222.104 69.8775 222.098 69.8783 222.091 69.8816C222.085 69.8848 222.08 69.889 222.079 69.894L221.53 71.4567C221.529 71.4617 221.529 71.4676 221.533 71.4744C221.536 71.4812 221.54 71.4855 221.545 71.4872L222.066 71.67C222.071 71.6717 222.077 71.671 222.084 71.6677C222.09 71.6644 222.095 71.6603 222.097 71.6553ZM224.805 69.0954C224.77 69.1936 224.715 69.2745 224.639 69.3383C224.56 69.4011 224.472 69.4436 224.374 69.4657C224.276 69.4852 224.18 69.4783 224.084 69.4447L223.499 69.2395C223.454 69.2236 223.412 69.2019 223.374 69.1743C223.334 69.1433 223.296 69.1102 223.26 69.0751C223.213 69.0811 223.164 69.0837 223.113 69.0829C223.064 69.0796 223.015 69.0696 222.967 69.0528L222.431 68.8648C222.333 68.8303 222.252 68.7751 222.188 68.699C222.125 68.6205 222.084 68.5325 222.065 68.4352C222.045 68.3379 222.052 68.2402 222.087 68.1421L222.651 66.5342C222.681 66.4486 222.729 66.3751 222.796 66.3138C222.861 66.249 222.937 66.2034 223.022 66.1769C223.106 66.147 223.191 66.1386 223.277 66.1518L223.907 66.3729C223.998 66.4047 224.079 66.4599 224.15 66.5386C224.245 66.5182 224.341 66.5252 224.439 66.5596L225.024 66.7648C225.12 66.7984 225.199 66.8544 225.262 66.933C225.326 67.0091 225.368 67.0974 225.39 67.1981C225.409 67.2954 225.402 67.3919 225.369 67.4875L224.805 69.0954ZM224.277 68.8848L224.825 67.3221C224.826 67.3171 224.826 67.3112 224.822 67.3044C224.819 67.2976 224.815 67.2933 224.81 67.2915L224.282 67.1062C224.274 67.1035 224.268 67.1043 224.264 67.1084C224.257 67.1117 224.253 67.1158 224.251 67.1209L223.703 68.6835C223.701 68.6885 223.702 68.6945 223.705 68.7012C223.706 68.7072 223.71 68.7114 223.718 68.7141L224.246 68.8995C224.251 68.9012 224.257 68.9005 224.264 68.8972C224.27 68.8939 224.275 68.8898 224.277 68.8848ZM223.201 68.5074L223.749 66.9448C223.751 66.9397 223.75 66.9338 223.747 66.927C223.743 66.9202 223.739 66.9159 223.734 66.9142L223.213 66.7314C223.208 66.7297 223.202 66.7304 223.196 66.7337C223.189 66.737 223.185 66.7411 223.183 66.7461L222.635 68.3088C222.633 68.3138 222.634 68.3197 222.637 68.3265C222.64 68.3333 222.644 68.3376 222.649 68.3394L223.17 68.5221C223.175 68.5239 223.181 68.5231 223.188 68.5198C223.195 68.5166 223.199 68.5124 223.201 68.5074Z" fill="white"/>
<rect x="198.641" y="60.6606" width="5.14527" height="3.98395" rx="1.99198" transform="rotate(-47.7604 198.641 60.6606)" stroke="#C5C9D0" stroke-width="0.5"/>
<rect x="196.89" y="66.8025" width="5.14527" height="3.98395" rx="1.99198" transform="rotate(-47.7604 196.89 66.8025)" stroke="#C5C9D0" stroke-width="0.5"/>
<g clip-path="url(#clip0_2029_35771)">
<path d="M199.006 67.3588L199.322 67.449C199.401 67.4714 199.478 67.4715 199.553 67.4493C199.629 67.4272 199.693 67.3847 199.744 67.3218C199.863 67.1785 199.957 67.0457 200.025 66.9234C200.094 66.8011 200.149 66.6704 200.188 66.5312C200.228 66.3921 200.251 66.253 200.256 66.1139C200.262 65.9748 200.252 65.8131 200.227 65.6288C200.216 65.5481 200.185 65.4778 200.133 65.4181C200.08 65.3583 200.015 65.3173 199.937 65.2949L199.62 65.2047L199.006 67.3588ZM199.678 65.0027L199.994 65.0929C200.136 65.1332 200.241 65.2022 200.312 65.3C200.382 65.3977 200.429 65.5129 200.452 65.6455C200.478 65.4856 200.493 65.3322 200.497 65.1854C200.502 65.0386 200.493 64.9162 200.473 64.8182C200.451 64.732 200.415 64.6586 200.365 64.598C200.314 64.5375 200.249 64.496 200.171 64.4736L199.854 64.3834L199.678 65.0027ZM200.394 66.5898C200.351 66.7379 200.364 66.8725 200.431 66.9936C200.499 67.1147 200.606 67.1964 200.754 67.2386C200.903 67.2808 201.037 67.2682 201.158 67.2009C201.279 67.1335 201.361 67.0258 201.403 66.8777C201.445 66.7296 201.433 66.595 201.366 66.4738C201.298 66.3527 201.19 66.2711 201.042 66.2288C200.894 66.1866 200.76 66.1992 200.639 66.2666C200.517 66.3339 200.436 66.4417 200.394 66.5898ZM201.244 65.522C201.096 65.4798 200.961 65.4924 200.84 65.5598C200.719 65.6271 200.637 65.7349 200.595 65.883C200.588 65.9076 200.582 65.9356 200.577 65.9669C200.571 65.9981 200.57 66.0274 200.572 66.0546C200.643 66.0167 200.724 65.9955 200.814 65.9908C200.904 65.9861 200.999 65.9981 201.1 66.0269C201.201 66.0557 201.286 66.0951 201.356 66.1453C201.425 66.1954 201.484 66.2566 201.534 66.329C201.548 66.3063 201.561 66.2804 201.575 66.2514C201.588 66.2224 201.598 66.1955 201.605 66.1708C201.647 66.0227 201.634 65.8881 201.567 65.767C201.5 65.6459 201.392 65.5643 201.244 65.522ZM199.266 67.2144L199.765 65.4642L199.879 65.4968C199.915 65.5071 199.947 65.5276 199.974 65.5586C200.002 65.5895 200.018 65.6225 200.022 65.6578C200.048 65.8398 200.058 65.9893 200.051 66.1063C200.044 66.2233 200.023 66.3458 199.986 66.4737C199.95 66.6016 199.903 66.7175 199.847 66.8216C199.791 66.9256 199.704 67.0482 199.586 67.1892C199.563 67.2168 199.532 67.2359 199.493 67.2465C199.454 67.2571 199.416 67.2573 199.38 67.247L199.266 67.2144ZM200.595 66.6473C200.62 66.5598 200.67 66.4956 200.743 66.4547C200.817 66.4138 200.897 66.4058 200.985 66.4308C201.072 66.4557 201.136 66.505 201.177 66.5785C201.218 66.652 201.226 66.7326 201.201 66.8201C201.176 66.9076 201.127 66.9718 201.054 67.0127C200.98 67.0536 200.9 67.0616 200.812 67.0366C200.725 67.0117 200.66 66.9624 200.619 66.8889C200.579 66.8154 200.571 66.7349 200.595 66.6473Z" fill="black"/>
</g>
<g clip-path="url(#clip1_2029_35771)">
<path d="M201.21 58.8205L201.717 59.7309C201.655 59.7714 201.6 59.8239 201.554 59.8883C201.507 59.9527 201.472 60.0253 201.449 60.1061C201.394 60.3 201.415 60.4835 201.511 60.6566C201.607 60.8297 201.751 60.9434 201.941 60.9976C202.131 61.0519 202.313 61.0309 202.486 60.9346C202.659 60.8383 202.773 60.6941 202.828 60.502C202.882 60.3117 202.861 60.1304 202.764 59.9582C202.668 59.786 202.524 59.6728 202.334 59.6186C202.257 59.5965 202.179 59.5879 202.1 59.5925C202.021 59.5972 201.943 59.6157 201.865 59.6481L201.362 58.7358L201.21 58.8205ZM201.61 60.1549C201.652 60.0094 201.739 59.9003 201.871 59.8273C202.004 59.7544 202.143 59.7387 202.288 59.7802C202.433 59.8216 202.543 59.9083 202.617 60.0401C202.691 60.1718 202.708 60.3105 202.666 60.4559C202.624 60.6032 202.537 60.7137 202.404 60.7875C202.271 60.8613 202.132 60.8775 201.987 60.836C201.841 60.7945 201.732 60.7075 201.658 60.5748C201.584 60.4421 201.568 60.3021 201.61 60.1549Z" fill="black"/>
</g>
<path d="M244.459 37.6222L244.391 46.1824L242.979 46.1713L243.033 39.2868L240.936 39.9793L240.945 38.8133L244.289 37.6208L244.459 37.6222ZM250.913 42.0266L250.904 43.1515L247.805 43.1272L247.813 42.0022L250.913 42.0266ZM258.361 45.1673L258.353 46.2922L252.634 46.2473L252.642 45.2805L255.443 42.2731C255.75 41.9318 255.993 41.6368 256.17 41.3882C256.348 41.1396 256.473 40.9159 256.545 40.7173C256.621 40.5148 256.659 40.3178 256.661 40.1264C256.663 39.8569 256.614 39.6201 256.514 39.4162C256.418 39.2084 256.275 39.0452 256.084 38.9265C255.894 38.8039 255.662 38.7415 255.388 38.7394C255.072 38.7369 254.806 38.8032 254.59 38.9382C254.374 39.0732 254.21 39.2614 254.099 39.5027C253.988 39.7401 253.931 40.0131 253.929 40.3217L252.517 40.3106C252.521 39.8145 252.637 39.3623 252.867 38.9539C253.097 38.5417 253.428 38.2161 253.859 37.9773C254.291 37.7346 254.809 37.6157 255.415 37.6204C255.985 37.6249 256.469 37.7244 256.866 37.9189C257.263 38.1135 257.563 38.3873 257.767 38.7405C257.976 39.0937 258.078 39.5106 258.074 39.991C258.072 40.2566 258.027 40.5199 257.939 40.781C257.851 41.042 257.726 41.3028 257.564 41.5632C257.405 41.8198 257.218 42.0781 257.001 42.3381C256.784 42.5942 256.546 42.8541 256.286 43.1177L254.424 45.1363L258.361 45.1673ZM262.734 45.3188C262.964 45.3206 263.172 45.2773 263.356 45.1889C263.544 45.0967 263.696 44.969 263.81 44.8058C263.929 44.6427 263.995 44.4537 264.008 44.239L265.338 44.2494C265.327 44.6595 265.203 45.0316 264.966 45.3657C264.729 45.6998 264.416 45.9649 264.028 46.1611C263.64 46.3533 263.211 46.4476 262.743 46.4439C262.258 46.4401 261.837 46.3548 261.479 46.1879C261.121 46.0171 260.824 45.7843 260.588 45.4895C260.352 45.1946 260.175 44.8553 260.057 44.4716C259.943 44.0879 259.887 43.6773 259.891 43.2398L259.892 43.0347C259.896 42.5972 259.958 42.1875 260.078 41.8056C260.202 41.4199 260.384 41.0815 260.625 40.7904C260.865 40.4993 261.166 40.2731 261.527 40.1119C261.887 39.9468 262.308 39.8661 262.788 39.8699C263.296 39.8739 263.741 39.9789 264.122 40.185C264.503 40.3873 264.802 40.6689 265.018 41.03C265.237 41.3872 265.349 41.8022 265.354 42.2749L264.024 42.2644C264.014 42.03 263.957 41.8186 263.853 41.6302C263.753 41.438 263.609 41.2846 263.423 41.1698C263.24 41.0551 263.02 40.9967 262.762 40.9947C262.477 40.9925 262.24 41.0492 262.052 41.1649C261.863 41.2767 261.716 41.4318 261.609 41.6302C261.502 41.8247 261.424 42.0447 261.375 42.2905C261.33 42.5323 261.306 42.7841 261.304 43.0458L261.303 43.2509C261.301 43.5126 261.32 43.7666 261.361 44.0131C261.402 44.2595 261.475 44.4808 261.579 44.6769C261.687 44.8692 261.834 45.0246 262.02 45.1433C262.207 45.258 262.445 45.3166 262.734 45.3188ZM268.457 41.3207L268.418 46.3714L267.005 46.3603L267.055 40.0206L268.385 40.0311L268.457 41.3207ZM268.216 42.9654L267.735 42.9557C267.739 42.5182 267.797 42.1144 267.909 41.7442C268.021 41.3739 268.184 41.053 268.397 40.7812C268.61 40.5055 268.874 40.2947 269.187 40.1487C269.505 39.9989 269.871 39.9256 270.285 39.9288C270.574 39.9311 270.837 39.9761 271.075 40.0639C271.316 40.1479 271.524 40.2804 271.698 40.4614C271.877 40.6425 272.012 40.8741 272.103 41.156C272.199 41.438 272.245 41.7783 272.242 42.1767L272.208 46.4012L270.796 46.3901L270.829 42.2886C270.831 41.98 270.786 41.7375 270.694 41.561C270.605 41.3845 270.475 41.2585 270.304 41.1829C270.137 41.1035 269.936 41.0628 269.702 41.061C269.436 41.0589 269.209 41.1079 269.021 41.208C268.836 41.3081 268.685 41.4456 268.566 41.6204C268.448 41.7953 268.36 41.9977 268.304 42.2278C268.247 42.4578 268.218 42.7037 268.216 42.9654ZM272.15 42.6213L271.487 42.7626C271.49 42.3798 271.546 42.0189 271.654 41.6799C271.766 41.337 271.926 41.0375 272.135 40.7813C272.348 40.5212 272.61 40.3182 272.92 40.1722C273.229 40.0262 273.583 39.9547 273.982 39.9579C274.306 39.9604 274.595 40.0076 274.848 40.0995C275.105 40.1874 275.323 40.3259 275.501 40.5148C275.679 40.7037 275.814 40.9489 275.905 41.2504C275.997 41.548 276.041 41.9077 276.037 42.3296L276.005 46.431L274.587 46.4199L274.62 42.3126C274.622 41.9923 274.577 41.7439 274.485 41.5674C274.396 41.3909 274.268 41.2688 274.101 41.201C273.934 41.1294 273.733 41.0927 273.498 41.0908C273.28 41.0891 273.086 41.1286 272.917 41.2093C272.753 41.2861 272.613 41.3964 272.499 41.54C272.384 41.6797 272.297 41.8412 272.237 42.0243C272.181 42.2075 272.152 42.4065 272.15 42.6213Z" fill="#004976"/>
<line y1="-0.5" x2="16.0993" y2="-0.5" transform="matrix(-0.230728 0.973018 -0.96888 -0.24753 248.708 50.7209)" stroke="black"/>
<line y1="-0.5" x2="16.0993" y2="-0.5" transform="matrix(-0.230728 0.973018 -0.96888 -0.24753 255.335 51.7244)" stroke="black"/>
<path d="M238.685 55.6362L245.656 57.1292L244.843 55.8721L245.429 55.4924L246.894 57.7551L244.631 59.2197L244.251 58.633L245.509 57.8194L238.537 56.3265L238.685 55.6362Z" fill="black"/>
<path d="M262.635 60.9506L255.649 59.5239L256.899 58.6984L256.513 58.1154L254.265 59.6014L255.751 61.8501L256.334 61.4649L255.508 60.2156L262.493 61.6422L262.635 60.9506Z" fill="black"/>
<path d="M252.086 89.1953C252.086 89.1953 258.5 90.0002 262.035 88.1793" stroke="black"/>
<line x1="273.967" y1="87.8583" x2="283.915" y2="86.8422" stroke="black"/>
<line x1="293.864" y1="85.8261" x2="303.812" y2="84.81" stroke="black"/>
<path d="M230.166 81.163L233.652 87.3156L227.499 90.8007L230.166 81.163Z" fill="#D70015"/>
<line x1="-8.74228e-08" y1="90" x2="122" y2="90" stroke="white" stroke-width="2" stroke-dasharray="4 4"/>
<defs>
<filter id="filter0_dd_2029_35771" x="86.043" y="76.5862" width="17.4434" height="23.698" filterUnits="userSpaceOnUse" color-interpolation-filters="sRGB">
<feFlood flood-opacity="0" result="BackgroundImageFix"/>
<feColorMatrix in="SourceAlpha" type="matrix" values="0 0 0 0 0 0 0 0 0 0 0 0 0 0 0 0 0 0 127 0" result="hardAlpha"/>
<feOffset dy="2"/>
<feGaussianBlur stdDeviation="1"/>
<feComposite in2="hardAlpha" operator="out"/>
<feColorMatrix type="matrix" values="0 0 0 0 0 0 0 0 0 0 0 0 0 0 0 0 0 0 0.15 0"/>
<feBlend mode="normal" in2="BackgroundImageFix" result="effect1_dropShadow_2029_35771"/>
<feColorMatrix in="SourceAlpha" type="matrix" values="0 0 0 0 0 0 0 0 0 0 0 0 0 0 0 0 0 0 127 0" result="hardAlpha"/>
<feOffset dy="1"/>
<feGaussianBlur stdDeviation="0.5"/>
<feComposite in2="hardAlpha" operator="out"/>
<feColorMatrix type="matrix" values="0 0 0 0 0 0 0 0 0 0 0 0 0 0 0 0 0 0 0.05 0"/>
<feBlend mode="normal" in2="effect1_dropShadow_2029_35771" result="effect2_dropShadow_2029_35771"/>
<feBlend mode="normal" in="SourceGraphic" in2="effect2_dropShadow_2029_35771" result="shape"/>
</filter>
<clipPath id="clip0_2029_35771">
<rect width="3.35992" height="3.35992" fill="white" transform="matrix(0.274185 -0.961677 -0.961677 -0.274185 201.663 68.2545)"/>
</clipPath>
<clipPath id="clip1_2029_35771">
<rect width="2.68878" height="2.68878" fill="white" transform="matrix(0.274185 -0.961677 -0.961677 -0.274185 202.859 61.6088)"/>
</clipPath>
</defs>
</svg>
