<svg width="30" height="28" viewBox="0 0 30 28" fill="none" xmlns="http://www.w3.org/2000/svg">
<path d="M26.7299 4.33996H20.8202C20.0701 1.84996 17.7303 0.0200195 15.0002 0.0200195C12.2701 0.0200195 9.93023 1.8499 9.18018 4.33996H3.27041C1.80029 4.33996 0.63047 5.59996 0.750411 7.07008L2.31047 25.6701C2.43041 26.99 3.51047 27.9802 4.83047 27.9802H25.1402C26.4602 27.9802 27.5403 26.9903 27.6602 25.6701L29.2203 7.07008C29.37 5.59996 28.2002 4.33996 26.7301 4.33996H26.7299ZM15.0001 1.60984C17.4601 1.60984 19.4701 3.6199 19.4701 6.0799C19.4701 8.5399 17.4601 10.55 15.0001 10.55C12.5401 10.55 10.53 8.5399 10.53 6.0799C10.53 3.6199 12.5401 1.60984 15.0001 1.60984Z" fill="white"/>
<path d="M15 7.24992C15.6301 7.24992 16.1701 6.73997 16.1701 6.07986C16.1701 5.68985 15.9902 5.3298 15.6901 5.11992L15.1802 2.7798C15.1502 2.68985 15.0902 2.62988 15.0003 2.62988C14.9103 2.62988 14.8503 2.68985 14.8204 2.7798L14.3104 5.11992C14.0103 5.33003 13.8304 5.68984 13.8304 6.07986C13.83 6.73998 14.3699 7.24992 15 7.24992H15Z" fill="white"/>
</svg>
